<svg width="18" height="18" viewBox="0 0 18 18" fill="none" xmlns="http://www.w3.org/2000/svg">
<path d="M12 12C11.5858 12 11.25 12.3358 11.25 12.75V12.7515C11.25 13.1657 11.5858 13.5015 12 13.5015H12.0015C12.4157 13.5015 12.7515 13.1657 12.7515 12.7515V12.75C12.7515 12.3358 12.4157 12 12.0015 12H12Z" fill="#B4B4B4"/>
<path d="M8.25 12.75C8.25 12.3358 8.58579 12 9 12H9.0015C9.41571 12 9.7515 12.3358 9.7515 12.75V12.7515C9.7515 13.1657 9.41571 13.5015 9.0015 13.5015H9C8.58579 13.5015 8.25 13.1657 8.25 12.7515V12.75Z" fill="#B4B4B4"/>
<path d="M6 12C5.58579 12 5.25 12.3358 5.25 12.75V12.7515C5.25 13.1657 5.58579 13.5015 6 13.5015H6.0015C6.41571 13.5015 6.7515 13.1657 6.7515 12.7515V12.75C6.7515 12.3358 6.41571 12 6.0015 12H6Z" fill="#B4B4B4"/>
<path d="M11.25 9.75C11.25 9.33579 11.5858 9 12 9H12.0015C12.4157 9 12.7515 9.33579 12.7515 9.75V9.7515C12.7515 10.1657 12.4157 10.5015 12.0015 10.5015H12C11.5858 10.5015 11.25 10.1657 11.25 9.7515V9.75Z" fill="#B4B4B4"/>
<path d="M9 9C8.58579 9 8.25 9.33579 8.25 9.75V9.7515C8.25 10.1657 8.58579 10.5015 9 10.5015H9.0015C9.41571 10.5015 9.7515 10.1657 9.7515 9.7515V9.75C9.7515 9.33579 9.41571 9 9.0015 9H9Z" fill="#B4B4B4"/>
<path d="M5.25 9.75C5.25 9.33579 5.58579 9 6 9H6.0015C6.41571 9 6.7515 9.33579 6.7515 9.75V9.7515C6.7515 10.1657 6.41571 10.5015 6.0015 10.5015H6C5.58579 10.5015 5.25 10.1657 5.25 9.7515V9.75Z" fill="#B4B4B4"/>
<path fill-rule="evenodd" clip-rule="evenodd" d="M12 1.5C12.4142 1.5 12.75 1.83579 12.75 2.25V3H14.25C15.0784 3 15.75 3.67157 15.75 4.5V15C15.75 15.8284 15.0784 16.5 14.25 16.5H3.75C2.92157 16.5 2.25 15.8284 2.25 15V4.5C2.25 3.67157 2.92157 3 3.75 3H5.25V2.25C5.25 1.83579 5.58579 1.5 6 1.5C6.41421 1.5 6.75 1.83579 6.75 2.25V3H11.25V2.25C11.25 1.83579 11.5858 1.5 12 1.5ZM3.75 4.5V6H14.25V4.5H3.75ZM3.75 7.5H14.25V15H3.75V7.5Z" fill="#B4B4B4"/>
</svg>
