<svg width="16" height="16" viewBox="0 0 16 16" fill="none" xmlns="http://www.w3.org/2000/svg">
<path d="M6.66848 7.66663C7.03667 7.66663 7.33514 7.9651 7.33514 8.33329V10.3333C7.33514 10.7015 7.03667 11 6.66848 11C6.30029 11 6.00181 10.7015 6.00181 10.3333V8.33329C6.00181 7.9651 6.30029 7.66663 6.66848 7.66663Z" fill="#333333"/>
<path d="M9.33514 7.66663C9.70333 7.66663 10.0018 7.9651 10.0018 8.33329V10.3333C10.0018 10.7015 9.70333 11 9.33514 11C8.96695 11 8.66848 10.7015 8.66848 10.3333V8.33329C8.66848 7.9651 8.96695 7.66663 9.33514 7.66663Z" fill="#333333"/>
<path fill-rule="evenodd" clip-rule="evenodd" d="M4.66848 3.66663V4.33329H2.00181C1.63362 4.33329 1.33514 4.63177 1.33514 4.99996C1.33514 5.36815 1.63362 5.66663 2.00181 5.66663H2.73959L3.06716 11.8086C3.14266 13.2242 4.31247 14.3333 5.73005 14.3333H10.2736C11.6911 14.3333 12.861 13.2242 12.9365 11.8086L13.264 5.66663H14.0018C14.37 5.66663 14.6685 5.36815 14.6685 4.99996C14.6685 4.63177 14.37 4.33329 14.0018 4.33329H11.3351V3.66663C11.3351 2.56206 10.4397 1.66663 9.33514 1.66663H6.66848C5.56391 1.66663 4.66848 2.56206 4.66848 3.66663ZM6.00181 3.66663V4.33329H10.0018V3.66663C10.0018 3.29844 9.70333 2.99996 9.33514 2.99996H6.66848C6.30029 2.99996 6.00181 3.29844 6.00181 3.66663ZM4.3986 11.7376L4.07482 5.66663H11.9288L11.605 11.7376C11.5673 12.4454 10.9824 13 10.2736 13H5.73005C5.02126 13 4.43635 12.4454 4.3986 11.7376Z" fill="#333333"/>
</svg>
