<svg width="16" height="16" viewBox="0 0 16 16" fill="none" xmlns="http://www.w3.org/2000/svg">
<path d="M8.00183 11.3333C7.82227 11.3333 7.65929 11.2623 7.53942 11.1469L7.53043 11.1381L4.86376 8.4714C4.60341 8.21106 4.60341 7.78895 4.86376 7.5286C5.12411 7.26825 5.54622 7.26825 5.80657 7.5286L7.33516 9.05719L7.33517 2.66667C7.33517 2.29848 7.63364 2 8.00183 2C8.37002 2 8.6685 2.29848 8.6685 2.66667L8.6685 9.05719L10.1971 7.5286C10.4574 7.26825 10.8796 7.26825 11.1399 7.5286C11.4003 7.78895 11.4003 8.21106 11.1399 8.47141L8.47324 11.1381L8.46892 11.1423C8.34864 11.2605 8.18374 11.3333 8.00183 11.3333Z" fill="#333333"/>
<path d="M3.33516 10C3.33516 9.63181 3.03669 9.33333 2.6685 9.33333C2.30031 9.33333 2.00183 9.63181 2.00183 10V12C2.00183 12.5304 2.21254 13.0391 2.58762 13.4142C2.96269 13.7893 3.4714 14 4.00183 14H12.0018C12.5323 14 13.041 13.7893 13.416 13.4142C13.7911 13.0391 14.0018 12.5304 14.0018 12V10C14.0018 9.63181 13.7034 9.33333 13.3352 9.33333C12.967 9.33333 12.6685 9.63181 12.6685 10V12C12.6685 12.1768 12.5983 12.3464 12.4732 12.4714C12.3482 12.5964 12.1786 12.6667 12.0018 12.6667H4.00183C3.82502 12.6667 3.65545 12.5964 3.53043 12.4714C3.4054 12.3464 3.33516 12.1768 3.33516 12V10Z" fill="#333333"/>
</svg>
