<svg width="16" height="16" viewBox="0 0 16 16" fill="none" xmlns="http://www.w3.org/2000/svg">
<path fill-rule="evenodd" clip-rule="evenodd" d="M3.66667 0.333374C2.19391 0.333374 1 1.52728 1 3.00004V8.33337C1 9.80613 2.19391 11 3.66667 11H3.95238C4.32057 11 4.61905 10.7016 4.61905 10.3334C4.61905 9.96518 4.32057 9.66671 3.95238 9.66671H3.66667C2.93029 9.66671 2.33333 9.06975 2.33333 8.33337V3.00004C2.33333 2.26366 2.93029 1.66671 3.66667 1.66671H7.66667C8.40305 1.66671 9 2.26366 9 3.00004V3.33337C9 3.70156 9.29848 4.00004 9.66667 4.00004C10.0349 4.00004 10.3333 3.70156 10.3333 3.33337V3.00004C10.3333 1.52728 9.13943 0.333374 7.66667 0.333374H3.66667ZM8.33333 5.00004C6.86057 5.00004 5.66667 6.19395 5.66667 7.66671V13C5.66667 14.4728 6.86057 15.6667 8.33333 15.6667H12.3333C13.8061 15.6667 15 14.4728 15 13V7.66671C15 6.19395 13.8061 5.00004 12.3333 5.00004H8.33333ZM7 7.66671C7 6.93033 7.59695 6.33337 8.33333 6.33337H12.3333C13.0697 6.33337 13.6667 6.93033 13.6667 7.66671V13C13.6667 13.7364 13.0697 14.3334 12.3333 14.3334H8.33333C7.59695 14.3334 7 13.7364 7 13V7.66671Z" fill="#333333"/>
</svg>
