<svg width="16" height="16" viewBox="0 0 16 16" fill="none" xmlns="http://www.w3.org/2000/svg">
<path fill-rule="evenodd" clip-rule="evenodd" d="M12.6641 3.33767C11.5709 2.24445 10.3161 2.81591 10.3161 2.81591L3.01145 10.1206L2.6709 12.9585C2.64505 13.1739 2.82781 13.3567 3.04326 13.3308L5.88115 12.9903L13.1858 5.68561C13.1858 5.68561 13.7573 4.43089 12.6641 3.33767ZM4.15306 11.8487L4.28609 10.7401L9.4039 5.62231L10.3794 6.59785L5.26163 11.7157L4.15306 11.8487ZM11.3265 5.65077L11.9905 4.98677C11.9934 4.96052 11.9953 4.93247 11.9957 4.90313C11.9978 4.74957 11.9654 4.53318 11.717 4.28475C11.4686 4.03632 11.2522 4.00396 11.0986 4.00608C11.0693 4.00649 11.0412 4.00838 11.015 4.01123L10.351 4.67523L11.3265 5.65077Z" fill="#333333"/>
</svg>
