<svg width="40" height="40" viewBox="0 0 40 40" fill="none" xmlns="http://www.w3.org/2000/svg">
<g filter="url(#filter0_d_135_8407)">
<rect x="4" width="32" height="32" rx="8" fill="#DC3545" shape-rendering="crispEdges"/>
<rect x="15.5557" y="12.4444" width="8.88889" height="7.11111" fill="#DC3545"/>
<path d="M20 8C18.4177 8 16.871 8.46919 15.5554 9.34824C14.2398 10.2273 13.2145 11.4767 12.609 12.9385C12.0035 14.4003 11.845 16.0089 12.1537 17.5607C12.4624 19.1126 13.2243 20.538 14.3431 21.6568C15.462 22.7757 16.8874 23.5376 18.4393 23.8463C19.9911 24.155 21.5997 23.9965 23.0615 23.391C24.5233 22.7855 25.7727 21.7601 26.6518 20.4446C27.5308 19.129 28 17.5822 28 16C27.9976 13.879 27.154 11.8455 25.6542 10.3458C24.1545 8.84598 22.121 8.00236 20 8ZM23.138 18.1953C23.2017 18.2568 23.2525 18.3304 23.2874 18.4117C23.3223 18.4931 23.3407 18.5805 23.3415 18.6691C23.3423 18.7576 23.3254 18.8454 23.2919 18.9273C23.2584 19.0092 23.2089 19.0837 23.1463 19.1463C23.0837 19.2089 23.0092 19.2584 22.9273 19.2919C22.8454 19.3254 22.7576 19.3423 22.6691 19.3415C22.5805 19.3407 22.4931 19.3223 22.4117 19.2874C22.3304 19.2525 22.2568 19.2017 22.1953 19.138L20 16.9427L17.8047 19.138C17.6789 19.2594 17.5105 19.3266 17.3357 19.3251C17.1609 19.3236 16.9937 19.2535 16.8701 19.1299C16.7465 19.0063 16.6764 18.8391 16.6749 18.6643C16.6734 18.4895 16.7406 18.3211 16.862 18.1953L19.0573 16L16.862 13.8047C16.7406 13.6789 16.6734 13.5105 16.6749 13.3357C16.6764 13.1609 16.7465 12.9937 16.8701 12.8701C16.9937 12.7465 17.1609 12.6764 17.3357 12.6749C17.5105 12.6734 17.6789 12.7406 17.8047 12.862L20 15.0573L22.1953 12.862C22.3211 12.7406 22.4895 12.6734 22.6643 12.6749C22.8391 12.6764 23.0063 12.7465 23.1299 12.8701C23.2535 12.9937 23.3236 13.1609 23.3251 13.3357C23.3266 13.5105 23.2594 13.6789 23.138 13.8047L20.9427 16L23.138 18.1953Z" fill="white"/>
</g>
<defs>
<filter id="filter0_d_135_8407" x="0" y="0" width="40" height="40" filterUnits="userSpaceOnUse" color-interpolation-filters="sRGB">
<feFlood flood-opacity="0" result="BackgroundImageFix"/>
<feColorMatrix in="SourceAlpha" type="matrix" values="0 0 0 0 0 0 0 0 0 0 0 0 0 0 0 0 0 0 127 0" result="hardAlpha"/>
<feOffset dy="4"/>
<feGaussianBlur stdDeviation="2"/>
<feComposite in2="hardAlpha" operator="out"/>
<feColorMatrix type="matrix" values="0 0 0 0 0.862745 0 0 0 0 0.207843 0 0 0 0 0.270588 0 0 0 0.12 0"/>
<feBlend mode="normal" in2="BackgroundImageFix" result="effect1_dropShadow_135_8407"/>
<feBlend mode="normal" in="SourceGraphic" in2="effect1_dropShadow_135_8407" result="shape"/>
</filter>
</defs>
</svg>
