<svg width="20" height="20" viewBox="0 0 20 20" fill="none" xmlns="http://www.w3.org/2000/svg">
<g clip-path="url(#clip0_3_9919)">
<path d="M20 10C20 8.02219 19.4135 6.08879 18.3147 4.4443C17.2159 2.79981 15.6541 1.51809 13.8268 0.761209C11.9996 0.00433281 9.98891 -0.193701 8.0491 0.192152C6.10929 0.578004 4.32746 1.53041 2.92894 2.92894C1.53041 4.32746 0.578004 6.10929 0.192152 8.0491C-0.193701 9.98891 0.00433281 11.9996 0.761209 13.8268C1.51809 15.6541 2.79981 17.2159 4.4443 18.3147C6.08879 19.4135 8.02219 20 10 20C12.6522 20 15.1957 18.9464 17.0711 17.0711C18.9464 15.1957 20 12.6522 20 10ZM18.2594 10C18.2594 11.6336 17.775 13.2304 16.8674 14.5887C15.9599 15.9469 14.6699 17.0055 13.1607 17.6307C11.6515 18.2558 9.99084 18.4194 8.38868 18.1007C6.78652 17.782 5.31484 16.9954 4.15974 15.8403C3.00465 14.6852 2.21802 13.2135 1.89933 11.6113C1.58064 10.0092 1.7442 8.34848 2.36934 6.83928C2.99447 5.33008 4.05309 4.04014 5.41134 3.13259C6.76959 2.22503 8.36646 1.74063 10 1.74063C12.19 1.74228 14.2899 2.613 15.8384 4.16157C17.387 5.71015 18.2577 7.80999 18.2594 10Z" fill="#01ACDC"/>
<path d="M11.0871 3.80933H8.91211V5.98433H11.0871V3.80933Z" fill="#01ACDC"/>
<path d="M11.0875 13.8719V9.64064V7.46564H9.025H8.01562V9.64064H9.025V13.8719H8.01562V16.0469H9.025H11.0875H11.9844V13.8719H11.0875Z" fill="#01ACDC"/>
</g>
<defs>
<clipPath id="clip0_3_9919">
<rect width="20" height="20" fill="white"/>
</clipPath>
</defs>
</svg>
