<svg width="18" height="18" viewBox="0 0 18 18" fill="none" xmlns="http://www.w3.org/2000/svg">
<path fill-rule="evenodd" clip-rule="evenodd" d="M6 5.99866V4.49866C6 2.8418 7.34315 1.49866 9 1.49866C10.6569 1.49866 12 2.8418 12 4.49866V5.99866L14.25 5.99866C15.0784 5.99866 15.75 6.67023 15.75 7.49866L15.75 14.9987C15.75 15.8271 15.0784 16.4987 14.25 16.4987L3.75 16.4987C2.92157 16.4987 2.25 15.8271 2.25 14.9987V7.49866C2.25 6.67023 2.92157 5.99866 3.75 5.99866H6ZM7.5 4.49866C7.5 3.67023 8.17157 2.99866 9 2.99866C9.82843 2.99866 10.5 3.67023 10.5 4.49866V5.99866L7.5 5.99866V4.49866ZM6.92244 7.49866H3.75L3.75 14.9987L14.25 14.9987L14.25 7.49866L6.92244 7.49866C6.92223 7.49866 6.92265 7.49866 6.92244 7.49866Z" fill="#B4B4B4"/>
</svg>
