<svg width="24" height="24" viewBox="0 0 24 24" fill="none" xmlns="http://www.w3.org/2000/svg">
<path fill-rule="evenodd" clip-rule="evenodd" d="M8 7.99817V5.99817C8 3.78903 9.79086 1.99817 12 1.99817C14.2091 1.99817 16 3.78903 16 5.99817V7.99817L19 7.99817C20.1046 7.99817 21 8.8936 21 9.99817L21 19.9982C21 21.1027 20.1046 21.9982 19 21.9982L5 21.9982C3.89543 21.9982 3 21.1027 3 19.9982V9.99817C3 8.8936 3.89543 7.99817 5 7.99817L8 7.99817ZM10 5.99817C10 4.8936 10.8954 3.99817 12 3.99817C13.1046 3.99817 14 4.8936 14 5.99817V7.99817L10 7.99817V5.99817ZM9.22992 9.99817H5L5 19.9982L19 19.9982L19 9.99817L9.22992 9.99817C9.22963 9.99817 9.2302 9.99817 9.22992 9.99817Z" fill="#333333"/>
</svg>
