<svg width="53" height="32" viewBox="0 0 53 32" fill="none" xmlns="http://www.w3.org/2000/svg">
<path d="M20.6758 25.75C26.0606 25.75 30.4258 21.3848 30.4258 16C30.4258 10.6152 26.0606 6.25 20.6758 6.25C15.291 6.25 10.9258 10.6152 10.9258 16C10.9258 21.3848 15.291 25.75 20.6758 25.75Z" fill="#F93232"/>
<path d="M32.375 6.25C30.1852 6.25 28.1708 6.98125 26.5445 8.2H26.525V8.21365C26.1389 8.5042 25.784 8.8318 25.4457 9.175H27.6043C27.9046 9.48018 28.1815 9.8068 28.438 10.15H24.6042C24.3683 10.461 24.1518 10.7857 23.9539 11.125H29.0863C29.2696 11.4409 29.4422 11.7627 29.5914 12.1H23.4577C23.3182 12.4169 23.1954 12.7415 23.0901 13.075H29.958C30.0594 13.3929 30.1393 13.7195 30.2095 14.05H22.8356C22.7703 14.3698 22.7157 14.6935 22.6825 15.025H30.3665C30.4045 15.3448 30.425 15.6695 30.425 16H22.625C22.625 16.3305 22.6513 16.6533 22.6835 16.975H30.3684C30.3314 17.3055 30.2778 17.6302 30.2105 17.95H22.8366C22.9039 18.2825 22.9906 18.6062 23.091 18.925H29.9589C29.8536 19.2585 29.7308 19.5831 29.5914 19.9H23.4577C23.6049 20.2354 23.7706 20.5611 23.9539 20.875H29.0863C28.8894 21.2143 28.67 21.539 28.4341 21.85H24.6042C24.8636 22.1932 25.1434 22.5198 25.4447 22.825H27.6043C27.265 23.1692 26.9111 23.4958 26.525 23.7864C28.1552 25.0139 30.1764 25.75 32.375 25.75C37.7599 25.75 42.125 21.384 42.125 16C42.125 10.6161 37.7599 6.25 32.375 6.25Z" fill="#FED049"/>
</svg>
