<svg width="79" height="22" viewBox="0 0 79 22" fill="none" xmlns="http://www.w3.org/2000/svg">
<g clip-path="url(#clip0_218_11175)">
<path d="M61.7246 5.21777H57.5009C57.2525 5.21777 57.004 5.46622 56.8798 5.71467L55.1406 16.6465C55.1406 16.895 55.2648 17.0192 55.5133 17.0192H57.7494C57.9978 17.0192 58.122 16.895 58.122 16.6465L58.6189 13.5409C58.6189 13.2924 58.8674 13.044 59.2401 13.044H60.6065C63.4637 13.044 65.0787 11.6775 65.4513 8.94454C65.6998 7.82651 65.4513 6.8327 64.9544 6.21158C64.2091 5.59045 63.0911 5.21777 61.7246 5.21777ZM62.2215 9.31721C61.973 10.8079 60.855 10.8079 59.737 10.8079H58.9916L59.4885 7.95073C59.4885 7.82651 59.6127 7.70228 59.8612 7.70228H60.1096C60.855 7.70228 61.6003 7.70228 61.973 8.19918C62.2215 8.32341 62.2215 8.69608 62.2215 9.31721Z" fill="white"/>
<path d="M31.289 5.2179H27.0654C26.8169 5.2179 26.5685 5.46635 26.4442 5.7148L24.7051 16.6466C24.7051 16.8951 24.8293 17.0193 25.0778 17.0193H27.0654C27.3138 17.0193 27.5623 16.7709 27.6865 16.5224L28.1834 13.541C28.1834 13.2925 28.4318 13.0441 28.8045 13.0441H30.171C33.0282 13.0441 34.6431 11.6776 35.0158 8.94466C35.2642 7.82663 35.0158 6.83283 34.5189 6.2117C33.7735 5.59057 32.7797 5.2179 31.289 5.2179ZM31.7859 9.31733C31.5375 10.808 30.4194 10.808 29.3014 10.808H28.6803L29.1772 7.95085C29.1772 7.82663 29.3014 7.7024 29.5499 7.7024H29.7983C30.5437 7.7024 31.289 7.7024 31.6617 8.19931C31.7859 8.32353 31.9102 8.69621 31.7859 9.31733Z" fill="white"/>
<path d="M44.0846 9.19279H42.097C41.9728 9.19279 41.7243 9.31701 41.7243 9.44124L41.6001 10.0624L41.4759 9.81391C40.979 9.19279 40.1094 8.94434 39.1156 8.94434C36.8795 8.94434 34.8919 10.6835 34.5192 13.0438C34.2708 14.286 34.6435 15.4041 35.2646 16.1494C35.8857 16.8948 36.7553 17.1432 37.8733 17.1432C39.7367 17.1432 40.7305 16.0252 40.7305 16.0252L40.6063 16.6463C40.6063 16.8948 40.7305 17.019 40.979 17.019H42.8423C43.0908 17.019 43.3392 16.7705 43.4635 16.5221L44.5815 9.56546C44.4573 9.44124 44.2088 9.19279 44.0846 9.19279ZM41.2274 13.168C40.979 14.286 40.1094 15.1556 38.8671 15.1556C38.246 15.1556 37.7491 14.9072 37.5006 14.6587C37.2522 14.286 37.128 13.7891 37.128 13.168C37.2522 12.05 38.246 11.1804 39.364 11.1804C39.9852 11.1804 40.3578 11.4288 40.7305 11.6773C41.1032 12.05 41.2274 12.6711 41.2274 13.168Z" fill="white"/>
<path d="M74.3951 9.19291H72.4075C72.2833 9.19291 72.0348 9.31713 72.0348 9.44136L71.9106 10.0625L71.7864 9.81403C71.2895 9.19291 70.4199 8.94446 69.4261 8.94446C67.1901 8.94446 65.2025 10.6836 64.8298 13.0439C64.5813 14.2862 64.954 15.4042 65.5751 16.1495C66.1963 16.8949 67.0658 17.1433 68.1839 17.1433C70.0472 17.1433 71.041 16.0253 71.041 16.0253L70.9168 16.6464C70.9168 16.8949 71.041 17.0191 71.2895 17.0191H73.1529C73.4013 17.0191 73.6498 16.7707 73.774 16.5222L74.892 9.56559C74.7678 9.44136 74.6436 9.19291 74.3951 9.19291ZM71.5379 13.1681C71.2895 14.2861 70.4199 15.1557 69.1777 15.1557C68.5565 15.1557 68.0596 14.9073 67.8112 14.6588C67.5627 14.2861 67.4385 13.7892 67.4385 13.1681C67.5627 12.0501 68.5565 11.1805 69.6746 11.1805C70.2957 11.1805 70.6684 11.429 71.041 11.6774C71.5379 12.0501 71.6622 12.6712 71.5379 13.1681Z" fill="white"/>
<path d="M54.8915 9.19238H52.7797C52.5312 9.19238 52.407 9.31661 52.2828 9.44083L49.5498 13.6645L48.3076 9.68928C48.1834 9.44083 48.0591 9.31661 47.6865 9.31661H45.6988C45.4504 9.31661 45.3262 9.56506 45.3262 9.81351L47.5622 16.3975L45.4504 19.3789C45.3262 19.6273 45.4504 20 45.6988 20H47.6865C47.9349 20 48.0591 19.8758 48.1834 19.7515L55.0158 9.93774C55.3884 9.56506 55.14 9.19238 54.8915 9.19238Z" fill="white"/>
<path d="M76.7567 5.58991L75.0176 16.7702C75.0176 17.0187 75.1418 17.1429 75.3903 17.1429H77.1294C77.3779 17.1429 77.6263 16.8944 77.7505 16.646L79.4897 5.71414C79.4897 5.46569 79.3655 5.34146 79.117 5.34146H77.1294C77.0052 5.21723 76.881 5.34146 76.7567 5.58991Z" fill="white"/>
<path d="M15.5125 1.49071C14.6429 0.496903 13.028 0 10.7919 0H4.58065C4.20797 0 3.8353 0.372677 3.71107 0.745353L1.22656 17.0189C1.22656 17.3916 1.47501 17.64 1.72346 17.64H5.57445L6.56826 11.553V11.8014C6.69248 11.4287 7.06516 11.0561 7.43783 11.0561H9.30122C12.9038 11.0561 15.6367 9.56536 16.5063 5.46592C16.5063 5.34169 16.5063 5.21747 16.5063 5.09324C16.3821 5.09324 16.3821 5.09324 16.5063 5.09324C16.6305 3.47831 16.3821 2.48451 15.5125 1.49071Z" fill="white"/>
<path d="M16.3815 5.09326C16.3815 5.21749 16.3815 5.34171 16.3815 5.46594C15.5119 9.6896 12.7789 11.0561 9.17639 11.0561H7.313C6.94033 11.0561 6.56765 11.4288 6.44343 11.8014L5.20117 19.3792C5.20117 19.6276 5.3254 19.8761 5.69807 19.8761H8.92793C9.30061 19.8761 9.67329 19.6276 9.67329 19.255V19.1307L10.2944 15.2797V15.0313C10.2944 14.6586 10.6671 14.4102 11.0398 14.4102H11.5367C14.6423 14.4102 17.1268 13.1679 17.7479 9.44115C17.9964 7.95045 17.8722 6.58397 17.1268 5.71439C17.0026 5.46594 16.7541 5.21749 16.3815 5.09326Z" fill="#D5D5D5"/>
<path d="M15.5126 4.7207C15.3884 4.7207 15.2641 4.59647 15.1399 4.59647C15.0157 4.59647 14.8915 4.59647 14.7672 4.47225C14.2703 4.34802 13.7734 4.34802 13.1523 4.34802H8.30752C8.18329 4.34802 8.05906 4.34802 7.93484 4.47225C7.68639 4.59647 7.56216 4.84492 7.56216 5.09338L6.56836 11.5531V11.8015C6.69258 11.4289 7.06526 11.0562 7.43794 11.0562H9.30132C12.9039 11.0562 15.6368 9.56549 16.5064 5.46605C16.5064 5.34183 16.5064 5.2176 16.6306 5.09338C16.3822 4.96915 16.2579 4.84492 16.0095 4.84492C15.6368 4.7207 15.6368 4.7207 15.5126 4.7207Z" fill="#F2F2F2"/>
</g>
<defs>
<clipPath id="clip0_218_11175">
<rect width="79" height="22" fill="white"/>
</clipPath>
</defs>
</svg>
