<svg width="121" height="120" viewBox="0 0 121 120" fill="none" xmlns="http://www.w3.org/2000/svg">
<path d="M100.319 119.122H21.5964C17.2971 119.122 13.146 117.366 10.3292 114.439C7.8089 111.805 6.62288 108.439 6.91938 105.073L12.2565 28.3903C12.4047 26.0488 14.4803 24.1464 16.8523 24.1464H105.063C107.435 24.1464 109.51 26.0488 109.659 28.3903L114.996 105.073C115.292 108.439 113.958 111.805 111.586 114.439C108.769 117.366 104.618 119.122 100.319 119.122ZM21.1517 33.2195L15.9628 105.659C15.9628 106.829 16.5558 107.707 17.0006 108.293C18.0384 109.463 19.6691 110.049 21.5964 110.049H100.319C102.098 110.049 103.729 109.463 104.915 108.293C105.359 107.707 105.952 106.829 105.952 105.659L100.912 33.2195H21.1517Z" fill="#AAAAAA"/>
<path d="M85.79 24.5854H76.7466C76.7466 15.9512 69.6304 9.07317 61.0317 9.07317C52.2848 9.07317 45.3169 16.0976 45.3169 24.5854H36.1252C35.977 10.9756 47.2442 0 60.8835 0C74.5228 0 85.79 10.9756 85.79 24.5854Z" fill="#AAAAAA"/>
<path d="M60.8836 90.5854C51.5436 90.5854 42.7967 86.1952 38.0526 79.1708C37.1631 77.8537 37.4596 75.9513 38.9421 74.9269C40.2764 74.0488 42.2037 74.3415 43.2415 75.8049C46.9478 81.2196 53.7674 84.4391 61.0318 84.4391C68.4445 84.4391 75.2641 81.0732 78.8222 75.8049C79.7117 74.4879 81.639 74.0488 83.1215 74.9269C84.4558 75.8049 84.9006 77.7074 84.011 79.1708C79.1187 86.1952 70.2235 90.5854 60.8836 90.5854Z" fill="#AAAAAA"/>
<path d="M46.0579 49.317C46.0579 52.2438 43.6858 54.7316 40.5725 54.7316C37.6075 54.7316 35.0872 52.3902 35.0872 49.317C35.0872 46.3901 37.4592 43.9023 40.5725 43.9023C43.5376 43.9023 46.0579 46.3901 46.0579 49.317Z" fill="#AAAAAA"/>
<path d="M86.6792 49.317C86.6792 52.2438 84.3072 54.7316 81.1939 54.7316C78.2288 54.7316 75.7085 52.3902 75.7085 49.317C75.7085 46.3901 78.0805 43.9023 81.1939 43.9023C84.3072 43.9023 86.6792 46.3901 86.6792 49.317Z" fill="#AAAAAA"/>
<path d="M37.7556 83.2683C37.0144 83.2683 36.1249 82.9756 35.5319 82.3902C34.3458 81.2195 34.3458 79.317 35.5319 78.1463L41.1655 72.5853C42.3515 71.4146 44.2788 71.4146 45.4648 72.5853C46.6508 73.7561 46.6508 75.6585 45.4648 76.8292L39.8312 82.3902C39.3864 82.9756 38.4969 83.2683 37.7556 83.2683Z" fill="#AAAAAA"/>
<path d="M84.0106 83.2683C83.2693 83.2683 82.3798 82.9756 81.7868 82.3902L76.1532 76.8292C74.9672 75.6585 74.9672 73.7561 76.1532 72.5853C77.3392 71.4146 79.2665 71.4146 80.4525 72.5853L86.0862 78.1463C87.2722 79.317 87.2722 81.2195 86.0862 82.3902C85.6414 82.9756 84.9001 83.2683 84.0106 83.2683Z" fill="#AAAAAA"/>
</svg>
