<svg width="16" height="19" viewBox="0 0 16 19" fill="none" xmlns="http://www.w3.org/2000/svg">
<path d="M15.9973 7.68706C15.8446 7.70214 15.6912 7.71005 15.5377 7.71075C14.7089 7.71087 13.8931 7.50126 13.1639 7.10083C12.4348 6.7004 11.8153 6.12177 11.3613 5.41716V13.2274C11.3613 14.3691 11.0281 15.4852 10.4039 16.4345C9.77973 17.3838 8.89254 18.1237 7.85453 18.5606C6.81653 18.9975 5.67434 19.1118 4.57241 18.8891C3.47047 18.6663 2.45828 18.1166 1.66382 17.3092C0.869372 16.5019 0.328344 15.4734 0.109155 14.3536C-0.110034 13.2338 0.00246086 12.0732 0.432415 11.0184C0.86237 9.96356 1.59047 9.06201 2.52465 8.42771C3.45883 7.79341 4.55712 7.45486 5.68065 7.45486C5.79923 7.45486 5.91515 7.46569 6.03173 7.47313V10.3178C5.91515 10.3036 5.80056 10.2819 5.68065 10.2819C4.91171 10.2819 4.17426 10.5923 3.63054 11.1448C3.08682 11.6973 2.78136 12.4467 2.78136 13.2281C2.78136 14.0095 3.08682 14.7589 3.63054 15.3114C4.17426 15.8639 4.91171 16.1743 5.68065 16.1743C7.28218 16.1743 8.69651 14.8921 8.69651 13.2647L8.72449 0H11.4026C11.525 1.18247 12.0524 2.2836 12.8928 3.11087C13.7332 3.93814 14.8331 4.43889 16 4.52558V7.68706" fill="white"/>
</svg>
