<svg width="40" height="40" viewBox="0 0 40 40" fill="none" xmlns="http://www.w3.org/2000/svg">
<g filter="url(#filter0_d_135_1576)">
<rect x="4" width="32" height="32" rx="8" fill="#FFC107" shape-rendering="crispEdges"/>
<path fill-rule="evenodd" clip-rule="evenodd" d="M15.5554 9.34824C16.871 8.46919 18.4177 8 20 8C22.121 8.00236 24.1545 8.84598 25.6542 10.3458C27.154 11.8455 27.9976 13.879 28 16C28 17.5822 27.5308 19.129 26.6518 20.4446C25.7727 21.7601 24.5233 22.7855 23.0615 23.391C21.5997 23.9965 19.9911 24.155 18.4393 23.8463C16.8874 23.5376 15.462 22.7757 14.3431 21.6568C13.2243 20.538 12.4624 19.1126 12.1537 17.5607C11.845 16.0089 12.0035 14.4003 12.609 12.9385C13.2145 11.4767 14.2398 10.2273 15.5554 9.34824Z" fill="white"/>
<path d="M20.0566 18.6982C19.473 18.6982 19 18.2253 19 17.6415V12.0566C19 11.4731 19.473 11 20.0566 11C20.64 11 21.1133 11.4731 21.1133 12.0566V17.6415C21.1134 18.2253 20.6401 18.6982 20.0566 18.6982Z" fill="#FFC107"/>
<path d="M19.9887 21.6417C20.4889 21.6417 20.8944 21.2362 20.8944 20.736C20.8944 20.2358 20.4889 19.8303 19.9887 19.8303C19.4885 19.8303 19.083 20.2358 19.083 20.736C19.083 21.2362 19.4885 21.6417 19.9887 21.6417Z" fill="#FFC107"/>
</g>
<defs>
<filter id="filter0_d_135_1576" x="0" y="0" width="40" height="40" filterUnits="userSpaceOnUse" color-interpolation-filters="sRGB">
<feFlood flood-opacity="0" result="BackgroundImageFix"/>
<feColorMatrix in="SourceAlpha" type="matrix" values="0 0 0 0 0 0 0 0 0 0 0 0 0 0 0 0 0 0 127 0" result="hardAlpha"/>
<feOffset dy="4"/>
<feGaussianBlur stdDeviation="2"/>
<feComposite in2="hardAlpha" operator="out"/>
<feColorMatrix type="matrix" values="0 0 0 0 1 0 0 0 0 0.756863 0 0 0 0 0.027451 0 0 0 0.12 0"/>
<feBlend mode="normal" in2="BackgroundImageFix" result="effect1_dropShadow_135_1576"/>
<feBlend mode="normal" in="SourceGraphic" in2="effect1_dropShadow_135_1576" result="shape"/>
</filter>
</defs>
</svg>
