<svg width="18" height="18" viewBox="0 0 18 18" fill="none" xmlns="http://www.w3.org/2000/svg">
<g style="mix-blend-mode:luminosity" opacity="0.3">
<path fill-rule="evenodd" clip-rule="evenodd" d="M3 4.20459H15C15.4142 4.20459 15.75 4.54038 15.75 4.95459V6.45459H2.25V4.95459C2.25 4.54038 2.58579 4.20459 3 4.20459ZM0.75 4.95459C0.75 3.71195 1.75736 2.70459 3 2.70459H15C16.2426 2.70459 17.25 3.71195 17.25 4.95459V13.2046C17.25 14.4472 16.2426 15.4546 15 15.4546H3C1.75736 15.4546 0.75 14.4472 0.75 13.2046V4.95459ZM15.75 7.95459V13.2046C15.75 13.6188 15.4142 13.9546 15 13.9546H3C2.58579 13.9546 2.25 13.6188 2.25 13.2046V7.95459H15.75Z" fill="#333333"/>
</g>
</svg>
