<svg width="104" height="32" viewBox="0 0 104 32" fill="none" xmlns="http://www.w3.org/2000/svg">
<path fill-rule="evenodd" clip-rule="evenodd" d="M26.9114 7.86501L24.2993 24.2683L28.5673 24.2539L31.1797 7.85055L26.9114 7.86501ZM20.6528 7.8862L16.6218 19.1758L16.1322 16.7494L16.1325 16.7502L16.0246 16.2063C15.5286 15.1466 14.3811 13.1333 12.2215 11.419C11.5831 10.9123 10.9397 10.4802 10.318 10.1114L14.0644 24.303L18.5113 24.2879L25.2465 7.87064L20.6528 7.8862ZM37.3254 12.3812C37.3192 10.5276 41.4766 10.7517 43.3065 11.752L43.9036 8.22889C43.9036 8.22889 42.0215 7.5204 40.0623 7.52704C37.9441 7.53421 32.9175 8.47755 32.9327 12.9785C32.947 17.2143 38.8506 17.247 38.8582 19.4709C38.8657 21.6948 33.5696 21.3153 31.8175 19.9183L31.1949 23.6008C31.1949 23.6008 33.1038 24.5207 36.0163 24.5108C38.9284 24.5009 43.3179 22.9773 43.304 18.8734C43.2896 14.611 37.3317 14.2342 37.3254 12.3812ZM54.7265 7.7708L51.295 7.78242C49.7104 7.78779 49.3287 9.01087 49.3287 9.01087L43.0151 24.2049L47.4637 24.1899L48.3454 21.7518L53.7713 21.7334L54.2802 24.1668L58.1991 24.1535L54.7265 7.7708ZM49.564 18.3834L51.786 12.2407L53.0684 18.3715L49.564 18.3834Z" fill="#005BAC"/>
<path fill-rule="evenodd" clip-rule="evenodd" d="M14.752 9.38294C14.752 9.38294 14.5753 7.90332 12.6893 7.90332H5.8371L5.75684 8.18139C5.75684 8.18139 9.05053 8.85282 12.2104 11.3683C15.2301 13.7726 16.2152 16.7695 16.2152 16.7695L14.752 9.38294Z" fill="#F6AC1D"/>
<path d="M82.4243 25.75C87.6459 25.75 91.8788 21.3848 91.8788 16C91.8788 10.6152 87.6459 6.25 82.4243 6.25C77.2027 6.25 72.9697 10.6152 72.9697 16C72.9697 21.3848 77.2027 25.75 82.4243 25.75Z" fill="#F93232"/>
<path d="M93.77 6.25C91.6465 6.25 89.6932 6.98125 88.1162 8.2H88.0972V8.21365C87.7228 8.5042 87.3787 8.8318 87.0506 9.175H89.1439C89.4351 9.48018 89.7036 9.8068 89.9522 10.15H86.2347C86.0059 10.461 85.796 10.7857 85.6041 11.125H90.581C90.7587 11.4409 90.926 11.7627 91.0707 12.1H85.1228C84.9876 12.4169 84.8685 12.7415 84.7664 13.075H91.4262C91.5245 13.3929 91.602 13.7195 91.6701 14.05H84.5196C84.4563 14.3698 84.4034 14.6935 84.3712 15.025H91.8223C91.8592 15.3448 91.8791 15.6695 91.8791 16H84.3154C84.3154 16.3305 84.341 16.6533 84.3722 16.975H91.8242C91.7883 17.3055 91.7363 17.6302 91.6711 17.95H84.5206C84.5858 18.2825 84.67 18.6062 84.7674 18.925H91.4271C91.325 19.2585 91.2059 19.5831 91.0707 19.9H85.1228C85.2656 20.2354 85.4263 20.5611 85.6041 20.875H90.581C90.39 21.2143 90.1772 21.539 89.9484 21.85H86.2347C86.4862 22.1932 86.7575 22.5198 87.0497 22.825H89.1439C88.8148 23.1692 88.4716 23.4958 88.0972 23.7864C89.678 25.0139 91.638 25.75 93.77 25.75C98.9917 25.75 103.225 21.384 103.225 16C103.225 10.6161 98.9917 6.25 93.77 6.25Z" fill="#FED049"/>
</svg>
