<svg width="78" height="16" viewBox="0 0 78 16" fill="none" xmlns="http://www.w3.org/2000/svg">
<path d="M39.3051 5.30961C40.0202 6.04257 40.4314 7.00793 40.4314 8.02693C40.4314 9.04592 40.0381 10.0113 39.3051 10.7442C38.59 11.4593 37.6246 11.8526 36.5878 11.8526C35.9084 11.8526 35.3006 11.6202 34.7643 11.1375L34.6749 11.066V15.3744L32.7263 15.9822V4.34424H34.6749V4.91631L34.7643 4.82693C35.3364 4.27274 35.9978 4.18335 36.5878 4.18335C37.6068 4.20123 38.5721 4.59452 39.3051 5.30961ZM38.4827 8.02693C38.4827 6.97218 37.6068 6.07832 36.5878 6.07832C35.5688 6.07832 34.6928 6.97218 34.6928 8.02693C34.6928 9.0638 35.5688 9.97553 36.5878 9.97553C37.6068 9.97553 38.4827 9.08167 38.4827 8.02693Z" fill="#303030"/>
<path d="M42.2549 10.7442C41.5398 10.0112 41.1287 9.04587 41.1287 8.02687C41.1287 7.00788 41.522 6.04251 42.2549 5.30955C42.97 4.59447 43.9354 4.20117 44.9722 4.20117C45.6516 4.20117 46.2594 4.43357 46.7957 4.91626L46.8851 4.98776V4.34419H48.8337V11.7096H46.8851V11.1375L46.7957 11.2269C46.2236 11.7811 45.5622 11.8704 44.9722 11.8704C43.9532 11.8526 42.9879 11.4772 42.2549 10.7442ZM43.0773 8.02687C43.0773 9.08162 43.9532 9.97547 44.9722 9.97547C46.0091 9.97547 46.8672 9.08162 46.8672 8.02687C46.8672 6.99 45.9912 6.07827 44.9722 6.07827C43.9354 6.07827 43.0773 6.99 43.0773 8.02687Z" fill="#303030"/>
<path d="M42.2549 10.7442C41.5398 10.0112 41.1287 9.04587 41.1287 8.02687C41.1287 7.00788 41.522 6.04251 42.2549 5.30955C42.97 4.59447 43.9354 4.20117 44.9722 4.20117C45.6516 4.20117 46.2594 4.43357 46.7957 4.91626L46.8851 4.98776V4.34419H48.8337V11.7096H46.8851V11.1375L46.7957 11.2269C46.2236 11.7811 45.5622 11.8704 44.9722 11.8704C43.9532 11.8526 42.9879 11.4772 42.2549 10.7442ZM43.0773 8.02687C43.0773 9.08162 43.9532 9.97547 44.9722 9.97547C46.0091 9.97547 46.8672 9.08162 46.8672 8.02687C46.8672 6.99 45.9912 6.07827 44.9722 6.07827C43.9354 6.07827 43.0773 6.99 43.0773 8.02687Z" fill="#303030"/>
<path d="M50.7644 16.0001L52.5164 11.7453L49.5667 4.36206H51.7298L53.5711 8.9386L55.4303 4.36206H57.5756L52.8739 16.0179H50.7644V16.0001Z" fill="#303030"/>
<path d="M50.7644 16.0001L52.5164 11.7453L49.5667 4.36206H51.7298L53.5711 8.9386L55.4303 4.36206H57.5756L52.8739 16.0179H50.7644V16.0001Z" fill="#303030"/>
<path d="M4.28397 11.781C3.28286 11.781 2.33537 11.3877 1.62029 10.6905C0.905204 9.97544 0.529785 9.02796 0.529785 8.02684C0.529785 7.02572 0.905204 6.07824 1.60241 5.36315C2.31749 4.66595 3.26498 4.29053 4.2661 4.29053C5.28509 4.29053 6.14319 4.82684 6.67951 5.27377L6.8404 5.39891V4.43354H8.03816V11.6201H6.8404V10.6548L6.67951 10.7799C6.16107 11.2447 5.30297 11.781 4.28397 11.781ZM4.28397 5.43466C2.87168 5.43466 1.70967 6.59667 1.70967 8.02684C1.70967 9.45701 2.87168 10.619 4.28397 10.619C5.69627 10.619 6.85828 9.45701 6.85828 8.02684C6.85828 6.59667 5.69627 5.43466 4.28397 5.43466Z" fill="#303030"/>
<path d="M10.2013 11.6201V5.57765H9.11084V4.4514H10.2013V2.32402C10.2013 1.01899 11.2382 0 12.5432 0H14.0449L13.741 1.12626H12.579C11.9533 1.12626 11.3812 1.69832 11.3812 2.3419V4.43352H13.6516V5.55978H11.3991V11.6201H10.2013Z" fill="#303030"/>
<path d="M18.1746 11.6201C16.8696 11.6201 15.8327 10.5654 15.8327 9.27821V5.57765H14.7422V4.4514H15.8327V0H17.0305V4.43352H19.283V5.55978H17.0126V9.22458C17.0126 9.88603 17.5846 10.476 18.2103 10.476H19.3724L19.6763 11.6022H18.1746V11.6201Z" fill="#303030"/>
<path d="M23.3053 11.7451C22.3757 11.7451 21.5176 11.3518 20.8919 10.6546C20.3199 10.0289 19.9802 9.24234 19.9266 8.40212C19.9087 8.29486 19.9087 8.18759 19.9087 8.06245C19.9087 7.77642 19.9444 7.49039 19.9981 7.22223C20.1411 6.57866 20.445 5.97083 20.8919 5.48815C21.5176 4.80882 22.3936 4.41553 23.3232 4.41553C24.2528 4.41553 25.1109 4.79095 25.7724 5.48815C26.2372 6.00659 26.5411 6.59653 26.6662 7.22223C26.7556 7.77642 26.7556 8.11609 26.7556 8.27698H21.0707V8.40212C21.2316 9.67139 22.197 10.6368 23.3053 10.6546C23.9847 10.6189 24.664 10.3507 25.1288 9.9038L26.1299 10.4937C25.8618 10.7798 25.5757 11.0122 25.2539 11.2088C24.6819 11.5306 24.0204 11.7094 23.3053 11.7451ZM23.3053 5.48815C22.3757 5.48815 21.5176 6.14961 21.178 7.15072L21.1601 7.1686L21.0886 7.31162H25.5221L25.4327 7.15072C25.1109 6.14961 24.2528 5.48815 23.3053 5.48815Z" fill="#303030"/>
<path d="M27.8997 11.6201V4.43354H29.0974V5.34528L29.2583 5.16651C29.6874 4.7017 30.9209 4.32628 31.7611 4.29053L31.4751 5.48829C30.17 5.52405 29.0974 6.54304 29.0974 7.79444V11.6201H27.8997Z" fill="#303030"/>
<path d="M67.8728 6.382C68.5879 5.97083 69.2493 5.57753 69.9644 5.16636C69.732 4.75519 69.7856 4.86245 69.5711 4.46915C69.3566 4.05798 69.4281 3.89709 69.8929 3.89709C71.2337 3.87921 72.5745 3.87921 73.9153 3.89709C74.3086 3.89709 74.4158 4.07586 74.2013 4.41552C73.5398 5.57753 72.8605 6.73954 72.1991 7.90156C71.9845 8.27697 71.7879 8.27697 71.5734 7.90156C71.341 7.52614 71.3946 7.61552 71.1622 7.20435C70.465 7.61552 69.7678 8.00882 69.0706 8.41999C69.1063 8.52725 69.1599 8.59876 69.2136 8.67027C69.732 9.56412 69.9644 9.99318 70.5007 10.887C71.1264 11.9418 72.4493 11.9954 73.2181 11.03C73.3074 10.9228 73.3789 10.8155 73.4505 10.6904C74.7197 8.4915 75.989 6.31049 77.2404 4.11161C77.3655 3.89709 77.4907 3.64681 77.5443 3.39653C77.7588 2.41329 77.0259 1.4658 76.0069 1.4658C73.2896 1.44792 70.5722 1.44792 67.8728 1.4658C66.6393 1.48368 65.8884 2.7172 66.4426 3.8077C66.6214 4.16524 66.8359 4.50491 67.0326 4.84457C67.3722 5.50602 67.4616 5.66692 67.8728 6.382Z" fill="#2A78AC"/>
<path d="M61.8483 13.1575C61.8483 12.3352 61.8483 10.7441 61.8483 10.7441C61.8483 10.7441 61.5086 10.7441 61.0617 10.7441C60.5969 10.7441 60.5075 10.5832 60.7399 10.1899C61.4013 9.0279 62.0628 7.88377 62.7421 6.73963C62.9388 6.39997 63.1175 6.36422 63.3321 6.73963C63.9935 7.90165 64.6729 9.04578 65.3164 10.2078C65.531 10.5832 65.4237 10.7441 65.0125 10.7441C64.5835 10.7441 64.2081 10.7441 64.2081 10.7441V13.1575C64.2081 13.1575 65.9958 13.1575 67.0326 13.1575C68.2483 13.1396 68.9634 12.0313 68.4986 10.905C68.4449 10.7799 68.3913 10.6547 68.3198 10.5475C67.0684 8.36645 65.817 6.18544 64.5656 4.02232C64.4405 3.80779 64.2796 3.57539 64.1008 3.4145C63.3678 2.73517 62.1879 2.89606 61.6695 3.77204C60.3108 6.09606 58.9522 8.42008 57.6293 10.762C57.0215 11.8346 57.7187 13.086 58.9164 13.1575C59.3097 13.1754 60.9902 13.1575 61.8483 13.1575Z" fill="#124678"/>
</svg>
