<svg width="45" height="45" viewBox="0 0 45 45" fill="none" xmlns="http://www.w3.org/2000/svg">
<path d="M27.3223 25.3828C23.7607 25.3828 20.7223 24.0272 19.1823 21.7915C19.0158 21.5537 18.6829 21.5061 18.451 21.6845L14.2829 24.8596C14.1045 24.9964 13.8726 25.0737 13.6585 25.0737C13.4088 25.0737 13.1948 24.9726 13.058 24.7882C12.9807 24.6812 12.8618 24.4434 12.9748 24.1045C12.9748 24.1045 13.6704 22.2434 14.0272 21.2742C14.1342 20.9828 13.9677 20.6677 13.6704 20.5964C12.5229 20.3169 11.4407 19.7342 10.5607 18.9018C9.34773 17.7542 8.57476 16.1904 8.37855 14.5077C8.16449 12.6407 8.66395 10.7974 9.78773 9.32284C10.9175 7.84825 12.5348 6.92068 14.3423 6.70662C14.598 6.67689 14.8537 6.665 15.1094 6.665C16.2034 6.665 17.2796 6.93852 18.2488 7.45581C18.4688 7.57473 18.7304 7.52716 18.8969 7.34284C19.9018 6.21906 21.3288 5.35689 22.9104 4.94662C23.6299 4.7623 24.3553 4.66716 25.0807 4.66716C26.3948 4.66716 27.6494 4.98825 28.678 5.57095C28.8861 5.68987 29.1299 5.65419 29.3023 5.48771C30.3607 4.42933 31.8948 3.81689 33.524 3.81689C33.7796 3.81689 34.0353 3.83473 34.285 3.85852C37.4602 4.22716 39.785 6.80176 39.464 9.59635C39.4461 9.75689 39.4164 9.91744 39.3807 10.078C40.0169 10.6904 40.2488 10.952 40.7423 11.6715C41.3964 12.6347 41.4677 13.3958 40.9802 14.3769C40.3202 15.7147 36.0985 21.9639 35.8904 22.2315C34.7726 23.6882 33.7321 24.0569 32.2872 24.5623L32.2456 24.5742C30.7115 25.1093 29.0585 25.3828 27.3223 25.3828Z" fill="white"/>
<path d="M27.3224 26.1261C23.6359 26.1261 20.4429 24.7466 18.7186 22.4218L14.7348 25.4542C14.0094 26.0012 12.9451 25.8942 12.4635 25.2283C12.19 24.8477 12.1186 24.3542 12.2732 23.8785C12.3208 23.7418 12.4991 23.2542 13.2483 21.2564C12.0591 20.9234 10.9591 20.305 10.0554 19.4429C8.71753 18.1764 7.86131 16.452 7.64726 14.5969C7.40942 12.5337 7.96239 10.5061 9.2051 8.87691C10.4597 7.24178 12.2554 6.20718 14.2651 5.97529C15.7159 5.8088 17.1727 6.07637 18.4629 6.73042C19.5629 5.54718 21.0673 4.66124 22.7321 4.22718C24.8786 3.66826 27.144 3.89421 28.904 4.83961C30.2954 3.52556 32.3527 2.8834 34.3743 3.11529C37.9597 3.53151 40.5759 6.47475 40.2073 9.67961C40.2073 9.72718 40.1954 9.77475 40.1894 9.82232C40.6532 10.2861 40.9148 10.6012 41.3608 11.2553C42.1694 12.4445 42.2586 13.4791 41.6521 14.7099C40.9564 16.125 36.6813 22.4337 36.4851 22.6893C35.2305 24.3245 34.0413 24.7407 32.537 25.2699C30.884 25.8466 29.1419 26.138 27.3283 26.138L27.3224 26.1261ZM18.7721 20.8342C18.8375 20.8342 18.9029 20.8342 18.9683 20.852C19.3073 20.9056 19.5986 21.0899 19.7948 21.3753C21.204 23.4207 24.0164 24.6396 27.3224 24.6396C28.9754 24.6396 30.5451 24.3839 32.0019 23.8726C33.4646 23.3612 34.3208 23.058 35.3019 21.7796C35.4981 21.518 39.684 15.3283 40.3143 14.0499C40.6829 13.3066 40.6354 12.831 40.13 12.0877C39.6602 11.398 39.4581 11.178 38.8694 10.6072L38.5662 10.3158L38.6613 9.90556C38.691 9.7688 38.7148 9.63799 38.7327 9.50124C39.0062 7.11097 36.9786 4.90502 34.2078 4.58394C32.5667 4.39367 30.9078 4.9288 29.8375 5.99907C29.4332 6.40934 28.8208 6.49259 28.3213 6.20718C26.8764 5.38664 24.944 5.17853 23.1127 5.65421C21.6737 6.0288 20.3835 6.80178 19.4678 7.83042C19.0754 8.27042 18.4332 8.3834 17.91 8.10988C16.8516 7.54502 15.6386 7.30718 14.4375 7.44394C12.8321 7.62826 11.3932 8.45475 10.3883 9.7688C9.37753 11.0888 8.93158 12.7418 9.12185 14.4185C9.30023 15.9288 9.98996 17.332 11.0781 18.3607C11.857 19.098 12.8143 19.6212 13.8489 19.871C14.1997 19.9542 14.491 20.1861 14.6635 20.5012C14.83 20.8164 14.8597 21.1969 14.7289 21.5358L14.6873 21.6488C14.3424 22.5645 13.7716 24.1045 13.6883 24.3304C13.7121 24.3304 13.7835 24.3126 13.8429 24.265L18.011 21.0958C18.231 20.9293 18.5046 20.8342 18.7781 20.8342H18.7721Z" fill="#303030"/>
<path d="M25.753 30.3061C22.1914 30.3061 19.153 28.9504 17.613 26.7148C17.4465 26.4769 17.1135 26.4294 16.8816 26.6077L12.7135 29.7829C12.5352 29.9196 12.3033 29.9969 12.0892 29.9969C11.8395 29.9969 11.6254 29.8958 11.4887 29.7115C11.4114 29.6045 11.2925 29.3667 11.4054 29.0277C11.4054 29.0277 12.1011 27.1667 12.4579 26.1975C12.5649 25.9061 12.3984 25.591 12.1011 25.5196C10.9535 25.2402 9.87137 24.6575 8.99137 23.825C7.7784 22.6775 7.00543 21.1137 6.80921 19.431C6.59516 17.564 7.09461 15.7207 8.2184 14.2461C9.34813 12.7715 10.9654 11.844 12.773 11.6299C13.0287 11.6002 13.2843 11.5883 13.54 11.5883C14.6341 11.5883 15.7103 11.8618 16.6795 12.3791C16.8995 12.498 17.1611 12.4504 17.3276 12.2661C18.3325 11.1423 19.7595 10.2802 21.3411 9.8699C22.0606 9.68558 22.786 9.59044 23.5114 9.59044C24.8254 9.59044 26.08 9.91152 27.1087 10.4942C27.3168 10.6131 27.5606 10.5775 27.733 10.411C28.7914 9.35261 30.3254 8.74017 31.9546 8.74017C32.2103 8.74017 32.466 8.75801 32.7157 8.78179C35.8908 9.15044 38.2157 11.725 37.8946 14.5196C37.8768 14.6802 37.847 14.8407 37.8114 15.0013C38.4476 15.6137 38.6795 15.8753 39.173 16.5948C39.827 17.558 39.8984 18.3191 39.4108 19.3002C38.7508 20.638 34.5292 26.8872 34.3211 27.1548C33.2033 28.6115 32.1627 28.9802 30.7179 29.4856L30.6762 29.4975C29.1422 30.0326 27.4892 30.3061 25.753 30.3061Z" fill="white"/>
<path d="M25.7594 31.0493C22.0729 31.0493 18.8799 29.6699 17.1556 27.3391L13.1718 30.3715C12.4524 30.9126 11.3821 30.8115 10.9005 30.1456C10.627 29.765 10.5556 29.2715 10.7102 28.7958L11.6854 26.1737C10.4962 25.8407 9.39616 25.2223 8.49238 24.3601C7.15454 23.0937 6.29832 21.3693 6.08427 19.5142C5.84643 17.451 6.39941 15.4234 7.64211 13.7942C8.8967 12.1591 10.6924 11.1245 12.7021 10.8926C14.1232 10.7261 15.6037 10.9937 16.8999 11.6477C17.9999 10.4645 19.5102 9.57853 21.1691 9.14447C23.3097 8.58556 25.581 8.8115 27.341 9.75691C28.7264 8.4488 30.7897 7.79475 32.8113 8.03258C34.5297 8.2288 36.0816 9.01366 37.1816 10.2326C38.3054 11.4812 38.8226 13.0272 38.6443 14.5969C38.6443 14.6445 38.6324 14.692 38.6264 14.7396C39.0902 15.2034 39.3578 15.5185 39.7978 16.1726C40.6064 17.3618 40.6956 18.3964 40.0891 19.6272C39.3816 21.0602 35.1124 27.3569 34.9221 27.6066C33.6675 29.2418 32.4843 29.658 30.9799 30.1812C29.327 30.7639 27.5848 31.0493 25.7654 31.0493H25.7594ZM17.2091 25.7574C17.2745 25.7574 17.3399 25.7574 17.4054 25.7753C17.7443 25.8288 18.0356 26.0131 18.2318 26.2926C19.641 28.338 22.4535 29.5629 25.7594 29.5629C27.4124 29.5629 28.9821 29.3072 30.4389 28.7958C31.9016 28.2845 32.7578 27.9812 33.7389 26.7029C33.9351 26.4412 38.1151 20.2634 38.7513 18.9731C39.1199 18.2299 39.0724 17.7542 38.567 17.011C38.0972 16.3212 37.8951 16.1012 37.3064 15.5304L37.0032 15.2391L37.0983 14.8288C37.1281 14.692 37.1518 14.5612 37.1697 14.4245C37.3005 13.2888 36.914 12.1531 36.0816 11.2256C35.2254 10.2742 34.0064 9.66772 32.6448 9.50718C31.0097 9.31691 29.3448 9.85204 28.2745 10.9223C27.8643 11.3326 27.2578 11.4158 26.7583 11.1304C25.3135 10.3099 23.381 10.1018 21.5497 10.5774C20.1108 10.952 18.8205 11.725 17.9048 12.7537C17.5124 13.1937 16.8702 13.3066 16.347 13.0331C15.2826 12.4623 14.0578 12.2304 12.8805 12.3672C11.2751 12.5515 9.83616 13.378 8.8313 14.692C7.82049 16.012 7.37454 17.665 7.57076 19.3418C7.74319 20.852 8.43886 22.2553 9.52697 23.2839C10.3059 24.0212 11.2632 24.5445 12.2978 24.7942C12.6486 24.8774 12.9399 25.1093 13.1124 25.4245C13.2789 25.7396 13.3086 26.1201 13.1837 26.4531C12.821 27.4283 12.1254 29.2953 12.1194 29.3012C12.161 29.2537 12.2324 29.2358 12.2918 29.1883L16.4599 26.0191C16.6799 25.8526 16.9535 25.7574 17.227 25.7574H17.2091Z" fill="#303030"/>
<path d="M24.1895 35.2353C20.6279 35.2353 17.5895 33.8796 16.0495 31.6439C15.883 31.4061 15.5501 31.3585 15.3182 31.5369L11.1501 34.712C10.9717 34.8488 10.7398 34.9261 10.5257 34.9261C10.276 34.9261 10.0619 34.825 9.92519 34.6407C9.8479 34.5336 9.72898 34.2958 9.84195 33.9569C9.84195 33.9569 10.5376 32.0958 10.8944 31.1266C11.0014 30.8353 10.8349 30.5201 10.5376 30.4488C9.39006 30.1693 8.3079 29.5866 7.4279 28.7542C6.21492 27.6066 5.44195 26.0428 5.24573 24.3601C5.03168 22.4931 5.53114 20.6499 6.65492 19.1753C7.78465 17.7007 9.40195 16.7731 11.2095 16.559C11.4652 16.5293 11.7209 16.5174 11.9765 16.5174C13.0706 16.5174 14.1468 16.7909 15.116 17.3082C15.336 17.4271 15.5976 17.3796 15.7641 17.1953C16.769 16.0715 18.196 15.2093 19.7776 14.799C20.4971 14.6147 21.2225 14.5196 21.9479 14.5196C23.2619 14.5196 24.5165 14.8407 25.5452 15.4234C25.7533 15.5423 25.9971 15.5066 26.1695 15.3401C27.2279 14.2817 28.7619 13.6693 30.3911 13.6693C30.6468 13.6693 30.9025 13.6871 31.1522 13.7109C34.3274 14.0796 36.6522 16.6542 36.3311 19.4488C36.3133 19.6093 36.2836 19.7699 36.2479 19.9304C36.8841 20.5428 37.116 20.8044 37.6095 21.5239C38.2636 22.4871 38.3349 23.2482 37.8474 24.2293C37.1874 25.5671 32.9657 31.8163 32.7576 32.0839C31.6398 33.5407 30.5992 33.9093 29.1544 34.4147L29.1128 34.4266C27.5787 34.9617 25.9257 35.2353 24.1895 35.2353Z" fill="white"/>
<path d="M24.1896 35.9785C20.5031 35.9785 17.3101 34.599 15.5858 32.2682L11.602 35.3006C10.8766 35.8477 9.81228 35.7406 9.33066 35.0747C9.05715 34.6942 8.9858 34.2006 9.14039 33.725C9.18796 33.5942 9.33066 33.2017 9.84796 31.8163L10.1155 31.1028C8.92634 30.7698 7.82634 30.1515 6.92255 29.2893C5.58472 28.0228 4.7285 26.2985 4.51445 24.4433C4.27661 22.3801 4.82958 20.3525 6.07228 18.7233C7.32688 17.0882 9.12255 16.0536 11.1323 15.8217C12.5534 15.6552 14.0339 15.9228 15.3301 16.5769C16.4301 15.3936 17.9404 14.5077 19.5993 14.0736C21.7517 13.5147 24.0112 13.7406 25.7712 14.686C27.1626 13.372 29.2199 12.7298 31.2415 12.9617C34.8269 13.3779 37.4431 16.3212 37.0744 19.5261C37.0744 19.5736 37.0626 19.6212 37.0566 19.6688C37.5204 20.1325 37.782 20.4477 38.228 21.1017C39.0426 22.2909 39.1258 23.3255 38.5193 24.5563C37.8117 25.9833 33.5426 32.286 33.3523 32.5358C32.1036 34.1709 30.9144 34.5871 29.4042 35.1163C27.7512 35.6931 26.009 35.9844 24.1955 35.9844L24.1896 35.9785ZM15.6393 30.6866C15.7047 30.6866 15.7701 30.6866 15.8355 30.7044C16.1744 30.7579 16.4658 30.9423 16.662 31.2277C18.0712 33.2731 20.8836 34.492 24.1896 34.492C25.8426 34.492 27.4123 34.2363 28.869 33.725C30.3317 33.2136 31.188 32.9104 32.169 31.632C32.3653 31.3704 36.5453 25.1866 37.1815 23.9023C37.5501 23.159 37.5026 22.6833 36.9972 21.9401C36.5274 21.2504 36.3253 21.0304 35.7366 20.4596L35.4334 20.1682L35.5285 19.7579C35.5582 19.6212 35.582 19.4904 35.5999 19.3536C35.8734 16.9633 33.8458 14.7574 31.075 14.4363C29.4339 14.246 27.775 14.7812 26.7047 15.8515C26.3004 16.2558 25.688 16.345 25.1885 16.0596C23.7436 15.2331 21.8171 15.0309 19.9739 15.5066C18.535 15.8812 17.2447 16.6542 16.329 17.6828C15.9366 18.1228 15.2944 18.2358 14.7712 17.9623C13.7069 17.3915 12.482 17.1596 11.2988 17.2963C9.69336 17.4806 8.25445 18.3071 7.24958 19.6212C6.23877 20.9412 5.79282 22.5942 5.98309 24.2709C6.16147 25.7812 6.8512 27.1844 7.93931 28.2131C8.71823 28.9563 9.67553 29.4736 10.7101 29.7233C11.055 29.8066 11.3523 30.0385 11.5247 30.3536C11.6912 30.6688 11.7209 31.0493 11.5961 31.3882L11.2393 32.3396C10.9361 33.1542 10.609 34.0223 10.5496 34.1888C10.5734 34.1888 10.6447 34.165 10.7042 34.1233L14.8723 30.9542C15.0923 30.7877 15.3658 30.6925 15.6393 30.6925V30.6866Z" fill="#303030"/>
<path d="M22.6192 40.1585C19.0576 40.1585 16.0192 38.8029 14.4792 36.5672C14.3127 36.3293 13.9797 36.2818 13.7479 36.4602L9.57975 39.6353C9.40137 39.772 9.16947 39.8493 8.95542 39.8493C8.70569 39.8493 8.49164 39.7483 8.35488 39.5639C8.27758 39.4569 8.15866 39.2191 8.27164 38.8802C8.27164 38.8802 8.96731 37.0191 9.32407 36.0499C9.4311 35.7585 9.26461 35.4434 8.96731 35.372C7.81974 35.0926 6.73758 34.5099 5.85758 33.6775C4.64461 32.5299 3.87164 30.9661 3.67542 29.2834C3.46137 27.4164 3.96083 25.5731 5.08461 24.0985C6.21434 22.6239 7.83164 21.6964 9.6392 21.4823C9.89488 21.4526 10.1506 21.4407 10.4062 21.4407C11.5003 21.4407 12.5765 21.7142 13.5457 22.2315C13.7657 22.3504 14.0273 22.3029 14.1938 22.1185C15.1987 20.9948 16.6257 20.1326 18.2073 19.7223C18.9268 19.538 19.6522 19.4429 20.3776 19.4429C21.6916 19.4429 22.9462 19.7639 23.9749 20.3466C24.183 20.4656 24.4268 20.4299 24.5992 20.2634C25.6576 19.205 27.1916 18.5926 28.8208 18.5926C29.0765 18.5926 29.3322 18.6104 29.5819 18.6342C32.757 19.0029 35.0819 21.5775 34.7608 24.372C34.743 24.5326 34.7133 24.6931 34.6776 24.8537C35.3138 25.4661 35.5457 25.7277 36.0392 26.4472C36.6933 27.4104 36.7646 28.1715 36.277 29.1526C35.617 30.4904 31.3954 36.7396 31.1873 37.0072C30.0695 38.4639 29.0289 38.8326 27.5841 39.338L27.5424 39.3499C26.0084 39.885 24.3554 40.1585 22.6192 40.1585Z" fill="white"/>
<path d="M22.6193 40.9018C18.9328 40.9018 15.7398 39.5223 14.0155 37.1915L10.0317 40.2239C9.31224 40.771 8.24197 40.6639 7.76035 39.998C7.48684 39.6174 7.41548 39.1239 7.57008 38.6482L8.54521 36.0261C7.35602 35.6931 6.25602 35.0747 5.35224 34.2126C4.0144 32.9461 3.15819 31.2218 2.94413 29.3666C2.7063 27.3034 3.25927 25.2758 4.50197 23.6466C5.75657 22.0055 7.55224 20.9769 9.56197 20.745C11.0068 20.5785 12.4695 20.8461 13.7598 21.5001C14.8598 20.3169 16.3701 19.4309 18.029 18.9969C20.1695 18.438 22.4409 18.6639 24.2009 19.6093C25.5863 18.2953 27.6495 17.6531 29.6771 17.885C33.2625 18.3012 35.8787 21.2445 35.5041 24.4493C35.5041 24.4969 35.4922 24.5445 35.4863 24.592C35.956 25.0558 36.2176 25.3769 36.6576 26.025C37.4663 27.2142 37.5555 28.2488 36.949 29.4796C36.2414 30.9066 31.9722 37.2093 31.782 37.4591C30.5274 39.0942 29.3441 39.5104 27.8398 40.0337C26.1868 40.6164 24.4447 40.9018 22.6252 40.9018H22.6193ZM14.069 35.6099C14.1344 35.6099 14.1998 35.6099 14.2652 35.6277C14.6041 35.6812 14.9014 35.8655 15.0917 36.151C16.5009 38.1964 19.3133 39.4212 22.6193 39.4212C24.2722 39.4212 25.842 39.1655 27.2987 38.6542C28.7614 38.1428 29.6176 37.8396 30.5987 36.5612C30.7949 36.2996 34.9749 30.1218 35.6112 28.8315C35.9798 28.0942 35.9322 27.6126 35.4268 26.8693C34.9571 26.1855 34.7549 25.9655 34.1663 25.3888L33.8631 25.0974L33.9582 24.6872C33.9879 24.5504 34.0117 24.4137 34.0295 24.2828C34.3031 21.8926 32.2755 19.6866 29.5047 19.3655C27.8695 19.1753 26.2047 19.7104 25.1344 20.7807C24.7241 21.1909 24.1176 21.2682 23.6182 20.9888C22.1733 20.1682 20.2409 19.9601 18.4095 20.4358C16.9706 20.8104 15.6803 21.5834 14.7647 22.612C14.3722 23.052 13.7301 23.165 13.2068 22.8855C12.1485 22.3207 10.9355 22.0828 9.74035 22.2196C8.13494 22.4039 6.69603 23.2304 5.69116 24.5445C4.68035 25.8645 4.2344 27.5174 4.43062 29.1942C4.60305 30.7045 5.29873 32.1077 6.38684 33.1364C7.16576 33.8737 8.12305 34.3969 9.15765 34.6466C9.50846 34.7299 9.79981 34.9618 9.97224 35.2769C10.1387 35.592 10.1685 35.9726 10.0376 36.3055C9.67494 37.2747 8.97927 39.1477 8.97332 39.1537C9.01494 39.1061 9.0863 39.0882 9.14575 39.0407L13.3139 35.8715C13.5339 35.705 13.8074 35.6099 14.0809 35.6099H14.069Z" fill="#303030"/>
<path d="M24.6293 28.445H16.4239V25.7158L11.9585 29.2358L16.4239 32.5715V29.985H24.6293V32.5715L29.0947 29.0515L24.6293 25.7158V28.445Z" fill="#303030"/>
</svg>
