<svg width="25" height="21" viewBox="0 0 25 21" fill="none" xmlns="http://www.w3.org/2000/svg">
<path d="M5.73556 17.78L5.74389 17.806C5.75589 18.506 5.54323 19.0594 5.10389 19.4697C4.66489 19.8804 4.05623 20.0854 3.27689 20.0854C2.49456 20.0854 1.86023 19.834 1.37189 19.332C0.883559 18.829 0.639893 18.1824 0.639893 17.3914V16.101C0.639893 15.3134 0.878226 14.6674 1.35389 14.1614C1.82956 13.655 2.44889 13.4034 3.20956 13.4034C4.01289 13.4034 4.64023 13.6087 5.09223 14.021C5.54423 14.4334 5.76489 14.9944 5.75256 15.7054L5.74323 15.7327H4.47656C4.47656 15.3047 4.37389 14.9757 4.16823 14.7494C3.96323 14.5214 3.64389 14.4084 3.20889 14.4084C2.81923 14.4084 2.51056 14.567 2.28123 14.8827C2.05189 15.1997 1.93789 15.603 1.93789 16.093V17.3897C1.93789 17.8864 2.05823 18.292 2.29923 18.609C2.54023 18.9247 2.86589 19.0837 3.27623 19.0837C3.68456 19.0837 3.98556 18.9744 4.17956 18.756C4.37456 18.5374 4.47223 18.2114 4.47223 17.7817H5.73556V17.78Z" fill="#303030"/>
<path d="M7.93355 13.496L9.58922 18.2837H9.61589L11.2849 13.496H12.9886V19.992H11.6866V18.055L11.8116 15.1864L11.7849 15.182L10.0446 19.9917H9.17022L7.43855 15.1997L7.41189 15.2054L7.53655 18.0554V19.9924H6.23389V13.496H7.93355Z" fill="#303030"/>
<path d="M16.0303 16.4904H16.0566L17.4763 13.4967H18.9036L16.6729 17.708V19.9927H15.3743V17.6414L13.1836 13.496H14.6113L16.0303 16.4904Z" fill="#303030"/>
<path d="M21.1192 17.2787H20.3972V19.9927H19.0935V13.496H20.3972V16.151H20.9628L22.6858 13.496H24.2782L22.0925 16.5204L24.4525 19.992H22.8638L21.1192 17.2787Z" fill="#303030"/>
<path d="M8.78655 3.87003C6.49289 3.1797 4.26589 2.64503 2.39522 3.46903C0.524554 4.29303 0.546887 5.65137 0.546887 5.65137C0.546887 5.65137 0.524554 7.01003 2.39522 7.8337C4.26555 8.6577 6.49255 8.12337 8.78655 7.43303C11.0806 6.7427 11.8822 8.85803 12.8176 11.1964H16.5589H24.4426V0.106033L16.5586 0.106367L12.8176 0.106033C11.8822 2.4447 11.0806 4.56037 8.78655 3.87003ZM2.10555 5.65137C2.10555 5.06703 2.57922 4.5937 3.16355 4.5937C3.74789 4.5937 4.22122 5.06703 4.22155 5.65137C4.22122 6.2357 3.74789 6.70903 3.16355 6.70937C2.57922 6.70937 2.10555 6.2357 2.10555 5.65137ZM13.8866 10.1277V1.17503H15.4902V10.1274H13.8866V10.1277ZM23.3736 1.17537V10.1277H20.8102C18.9422 10.128 18.0066 9.39337 18.2739 8.9697C18.5412 8.54637 18.9422 8.3907 19.4096 8.10103C19.8772 7.8117 20.0802 7.03237 19.2552 6.78703C18.4296 6.54237 17.7392 5.74037 18.5189 5.38437C19.2982 5.02837 22.1932 4.07037 20.0112 3.3577C17.8286 2.64503 16.8842 1.17503 19.4942 1.17503L23.3736 1.17537Z" fill="#303030"/>
</svg>
