<svg width="25" height="25" viewBox="0 0 25 25" fill="none" xmlns="http://www.w3.org/2000/svg">
<g clip-path="url(#clip0_106_14340)">
<path d="M17.946 1.1357C15.8557 1.1357 13.8927 2.05436 12.563 3.65603L12.5 3.7317L12.437 3.65603C11.1064 2.05436 9.14437 1.1357 7.05437 1.1357C3.07604 1.1357 0.613037 4.6767 0.613037 7.95703C0.613037 11.4047 3.5277 14.6914 4.7807 15.9444C5.64637 16.811 7.76937 18.7107 9.47404 20.2367L9.50804 20.266C10.4547 21.1137 11.434 21.9887 11.6354 22.1897L12.5007 23.0557L13.3657 22.189C13.5617 21.993 14.479 21.1727 15.4497 20.3044L15.5247 20.238C17.231 18.7114 19.3547 16.811 20.22 15.9444C21.474 14.691 24.388 11.4037 24.388 7.95703C24.3874 4.6767 21.9237 1.1357 17.946 1.1357ZM19.5027 15.2284C18.6564 16.0754 16.5457 17.9647 14.8504 19.481L14.7737 19.5494C13.5874 20.6107 12.8524 21.2694 12.6487 21.4737L12.5 21.6224L12.3514 21.474C12.151 21.2734 11.4324 20.629 10.273 19.592L10.176 19.5054L10.1494 19.482L10.1124 19.4487C8.43004 17.9427 6.3367 16.0684 5.49704 15.2287C4.33337 14.0637 1.62604 11.025 1.62604 7.95703C1.62604 5.16403 3.70137 2.14903 7.05404 2.14903C8.84204 2.14903 10.5197 2.93436 11.66 4.30703L11.723 4.38236L12.5034 5.31303L13.2797 4.37836L13.3424 4.3027C14.479 2.9337 16.1574 2.14836 17.946 2.14836C21.299 2.14836 23.3744 5.16336 23.3744 7.9567C23.3744 9.25436 22.8834 10.6934 21.916 12.234C21.0607 13.5957 20.0377 14.694 19.5027 15.2284Z" fill="#303030"/>
<path d="M15.0787 10.87H9.6604V9.06503L6.7124 11.39L9.6604 13.5917V11.8834H15.0787V13.5917L18.0267 11.2667L15.0787 9.06503V10.87Z" fill="#303030"/>
</g>
<defs>
<clipPath id="clip0_106_14340">
<rect width="24" height="24" fill="white" transform="translate(0.5 0.0957031)"/>
</clipPath>
</defs>
</svg>
