<svg width="13" height="12" viewBox="0 0 13 12" fill="none" xmlns="http://www.w3.org/2000/svg">
<g clip-path="url(#clip0_4_13114)">
<path d="M12.562 6C12.562 7.5913 11.9299 9.11742 10.8047 10.2426C9.67943 11.3679 8.15331 12 6.56201 12C4.97071 12 3.44459 11.3679 2.31937 10.2426C1.19415 9.11742 0.562012 7.5913 0.562012 6C0.562012 4.4087 1.19415 2.88258 2.31937 1.75736C3.44459 0.632141 4.97071 0 6.56201 0C8.15331 0 9.67943 0.632141 10.8047 1.75736C11.9299 2.88258 12.562 4.4087 12.562 6ZM4.68401 4.52475H5.30276C5.40626 4.52475 5.48876 4.44 5.50226 4.33725C5.56976 3.84525 5.90726 3.48675 6.50876 3.48675C7.02326 3.48675 7.49426 3.744 7.49426 4.36275C7.49426 4.839 7.21376 5.058 6.77051 5.391C6.26576 5.75775 5.86601 6.186 5.89451 6.88125L5.89676 7.044C5.89755 7.09321 5.91765 7.14013 5.95273 7.17465C5.98781 7.20916 6.03505 7.22851 6.08426 7.2285H6.69251C6.74224 7.2285 6.78993 7.20875 6.82509 7.17358C6.86026 7.13842 6.88001 7.09073 6.88001 7.041V6.96225C6.88001 6.42375 7.08476 6.267 7.63751 5.84775C8.09426 5.5005 8.57051 5.115 8.57051 4.30575C8.57051 3.1725 7.61351 2.625 6.56576 2.625C5.61551 2.625 4.57451 3.0675 4.50326 4.3395C4.50224 4.36372 4.50617 4.3879 4.51484 4.41054C4.5235 4.43318 4.5367 4.45381 4.55363 4.47116C4.57056 4.48851 4.59086 4.50222 4.61328 4.51143C4.6357 4.52065 4.65977 4.52518 4.68401 4.52475ZM6.42776 9.357C6.88526 9.357 7.19951 9.0615 7.19951 8.66175C7.19951 8.24775 6.88451 7.95675 6.42776 7.95675C5.98976 7.95675 5.67101 8.24775 5.67101 8.66175C5.67101 9.0615 5.98976 9.357 6.42851 9.357H6.42776Z" fill="#124678"/>
</g>
<defs>
<clipPath id="clip0_4_13114">
<rect width="12" height="12" fill="white" transform="translate(0.562012)"/>
</clipPath>
</defs>
</svg>
