<svg width="25" height="25" viewBox="0 0 25 25" fill="none" xmlns="http://www.w3.org/2000/svg">
<g clip-path="url(#clip0_106_14366)">
<path d="M15.7315 10.3544C15.2755 10.2557 14.8698 10 14.4915 9.5727C14.0711 9.0987 13.5951 8.56104 12.6645 8.56104C11.8908 8.56104 11.4791 9.06503 11.0208 9.7247L10.9791 9.7877C10.6951 10.2254 10.3205 10.6737 9.73646 10.6067C9.24679 10.5477 8.96546 10.1697 8.75946 9.89304L8.67612 9.78504C8.28146 9.29904 7.68479 8.56437 6.74112 8.5627C6.02346 8.5627 5.67112 9.01404 5.38679 9.37837C5.10579 9.73604 4.81512 10.106 4.10712 10.263L4.00879 10.2844L4.03179 11.229L4.17446 11.2017C4.36512 11.164 4.54679 11.1134 4.73012 11.047C5.21446 10.873 5.63012 10.592 5.90146 10.2557C5.91579 10.2374 5.92912 10.2154 5.94946 10.1807C6.07746 9.97204 6.31546 9.58337 6.83512 9.58337C6.86846 9.58337 6.90446 9.58504 6.94579 9.59004C7.43312 9.64304 7.69112 10.0107 7.86179 10.2534C7.90012 10.311 7.92912 10.351 7.95912 10.3897C8.43412 10.972 8.92512 11.5744 9.82112 11.5744C10.8778 11.5744 11.3901 10.8384 11.8028 10.2457L11.8461 10.1777C12.0578 9.83937 12.3141 9.52637 12.7511 9.52637C12.8135 9.52637 12.8785 9.53304 12.9445 9.5457C13.3288 9.61904 13.5701 9.92237 13.7291 10.1227L13.7398 10.1364C13.7565 10.1577 13.7701 10.175 13.7795 10.184C14.1935 10.652 14.7091 11.2347 15.6975 11.301L15.8278 11.3094V10.375L15.7315 10.3544Z" fill="#303030"/>
<path d="M14.4917 13.564C14.0717 13.09 13.5957 12.5527 12.6647 12.5527C11.8907 12.5527 11.4793 13.057 11.021 13.7167L10.9627 13.806C10.7403 14.1484 10.3817 14.604 9.83768 14.604C9.80434 14.604 9.77001 14.602 9.73601 14.5987C9.24834 14.539 8.95801 14.15 8.76568 13.8927C8.73468 13.8504 8.70701 13.8134 8.68034 13.781C8.28368 13.293 7.68401 12.5554 6.74201 12.5544C6.02501 12.5544 5.67168 13.0057 5.38801 13.3687C5.10801 13.7264 4.81834 14.0967 4.10801 14.2547L4.01001 14.2754L4.03301 15.2204L4.17501 15.1934C4.36501 15.156 4.54701 15.1054 4.73134 15.0387C5.21568 14.8647 5.63068 14.584 5.90034 14.249C5.91701 14.2284 5.93301 14.2014 5.95168 14.1697C6.07901 13.9617 6.31634 13.5747 6.83501 13.5747C6.87068 13.5747 6.90768 13.577 6.94568 13.5817C7.43401 13.6344 7.69168 14.003 7.88034 14.273C7.90868 14.315 7.93301 14.349 7.95934 14.381C8.43401 14.9634 8.92501 15.5654 9.82068 15.5654C10.8763 15.5654 11.3897 14.8287 11.8027 14.2357L11.8463 14.1687C11.968 13.9747 12.2533 13.5204 12.769 13.5204C12.825 13.5204 12.884 13.526 12.9433 13.5367C13.3267 13.6097 13.5717 13.916 13.7357 14.1207C13.7557 14.147 13.7703 14.1654 13.7813 14.1777C14.195 14.6444 14.7097 15.2257 15.6977 15.292L15.8283 15.3007V14.3674L15.732 14.3464C15.2747 14.2464 14.869 13.9907 14.4917 13.564Z" fill="#303030"/>
<path d="M21.3536 4.95804H3.82123C1.46523 4.95804 0.653564 4.91937 0.653564 6.49837V17.634C0.653564 19.171 1.10923 19.233 3.4649 19.233H21.7682C24.1232 19.233 24.3466 19.233 24.3466 17.3964V6.4387C24.3466 4.9197 23.7819 4.95804 21.3536 4.95804ZM17.9106 17.1304H1.9179V7.06104H17.9109V17.1304H17.9106ZM23.2706 13.0814H19.0586V7.02837H23.2709V13.0814H23.2706Z" fill="#303030"/>
</g>
<defs>
<clipPath id="clip0_106_14366">
<rect width="24" height="24" fill="white" transform="translate(0.5 0.0957031)"/>
</clipPath>
</defs>
</svg>
