<svg width="38" height="38" viewBox="0 0 38 38" fill="none" xmlns="http://www.w3.org/2000/svg">
<rect x="0.511719" width="37.0788" height="37.0956" rx="8" fill="#13CB65"/>
<path d="M8.51172 19.4257V19.9218V28.7968H13.5605V27.5449L13.582 27.5526C14.9017 27.9915 16.789 28.3817 18.6543 29.0487L18.793 29.0956L18.9297 29.0644C19.5159 28.9279 21.0953 28.4408 22.9785 27.8358C24.8617 27.2309 27.0101 26.5162 28.6074 25.9648C29.3718 25.7 29.7829 24.845 29.5019 24.0858C29.2067 23.3091 28.3504 22.9597 27.6211 23.1836C27.0137 23.3697 24.1628 24.2503 22.291 24.8027C22.3086 24.2688 22.449 23.6914 22.0156 23.3515L21.9922 23.3281L21.9629 23.3163C19.8589 22.0611 19.6807 21.8984 16.7226 20.3262L16.584 20.2578L16.4316 20.2735C15.4144 20.3826 13.6862 20.6687 13.5605 20.6895V19.4258L8.51172 19.4257ZM9.51172 20.4258H12.5664V27.7968H9.51172V20.4258ZM16.3867 21.289C19.0886 22.728 19.3989 22.9477 21.3965 24.1387C21.7205 24.3929 21.8068 24.7051 21.6113 24.9863C21.5064 25.1372 21.3965 25.197 21.2441 25.2224C21.0918 25.2498 20.8813 25.2147 20.6406 25.1091C19.741 24.6933 19.2516 24.4282 18.2578 23.8708L17.8223 23.6267L17.334 24.4978L17.7695 24.7418C18.7697 25.3028 19.298 25.5953 20.2285 26.025H20.2363C20.6165 26.1944 21.0176 26.2753 21.4121 26.2085C21.5758 26.1811 21.6827 26.0141 21.832 25.9331L21.8476 25.9781L22.3281 25.8412C24.2024 25.2924 27.2871 24.3376 27.9121 24.146V24.1381C28.1483 24.0657 28.4675 24.185 28.5625 24.4349C28.6509 24.6856 28.5356 24.9282 28.2793 25.0169C26.6928 25.5646 24.5487 26.2774 22.6719 26.8803C20.8421 27.468 19.2937 27.9369 18.8066 28.056C16.9294 27.4042 15.064 26.9931 13.8965 26.6048L13.5605 26.4973V21.7005L13.6445 21.6887C13.6445 21.6887 15.3705 21.4095 16.3867 21.2903L16.3867 21.289Z" fill="white"/>
<path d="M23.191 8C19.7777 8 16.9963 10.7813 16.9963 14.1944C16.9963 17.6076 19.7777 20.3813 23.191 20.3813C26.6043 20.3813 29.3781 17.6076 29.3781 14.1944C29.3781 10.7813 26.6043 8 23.191 8ZM23.191 9.00058C26.0638 9.00058 28.3774 11.3217 28.3774 14.1944C28.3774 17.0672 26.0638 19.3807 23.191 19.3807C20.3182 19.3807 17.997 17.0672 17.997 14.1944C17.997 11.3217 20.3182 9.00058 23.191 9.00058Z" fill="white"/>
<path d="M22.6836 10.8495V11.3554V11.7168H21.3223V14.6913H24.0527V15.666H21.8262H21.3223V16.666H21.8262H22.6836V17.0253V17.5292H23.6836V17.0253V16.666H25.0527V13.6913H22.3223V12.7167H24.5488H25.0527V11.7168H24.5488H23.6836V11.3554V10.8495H22.6836Z" fill="white"/>
</svg>
