<svg width="25" height="25" viewBox="0 0 25 25" fill="none" xmlns="http://www.w3.org/2000/svg">
<g clip-path="url(#clip0_106_14357)">
<path d="M5.7015 2.95537C5.7995 2.95537 5.89883 2.9327 5.99216 2.88504L8.51616 1.5927H11.3695C11.3732 2.05337 11.8495 2.44504 12.5185 2.60037V3.5737C11.8428 3.71904 10.8742 4.10737 10.8742 5.1477C10.8742 6.74437 10.8742 7.22337 10.8742 7.22337H13.1502H13.1645H15.4405C15.4405 7.22337 15.4405 6.74437 15.4405 5.1477C15.4405 4.10737 14.4718 3.71904 13.7958 3.5737V2.60037C14.4648 2.4447 14.9412 2.05304 14.9448 1.5927H16.2812C16.6342 1.5927 16.9198 1.30704 16.9198 0.954035C16.9198 0.601035 16.6342 0.315369 16.2812 0.315369H8.36216C8.26116 0.315369 8.16116 0.339369 8.07116 0.385702L5.40983 1.74804C5.09616 1.9087 4.97183 2.2937 5.1325 2.60737C5.2455 2.82837 5.4695 2.95537 5.7015 2.95537Z" fill="#303030"/>
<path d="M20.1139 19.7777C20.1049 19.719 19.1972 13.899 18.7229 11.368C18.1739 8.44037 16.5866 8.1017 15.4402 8.1017H10.8742C9.72823 8.1017 8.14057 8.44037 7.5919 11.368C7.11723 13.8994 6.2099 19.7194 6.20523 19.7534C6.1869 19.835 5.7699 21.7714 6.7329 22.972C7.21357 23.572 7.93557 23.876 8.87823 23.876H17.4359C18.3786 23.876 19.1006 23.572 19.5812 22.972C20.5446 21.771 20.1272 19.835 20.1139 19.7777ZM18.9832 22.4924C18.6506 22.9077 18.1442 23.1097 17.4359 23.1097H8.87823C8.1709 23.1097 7.6649 22.9084 7.33223 22.4944C6.5989 21.5827 6.9499 19.9357 6.9579 19.8954C6.9669 19.8367 7.87257 14.0284 8.3449 11.509C8.78023 9.1877 9.81757 8.8677 10.8739 8.8677H15.4402C16.4966 8.8677 17.5342 9.1877 17.9692 11.509C18.4419 14.0287 19.3476 19.8367 19.3612 19.9197C19.4629 20.3774 19.5939 21.7314 18.9832 22.4924Z" fill="#303030"/>
<path d="M7.53728 8.14903C7.53728 6.39203 5.49362 3.7267 5.49362 3.7267C5.49362 3.7267 3.44995 6.39203 3.44995 8.14903C3.44995 10.055 4.98262 10.2934 5.49362 10.2934C6.00462 10.2934 7.53728 10.055 7.53728 8.14903Z" fill="#303030"/>
<path d="M18.2286 20.1214L18.2209 20.0724C18.2129 20.021 17.5089 15.507 17.0213 12.7267H11.8996L11.5606 16.2284H10.0759L10.4726 12.7267H9.29326C8.8056 15.507 8.1016 20.021 8.0936 20.0724L8.08526 20.1217L8.07726 20.1604C7.9776 20.6367 7.97493 21.4627 8.22926 21.7757C8.3286 21.8977 8.54693 21.96 8.87826 21.96H17.4359C17.7669 21.96 17.9853 21.8977 18.0849 21.7757C18.3393 21.463 18.3363 20.6367 18.2389 20.17L18.2286 20.1214Z" fill="#303030"/>
</g>
<defs>
<clipPath id="clip0_106_14357">
<rect width="24" height="24" fill="white" transform="translate(0.5 0.0957031)"/>
</clipPath>
</defs>
</svg>
