<svg width="25" height="25" viewBox="0 0 25 25" fill="none" xmlns="http://www.w3.org/2000/svg">
<g clip-path="url(#clip0_106_14378)">
<path d="M23.849 16.6054L13.5156 0.311038L12.932 0.300705C12.8933 0.300705 12.8503 0.303038 12.8073 0.305705L12.6316 0.313705C7.25929 0.451705 2.66429 4.20771 1.45595 9.44837C0.749287 12.5177 1.27962 15.6787 2.94995 18.3487C4.62029 21.019 7.23062 22.8794 10.3003 23.5867C11.1746 23.7884 12.0686 23.8907 12.9573 23.8907C17.6186 23.8907 21.8476 21.1354 23.7313 16.8714L23.849 16.6054ZM21.948 17.88C19.9956 20.915 16.5503 22.801 12.9573 22.801C12.1486 22.801 11.337 22.708 10.5446 22.5247C7.75929 21.8834 5.39029 20.1957 3.87395 17.7717C2.35762 15.3484 1.87595 12.4794 2.51862 9.69304C3.55429 5.19571 7.32195 1.88037 11.8943 1.4427L12.2686 1.40537L12.1396 1.7597C11.964 2.24304 11.8223 2.71671 11.7183 3.16671C11.0116 6.23704 11.5416 9.39837 13.2113 12.068C14.8816 14.7384 17.4923 16.5984 20.5623 17.3054C20.9463 17.3944 21.3553 17.465 21.7776 17.516L22.1546 17.5614L21.948 17.88ZM21.98 16.4177C21.397 16.3487 21.013 16.2914 20.806 16.243C18.021 15.602 15.652 13.9144 14.135 11.4904C12.6196 9.06604 12.1383 6.19704 12.78 3.41171C12.8543 3.09037 12.9523 2.75237 13.079 2.37904L13.237 1.90704L22.476 16.4757L21.98 16.4177Z" fill="#303030"/>
</g>
<defs>
<clipPath id="clip0_106_14378">
<rect width="24" height="24" fill="white" transform="translate(0.5 0.0957031)"/>
</clipPath>
</defs>
</svg>
