<svg width="49" height="49" viewBox="0 0 49 49" fill="none" xmlns="http://www.w3.org/2000/svg">
<rect x="0.511719" y="0.0957031" width="48" height="48" rx="24" fill="white"/>
<path d="M26.5161 16.4032C26.1337 16.0047 25.5007 15.9917 25.1022 16.374C24.7037 16.7564 24.6907 17.3895 25.073 17.788L30.1966 23.1273H16.5117C15.9594 23.1273 15.5117 23.575 15.5117 24.1273C15.5117 24.6796 15.9594 25.1273 16.5117 25.1273H30.1357L25.073 30.4032C24.6907 30.8017 24.7037 31.4347 25.1022 31.8171C25.5007 32.1995 26.1337 32.1865 26.5161 31.788L33.2332 24.788C33.6045 24.401 33.6045 23.7901 33.2332 23.4032L26.5161 16.4032Z" fill="#01ACDC"/>
</svg>
