<svg width="45" height="45" viewBox="0 0 45 45" fill="none" xmlns="http://www.w3.org/2000/svg">
<path d="M32.0542 12.4707V31.1707H18.7717C18.7174 30.3269 18.3439 29.5355 17.7272 28.9572C17.1104 28.3789 16.2966 28.057 15.4511 28.057C14.6056 28.057 13.7918 28.3789 13.175 28.9572C12.5583 29.5355 12.1848 30.3269 12.1305 31.1707H8.76172V12.4707H32.0542Z" stroke="#303030" stroke-width="1.5" stroke-linecap="round" stroke-linejoin="round"/>
<path d="M43.1377 24.5707V31.1707H40.9239C40.8696 30.327 40.4961 29.5355 39.8794 28.9572C39.2626 28.3789 38.4488 28.057 37.6033 28.057C36.7578 28.057 35.944 28.3789 35.3272 28.9572C34.7105 29.5355 34.337 30.327 34.2827 31.1707H32.0552V17.9707H36.6889L43.1377 24.5707Z" stroke="#303030" stroke-width="1.5" stroke-linecap="round" stroke-linejoin="round"/>
<path d="M43.1377 24.5707V31.1707H40.9239C40.8696 30.3269 40.4961 29.5355 39.8794 28.9572C39.2626 28.3788 38.4488 28.057 37.6033 28.057C36.7578 28.057 35.944 28.3788 35.3272 28.9572C34.7105 29.5355 34.337 30.3269 34.2827 31.1707H32.0552V24.5707H43.1377Z" stroke="#303030" stroke-width="1.5" stroke-linecap="round" stroke-linejoin="round"/>
<path d="M15.4452 34.4707C17.2829 34.4707 18.7727 32.9933 18.7727 31.1707C18.7727 29.3482 17.2829 27.8707 15.4452 27.8707C13.6074 27.8707 12.1177 29.3482 12.1177 31.1707C12.1177 32.9933 13.6074 34.4707 15.4452 34.4707Z" stroke="#303030" stroke-width="1.5" stroke-linecap="round" stroke-linejoin="round"/>
<path d="M37.5956 34.4707C39.4333 34.4707 40.9231 32.9933 40.9231 31.1707C40.9231 29.3482 39.4333 27.8707 37.5956 27.8707C35.7578 27.8707 34.2681 29.3482 34.2681 31.1707C34.2681 32.9933 35.7578 34.4707 37.5956 34.4707Z" stroke="#303030" stroke-width="1.5" stroke-linecap="round" stroke-linejoin="round"/>
<path d="M1.88672 14.6707H5.47547" stroke="#303030" stroke-width="1.5" stroke-linecap="round" stroke-linejoin="round"/>
<path d="M1.88672 19.0707H5.47547" stroke="#303030" stroke-width="1.5" stroke-linecap="round" stroke-linejoin="round"/>
<path d="M1.88672 23.4707H5.47547" stroke="#303030" stroke-width="1.5" stroke-linecap="round" stroke-linejoin="round"/>
</svg>
