<svg width="25" height="25" viewBox="0 0 25 25" fill="none" xmlns="http://www.w3.org/2000/svg">
<g clip-path="url(#clip0_106_14374)">
<path d="M21.7433 19.726C21.0266 18.9047 19.7219 17.9034 17.5773 17.797C14.8233 17.6577 13.6366 18.547 11.4773 20.1584C11.2256 20.3457 10.9589 20.545 10.6726 20.7554C8.31925 22.4847 6.26725 23.0967 4.57392 22.5764C3.99359 22.3974 3.57425 22.004 3.39325 21.4687C3.24359 21.0257 3.27325 20.5364 3.46525 20.0697C3.71292 20.0637 3.95859 19.9684 4.14759 19.7794L5.16792 18.7594C5.46725 18.8687 5.90292 18.9227 6.21325 18.6817C6.59825 18.3824 7.63192 17.619 8.00325 17.3457C8.45759 17.4497 8.99492 17.2297 9.20492 17.0197C9.48459 16.741 20.9803 5.2447 21.4179 4.80704C21.5013 4.72337 21.5369 4.62404 21.5369 4.51804C21.5369 4.35637 21.4523 4.1787 21.3283 4.01204C21.3339 4.0197 21.3416 4.02637 21.3473 4.03437C21.3536 4.02837 21.3606 4.02537 21.3666 4.01937C21.7689 3.61637 21.9089 3.30104 21.4886 2.8817C21.1909 2.5847 20.5619 1.95437 20.5619 1.95437C20.5619 1.95437 19.9316 1.3247 19.6343 1.02704C19.2143 0.607371 18.9003 0.747371 18.4973 1.15004C18.4916 1.15604 18.4883 1.1627 18.4819 1.1687C18.4879 1.17304 18.4933 1.17904 18.4993 1.18304C18.2243 0.980038 17.9173 0.888704 17.7086 1.09704C17.2716 1.53437 5.77625 13.0307 5.49592 13.31C5.32292 13.4834 5.14292 13.8777 5.14292 14.2654C5.14292 14.356 5.15659 14.4457 5.17859 14.5327C5.17692 14.5257 5.17259 14.5187 5.17092 14.5117C4.89792 14.881 4.13392 15.9167 3.83459 16.302C3.59292 16.6124 3.64725 17.0484 3.75692 17.3477L2.73659 18.3677C2.40692 18.6977 2.35959 19.1997 2.58759 19.583C2.26192 20.3017 2.20559 21.0777 2.44625 21.7894C2.72892 22.6254 3.39759 23.261 4.28025 23.5324C4.76692 23.6817 5.27359 23.757 5.79892 23.757C7.44559 23.757 9.27725 23.0227 11.2653 21.5617C11.5536 21.3494 11.8223 21.149 12.0756 20.9597C14.2399 19.3447 15.1323 18.6777 17.5276 18.796C20.6169 18.9497 22.0563 21.376 22.0563 22.9674C22.0563 23.2434 22.2803 23.4674 22.5563 23.4674C22.8323 23.4674 23.0563 23.2434 23.0563 22.9674C23.0559 21.879 22.5649 20.6674 21.7433 19.726ZM18.7069 1.35937C19.0219 1.67437 19.9319 2.5847 19.9319 2.5847C19.9319 2.5847 20.8416 3.4947 21.1563 3.80904C21.1679 3.8207 21.1763 3.83404 21.1876 3.8457C21.1763 3.8337 21.1669 3.8207 21.1549 3.80937C20.8406 3.4947 19.9306 2.5847 19.9306 2.5847C19.9306 2.5847 19.0209 1.67504 18.7053 1.3597C18.6979 1.35237 18.6893 1.3457 18.6819 1.33804C18.6899 1.3457 18.6993 1.3517 18.7069 1.35937ZM6.13459 13.9297C6.50792 13.557 13.7873 6.27704 16.9283 3.13637L18.0753 1.9897L19.3006 3.21404L20.5259 4.43937C18.7553 6.21004 9.01492 15.9504 8.58559 16.3794C8.49925 16.4437 8.29525 16.4974 8.21092 16.4797L7.12359 15.3924L6.03625 14.3054C6.03459 14.298 6.03325 14.2844 6.03325 14.2644C6.03325 14.1344 6.09792 13.9817 6.13459 13.9297ZM5.25925 14.741C5.25159 14.7267 5.24525 14.7124 5.23859 14.6977C5.24525 14.712 5.25125 14.727 5.25925 14.741Z" fill="#303030"/>
</g>
<defs>
<clipPath id="clip0_106_14374">
<rect width="24" height="24" fill="white" transform="translate(0.5 0.0957031)"/>
</clipPath>
</defs>
</svg>
