<svg width="25" height="24" viewBox="0 0 25 24" fill="none" xmlns="http://www.w3.org/2000/svg">
<path d="M12.178 2.08858L15.0384 7.33345L15.2656 7.75019L15.7322 7.83757L21.6043 8.9372L17.5 13.2783L17.1739 13.6233L17.235 14.094L18.0038 20.0185L12.6068 17.4566L12.178 17.2531L11.7491 17.4566L6.35219 20.0185L7.12095 14.094L7.18203 13.6233L6.85591 13.2783L2.75166 8.9372L8.62373 7.83757L9.09031 7.75019L9.31759 7.33345L12.178 2.08858Z" fill="white" stroke="#F8D347" stroke-width="2"/>
<path d="M11.1781 17.7277L6.35227 20.0185L7.12103 14.094L7.18211 13.6233L6.85599 13.2783L2.75174 8.9372L8.62381 7.83757L9.09039 7.75019L9.31767 7.33345L11.1781 3.9222V17.7277Z" fill="#F8D347" stroke="#F8D347" stroke-width="2"/>
</svg>
