<svg width="98" height="20" viewBox="0 0 98 20" fill="none" xmlns="http://www.w3.org/2000/svg">
<g clip-path="url(#clip0_57_8567)">
<path d="M49.3352 6.63683C50.229 7.55303 50.743 8.75973 50.743 10.0335C50.743 11.3072 50.2514 12.5139 49.3352 13.4301C48.4413 14.324 47.2346 14.8156 45.9385 14.8156C45.0894 14.8156 44.3296 14.5251 43.6592 13.9217L43.5475 13.8324V19.2178L41.1117 19.9776V5.43012H43.5475V6.14521L43.6592 6.03347C44.3743 5.34074 45.2011 5.229 45.9385 5.229C47.2123 5.25135 48.419 5.74297 49.3352 6.63683ZM48.3072 10.0335C48.3072 8.71504 47.2123 7.59772 45.9385 7.59772C44.6648 7.59772 43.5698 8.71504 43.5698 10.0335C43.5698 11.3296 44.6648 12.4692 45.9385 12.4692C47.2123 12.4692 48.3072 11.3519 48.3072 10.0335Z" fill="#373737"/>
<path d="M53.0223 13.4301C52.1285 12.5139 51.6145 11.3072 51.6145 10.0335C51.6145 8.75972 52.1061 7.55302 53.0223 6.63682C53.9162 5.74296 55.1229 5.25134 56.419 5.25134C57.2681 5.25134 58.0279 5.54185 58.6983 6.1452L58.81 6.23458V5.43011H61.2458V14.6368H58.81V13.9217L58.6983 14.0335C57.9832 14.7262 57.1564 14.8379 56.419 14.8379C55.1452 14.8156 53.9385 14.3463 53.0223 13.4301ZM54.0503 10.0335C54.0503 11.3519 55.1452 12.4692 56.419 12.4692C57.7151 12.4692 58.7877 11.3519 58.7877 10.0335C58.7877 8.73738 57.6927 7.59771 56.419 7.59771C55.1229 7.59771 54.0503 8.73738 54.0503 10.0335Z" fill="#373737"/>
<path d="M53.0223 13.4301C52.1285 12.5139 51.6145 11.3072 51.6145 10.0335C51.6145 8.75972 52.1061 7.55302 53.0223 6.63682C53.9162 5.74296 55.1229 5.25134 56.419 5.25134C57.2681 5.25134 58.0279 5.54185 58.6983 6.1452L58.81 6.23458V5.43011H61.2458V14.6368H58.81V13.9217L58.6983 14.0335C57.9832 14.7262 57.1564 14.8379 56.419 14.8379C55.1452 14.8156 53.9385 14.3463 53.0223 13.4301ZM54.0503 10.0335C54.0503 11.3519 55.1452 12.4692 56.419 12.4692C57.7151 12.4692 58.7877 11.3519 58.7877 10.0335C58.7877 8.73738 57.6927 7.59771 56.419 7.59771C55.1229 7.59771 54.0503 8.73738 54.0503 10.0335Z" fill="#373737"/>
<path d="M63.6592 20L65.8491 14.6816L62.162 5.45251H64.8659L67.1676 11.1732L69.4916 5.45251H72.1732L66.2961 20.0224H63.6592V20Z" fill="#373737"/>
<path d="M63.6592 20L65.8491 14.6816L62.162 5.45251H64.8659L67.1676 11.1732L69.4916 5.45251H72.1732L66.2961 20.0224H63.6592V20Z" fill="#373737"/>
<path d="M5.55864 14.7263C4.30725 14.7263 3.12289 14.2347 2.22903 13.3632C1.33518 12.4693 0.865906 11.2849 0.865906 10.0336C0.865906 8.78215 1.33518 7.5978 2.20669 6.70394C3.10054 5.83243 4.2849 5.36316 5.5363 5.36316C6.81004 5.36316 7.88267 6.03355 8.55306 6.59221L8.75417 6.74863V5.54193H10.2514V14.5252H8.75417V13.3185L8.55306 13.4749C7.90501 14.0559 6.83239 14.7263 5.55864 14.7263ZM5.55864 6.79333C3.79328 6.79333 2.34077 8.24584 2.34077 10.0336C2.34077 11.8213 3.79328 13.2738 5.55864 13.2738C7.32401 13.2738 8.77652 11.8213 8.77652 10.0336C8.77652 8.24584 7.32401 6.79333 5.55864 6.79333Z" fill="#373737"/>
<path d="M12.9553 14.5251V6.97207H11.5922V5.56425H12.9553V2.90503C12.9553 1.27374 14.2514 0 15.8827 0H17.7598L17.3799 1.40782H15.9274C15.1452 1.40782 14.4302 2.12291 14.4302 2.92737V5.5419H17.2681V6.94972H14.4525V14.5251H12.9553Z" fill="#373737"/>
<path d="M22.9218 14.5251C21.2905 14.5251 19.9944 13.2067 19.9944 11.5978V6.97207H18.6313V5.56425H19.9944V0H21.4916V5.5419H24.3072V6.94972H21.4693V11.5307C21.4693 12.3575 22.1843 13.095 22.9665 13.095H24.419L24.7989 14.5028H22.9218V14.5251Z" fill="#373737"/>
<path d="M29.3352 14.6815C28.1732 14.6815 27.1005 14.1899 26.3184 13.3184C25.6033 12.5363 25.1788 11.5531 25.1117 10.5028C25.0894 10.3687 25.0894 10.2346 25.0894 10.0782C25.0894 9.72065 25.1341 9.36311 25.2011 9.02791C25.3799 8.22344 25.7598 7.46367 26.3184 6.86031C27.1005 6.01115 28.1955 5.51953 29.3575 5.51953C30.5195 5.51953 31.5922 5.9888 32.419 6.86031C33 7.50836 33.3799 8.24579 33.5363 9.02791C33.648 9.72065 33.648 10.1452 33.648 10.3463H26.5419V10.5028C26.743 12.0894 27.9497 13.2961 29.3352 13.3184C30.1843 13.2737 31.0335 12.9385 31.6145 12.3799L32.8659 13.1173C32.5307 13.4748 32.1732 13.7653 31.7709 14.0112C31.0559 14.4134 30.229 14.6368 29.3352 14.6815ZM29.3352 6.86031C28.1732 6.86031 27.1005 7.68713 26.676 8.93853L26.6536 8.96087L26.5642 9.13964H32.1061L31.9944 8.93853C31.5922 7.68713 30.5195 6.86031 29.3352 6.86031Z" fill="#373737"/>
<path d="M35.0782 14.5252V5.54193H36.5754V6.68159L36.7765 6.45813C37.3128 5.87713 38.8547 5.40785 39.905 5.36316L39.5475 6.86037C37.9162 6.90506 36.5754 8.1788 36.5754 9.74305V14.5252H35.0782Z" fill="#373737"/>
<path d="M85.0447 7.97769C85.9385 7.46372 86.7653 6.9721 87.6592 6.45813C87.3687 5.94417 87.4357 6.07824 87.1676 5.58662C86.8994 5.07266 86.9888 4.87154 87.5698 4.87154C89.2458 4.84919 90.9218 4.84919 92.5977 4.87154C93.0894 4.87154 93.2234 5.095 92.9553 5.51958C92.1285 6.9721 91.2793 8.42461 90.4525 9.87713C90.1843 10.3464 89.9385 10.3464 89.6704 9.87713C89.3799 9.40785 89.4469 9.51958 89.1564 9.00562C88.2849 9.51958 87.4134 10.0112 86.5419 10.5252C86.5866 10.6592 86.6536 10.7486 86.7206 10.838C87.3687 11.9553 87.6592 12.4917 88.3296 13.609C89.1117 14.9274 90.7653 14.9944 91.7262 13.7877C91.838 13.6537 91.9274 13.5196 92.0167 13.3632C93.6033 10.6146 95.1899 7.8883 96.7542 5.1397C96.9106 4.87154 97.067 4.55869 97.1341 4.24584C97.4022 3.01679 96.486 1.83243 95.2123 1.83243C91.8156 1.81009 88.419 1.81009 85.0447 1.83243C83.5028 1.85478 82.5642 3.39668 83.2569 4.75981C83.4804 5.20674 83.7486 5.63132 83.9944 6.0559C84.419 6.88271 84.5307 7.08383 85.0447 7.97769Z" fill="#2A78AC"/>
<path d="M77.5139 16.4469C77.5139 15.419 77.5139 13.4302 77.5139 13.4302C77.5139 13.4302 77.0894 13.4302 76.5307 13.4302C75.9497 13.4302 75.838 13.2291 76.1285 12.7375C76.9553 11.2849 77.7821 9.85477 78.6313 8.4246C78.8771 8.00002 79.1005 7.95533 79.3687 8.4246C80.1955 9.87712 81.0447 11.3073 81.8491 12.7598C82.1173 13.2291 81.9832 13.4302 81.4692 13.4302C80.9329 13.4302 80.4637 13.4302 80.4637 13.4302V16.4469C80.4637 16.4469 82.6983 16.4469 83.9944 16.4469C85.5139 16.4246 86.4078 15.0391 85.8268 13.6313C85.7597 13.4749 85.6927 13.3185 85.6033 13.1844C84.0391 10.4581 82.4748 7.73187 80.9106 5.02796C80.7542 4.7598 80.5531 4.4693 80.3296 4.26818C79.4134 3.41902 77.9385 3.62014 77.2905 4.71511C75.5922 7.62013 73.8938 10.5252 72.2402 13.4525C71.4804 14.7933 72.3519 16.3576 73.8491 16.4469C74.3408 16.4693 76.4413 16.4469 77.5139 16.4469Z" fill="#124678"/>
</g>
<defs>
<clipPath id="clip0_57_8567">
<rect width="96.3129" height="20" fill="white" transform="translate(0.843567)"/>
</clipPath>
</defs>
</svg>
