<svg width="79" height="32" viewBox="0 0 79 32" fill="none" xmlns="http://www.w3.org/2000/svg">
<path d="M27.8023 2H3.35508C1.96755 2 0.841797 3.31392 0.841797 4.93336V27.0666C0.841797 28.6861 1.96755 30 3.35508 30H27.5737C28.9613 30 30.3155 28.6861 30.3155 27.0666V4.93336C30.3155 3.31392 29.1897 2 27.8023 2Z" fill="#F9F9F9"/>
<path d="M27.695 13.7883C28.3285 13.6356 28.6741 13.1406 28.6741 12.3706C28.6741 10.6289 27.0876 10.8795 25.9044 10.8795L25.9043 15.8906H26.7421V13.8862H26.8573L28.0197 15.8906H29.046L27.695 13.7883ZM26.988 13.2017H26.742V11.6801H26.9985C27.5273 11.6801 27.8154 11.9367 27.8154 12.4195C27.8154 12.9328 27.5273 13.2017 26.988 13.2017Z" fill="black"/>
<path d="M22.9775 10.8857H25.3496V11.7412H23.8155V12.8535H25.2971V13.6967H23.8155V15.0534H25.3496V15.8967H22.9775V10.8857Z" fill="black"/>
<path d="M19.3802 10.8857L20.5268 14.259L21.6892 10.8857H22.6055L20.7468 16.0312H20.2965L18.4639 10.8857H19.3802Z" fill="black"/>
<path d="M16.4534 10.7023C17.7466 10.7023 18.7886 11.9245 18.7886 13.4279C18.7886 14.9373 17.7414 16.1535 16.4534 16.1535C15.1601 16.1535 14.1182 14.9311 14.1182 13.4279C14.1181 11.9184 15.1654 10.7023 16.4534 10.7023Z" fill="#FF6F00"/>
<path d="M13.872 11.0751V12.2362C12.8196 11.0079 11.4216 11.9491 11.4216 13.3973C11.4216 14.9251 12.8614 15.7502 13.872 14.5707V15.7318C12.3169 16.6056 10.5576 15.3835 10.5576 13.3973C10.5576 11.4906 12.2907 10.1584 13.872 11.0751Z" fill="black"/>
<path d="M8.78274 15.1266C9.37961 15.1266 9.95558 14.1916 8.60994 13.6355C7.82464 13.2994 7.55231 12.9389 7.55231 12.2483C7.55231 10.8305 9.15445 10.3294 10.1546 11.3746L9.71472 12.0344C9.17021 11.3256 8.41096 11.6555 8.41096 12.1874C8.41096 12.4562 8.55236 12.6089 9.05499 12.8166C10.008 13.22 10.2907 13.5806 10.2907 14.381C10.2907 16.1839 8.25913 16.6667 7.32715 15.0716L7.86652 14.4666C8.06015 14.9005 8.38477 15.1266 8.78274 15.1266Z" fill="black"/>
<path d="M7.00284 10.8857H6.16504V15.8967H7.00284V10.8857Z" fill="black"/>
<path d="M30.3155 27.0667V18.9585C28.2834 20.4397 16.5127 27.4663 4.95508 29.9991H27.6056C28.982 29.9792 30.3155 28.6738 30.3155 27.0667Z" fill="#FF6F00"/>
<path d="M3.46845 10.8857H2.24316V15.8967H3.46838C5.08628 15.8967 5.7774 14.5279 5.7774 13.3974C5.77747 11.9246 4.835 10.8857 3.46845 10.8857ZM4.44745 14.6623C4.19089 14.9312 3.84009 15.0534 3.30079 15.0534H3.08083V11.7412H3.30079C3.84009 11.7412 4.1752 11.8451 4.44745 12.1445C4.74589 12.4502 4.91348 12.9145 4.91348 13.3973C4.91355 13.8801 4.74589 14.3445 4.44745 14.6623Z" fill="black"/>
<path d="M3.35508 2.1H27.8023C29.1206 2.1 30.2155 3.35409 30.2155 4.93336V27.0666C30.2155 28.6343 28.9026 29.9 27.5737 29.9H3.35508C2.03673 29.9 0.941797 28.6459 0.941797 27.0666V4.93336C0.941797 3.35409 2.03672 2.1 3.35508 2.1Z" stroke="#616161" stroke-width="0.2"/>
<rect x="42" y="8.25812" width="36" height="17.5484" fill="white"/>
<path d="M73.7834 22.4325V22.1419C73.1088 22.5032 73.5397 22.4325 63.9948 22.4325C63.9948 20.8064 64.0011 20.8904 63.9948 20.8064C63.8886 20.8001 63.7949 20.8001 63.4075 20.8001C63.4075 21.9548 63.4014 21.2388 63.4014 22.4325H60.9277C60.9277 21.6517 60.934 21.4453 60.934 20.5484C60.3093 20.9355 59.5097 20.9613 58.7913 20.9484C58.7913 21.8967 58.785 21.4839 58.785 22.4324H55.7305C55.4119 22.0644 55.5617 22.2321 54.7685 21.3096C54.5684 21.5354 53.9688 22.2065 53.7627 22.4324H48.6404V16.4774H53.8314C54.1437 16.8388 54.0063 16.6774 54.7995 17.587C54.9995 17.3613 55.5617 16.7225 55.7804 16.4774H59.4035C60.0156 16.4774 60.5279 16.6001 60.9214 16.8388V16.4774C64.3134 16.4774 64.9381 16.387 65.6503 16.8064V16.4774H70.5353V16.8128C71.2474 16.3676 71.7596 16.4774 74.5894 16.4774V16.8C75.2328 16.4193 75.6263 16.4645 77.9815 16.4774V5.16141C77.9815 3.45174 76.6384 2.06458 74.9829 2.06458H44.9984C43.343 2.06458 42 3.45174 42 5.16141V12.2452C42.5873 10.8324 43.2307 9.27757 43.443 8.76795H45.923C46.1917 9.4195 46.0229 9.00655 46.4852 10.1292V8.76795H49.3587C49.5398 9.16781 50.0521 10.3162 50.2271 10.7034C50.5893 9.82591 50.8581 9.16134 51.0142 8.76795H57.4483C57.4483 8.7614 58.1667 8.76795 58.173 8.76795C60.9027 8.78072 61.5212 8.71622 62.1958 9.10977V8.76795H64.6884V9.36785C65.163 8.9743 65.8066 8.76795 66.606 8.76795H68.3301C68.3301 8.8002 68.449 8.78727 68.4739 8.78727H70.4977C70.7602 9.41942 70.6602 9.17427 71.0474 10.1162V8.78727H73.7523C74.0584 9.30335 73.6898 8.67112 74.4518 9.9743V8.78727H76.9443V14.7228H74.3457C74.0083 14.142 74.2583 14.5808 73.5212 13.3099V14.7228H70.2228C69.8231 13.7679 70.2165 14.7034 69.8105 13.7356H68.6235C68.3613 14.3807 68.4862 14.0711 68.2238 14.7228H66.5496C65.7815 14.7228 65.1566 14.5292 64.6944 14.1486V14.7228H60.5404C60.5216 13.826 60.5341 13.1227 60.5341 13.1227C60.4216 13.1034 60.3216 13.1099 59.9219 13.1099V14.7292H51.4576V13.9936C51.3014 14.3549 51.289 14.3743 51.139 14.7292H49.2962C49.0463 14.155 49.1151 14.3163 48.9777 13.9936V14.7292H45.6731C45.4107 14.0775 45.5357 14.3873 45.2734 13.7421H44.0739C43.8116 14.3872 43.9366 14.0775 43.6742 14.7292H42.0124V27.8709C42.0124 29.5808 43.3556 30.9678 45.0109 30.9678H75.0016C76.6568 30.9678 78 29.5808 78 27.8709V22.0388C77.2067 22.5742 75.9572 22.4325 73.7834 22.4325Z" fill="#016FD0"/>
<path d="M63.9697 9.62622H62.9141V14.0971H63.9697V9.62622Z" fill="#016FD0"/>
<path d="M62.32 10.8261C62.32 9.76803 61.4393 9.63911 60.6085 9.63911L58.166 9.61963V14.0905H59.1905V12.4712H60.3149C61.4643 12.4712 61.2206 13.1358 61.2394 14.0905H62.2764V13.2195C62.2764 12.6261 62.1827 12.2454 61.5892 12.0326C62.0516 11.839 62.3263 11.3422 62.32 10.8261ZM60.4836 11.5551H59.1905V10.568H60.5024C60.821 10.568 61.1707 10.6326 61.1707 11.0454C61.1706 11.4712 60.8395 11.5551 60.4836 11.5551Z" fill="#016FD0"/>
<path d="M57.4542 10.568V9.62622H53.9873V14.0971H57.4542V13.1745H55.0242V12.2842H57.3855V11.3745H55.0242V10.568H57.4542Z" fill="#016FD0"/>
<path d="M53.2195 14.0971V9.62622H51.4953L50.2648 12.6584L48.9091 9.62622H47.2163V13.8648L45.461 9.62622H43.9305L42.0752 14.0971H43.1935L43.5931 13.11H45.7483L46.1481 14.0971H48.2595V10.6003L49.7586 14.0971H50.6707L52.1699 10.6003V14.0971H53.2195ZM43.9617 12.1809L44.6613 10.4003L45.3798 12.1809H43.9617Z" fill="#016FD0"/>
<path d="M59.4412 17.3292H56.1493L54.8374 18.8L53.5568 17.3292H49.4028L49.3965 21.8H53.482L54.8124 20.3162L56.0867 21.8H58.0982L58.1044 20.2969C59.285 20.2969 61.1841 20.5936 61.1841 18.7937C61.1841 17.6774 60.4157 17.3292 59.4412 17.3292ZM52.9571 20.8581H50.4209V19.9678H52.6885V19.0582H50.4209V18.2517H53.0258L54.144 19.555L52.9571 20.8581ZM57.0674 21.3872L55.4871 19.5743L57.0674 17.8065V21.3872ZM59.4288 19.3873H58.1044V18.2517H59.4474C59.7973 18.2517 60.0847 18.4001 60.0847 18.7938C60.0847 19.2065 59.7973 19.3873 59.4288 19.3873Z" fill="#016FD0"/>
<path d="M64.4756 11.8971C64.4756 13.3293 65.1127 14.0906 66.5369 14.0906H67.7365L68.136 13.1036H70.2787L70.6909 14.0906H72.7962V10.7422L74.7451 14.0906H76.2195V9.63919H75.1636V12.7424L73.3458 9.63919H71.7654V13.8584L70.0227 9.63919H68.4734L67.0054 13.1552H66.5432C65.7123 13.1552 65.5374 12.6326 65.5374 11.8713C65.5374 10.3358 66.5181 10.581 67.605 10.6003V9.61963H66.5992C65.1315 9.61963 64.4756 10.3938 64.4756 11.8971ZM69.2294 10.4003L69.9289 12.1809H68.5047L69.2294 10.4003Z" fill="#016FD0"/>
<path d="M72.4905 20.8391H70.4792L70.4729 21.7939H72.4845C73.409 21.7939 74.1211 21.4326 74.1211 20.3746C74.1211 18.2326 71.4413 19.652 71.4413 18.6776C71.4413 18.3165 71.7473 18.2649 72.0159 18.2649H73.915V17.3229H71.8411C71.0415 17.3229 70.373 17.7488 70.373 18.6583C70.373 20.7874 73.0403 19.4649 73.0403 20.4262C73.0342 20.7746 72.7466 20.8391 72.4905 20.8391Z" fill="#016FD0"/>
<path d="M65.8379 18.5357C65.8379 17.4776 64.9572 17.3292 64.1452 17.3292H61.6838L61.6777 21.8H62.7147L62.7207 20.1679H63.8203C64.5074 20.1679 64.7448 20.297 64.7448 21.0582L64.7385 21.8001H65.7755L65.7818 20.9098C65.7818 20.3356 65.6693 19.9356 65.0945 19.7227C65.5756 19.5227 65.8318 19.026 65.8379 18.5357ZM64.0139 19.2582H62.7207V18.2517H64.0327C64.3513 18.2517 64.7011 18.3164 64.7011 18.7292C64.701 19.1744 64.3638 19.2582 64.0139 19.2582Z" fill="#016FD0"/>
<path d="M69.8539 18.2517V17.3292H66.4056L66.3994 21.8H69.8477L69.8539 20.8774L67.4426 20.8581V19.9678H69.8101V19.0582H67.4489V18.2517H69.8539Z" fill="#016FD0"/>
<path d="M76.0514 18.271H77.9316V17.3292H75.8763C75.0767 17.3292 74.3896 17.755 74.3896 18.6647C74.3896 20.7937 77.0569 19.4906 77.0569 20.4324C77.0569 20.7614 76.7884 20.8453 76.5323 20.8453H74.5333L74.5271 21.8H76.526C77.0508 21.8 77.6255 21.6838 77.9316 21.2259V19.5612C77.2755 18.671 75.4766 19.4774 75.4766 18.6904C75.4766 18.3163 75.7638 18.271 76.0514 18.271Z" fill="#016FD0"/>
</svg>
