<svg width="178" height="76" viewBox="0 0 178 76" fill="none" xmlns="http://www.w3.org/2000/svg">
<rect width="178" height="76" rx="16" fill="#F9944E"/>
<path d="M24.5625 29.7422V31.5H16.7812V30L20.4609 26.0547C20.8307 25.6432 21.1224 25.2812 21.3359 24.9688C21.5495 24.651 21.7031 24.3672 21.7969 24.1172C21.8958 23.862 21.9453 23.6198 21.9453 23.3906C21.9453 23.0469 21.888 22.7526 21.7734 22.5078C21.6589 22.2578 21.4896 22.0651 21.2656 21.9297C21.0469 21.7943 20.776 21.7266 20.4531 21.7266C20.1094 21.7266 19.8125 21.8099 19.5625 21.9766C19.3177 22.1432 19.1302 22.375 19 22.6719C18.875 22.9688 18.8125 23.3047 18.8125 23.6797H16.5547C16.5547 23.0026 16.7161 22.3828 17.0391 21.8203C17.362 21.2526 17.8177 20.8021 18.4062 20.4688C18.9948 20.1302 19.6927 19.9609 20.5 19.9609C21.2969 19.9609 21.9688 20.0911 22.5156 20.3516C23.0677 20.6068 23.4844 20.9766 23.7656 21.4609C24.0521 21.9401 24.1953 22.513 24.1953 23.1797C24.1953 23.5547 24.1354 23.9219 24.0156 24.2812C23.8958 24.6354 23.724 24.9896 23.5 25.3438C23.2812 25.6927 23.0156 26.0469 22.7031 26.4062C22.3906 26.7656 22.0443 27.138 21.6641 27.5234L19.6875 29.7422H24.5625ZM33.75 29.7422V31.5H25.9688V30L29.6484 26.0547C30.0182 25.6432 30.3099 25.2812 30.5234 24.9688C30.737 24.651 30.8906 24.3672 30.9844 24.1172C31.0833 23.862 31.1328 23.6198 31.1328 23.3906C31.1328 23.0469 31.0755 22.7526 30.9609 22.5078C30.8464 22.2578 30.6771 22.0651 30.4531 21.9297C30.2344 21.7943 29.9635 21.7266 29.6406 21.7266C29.2969 21.7266 29 21.8099 28.75 21.9766C28.5052 22.1432 28.3177 22.375 28.1875 22.6719C28.0625 22.9688 28 23.3047 28 23.6797H25.7422C25.7422 23.0026 25.9036 22.3828 26.2266 21.8203C26.5495 21.2526 27.0052 20.8021 27.5938 20.4688C28.1823 20.1302 28.8802 19.9609 29.6875 19.9609C30.4844 19.9609 31.1562 20.0911 31.7031 20.3516C32.2552 20.6068 32.6719 20.9766 32.9531 21.4609C33.2396 21.9401 33.3828 22.513 33.3828 23.1797C33.3828 23.5547 33.3229 23.9219 33.2031 24.2812C33.0833 24.6354 32.9115 24.9896 32.6875 25.3438C32.4688 25.6927 32.2031 26.0469 31.8906 26.4062C31.5781 26.7656 31.2318 27.138 30.8516 27.5234L28.875 29.7422H33.75ZM46.7969 24.8125V26.7812C46.7969 27.6354 46.7057 28.3724 46.5234 28.9922C46.3411 29.6068 46.0781 30.112 45.7344 30.5078C45.3958 30.8984 44.9922 31.1875 44.5234 31.375C44.0547 31.5625 43.5339 31.6562 42.9609 31.6562C42.5026 31.6562 42.0755 31.599 41.6797 31.4844C41.2839 31.3646 40.9271 31.1797 40.6094 30.9297C40.2969 30.6797 40.026 30.3646 39.7969 29.9844C39.5729 29.599 39.401 29.1406 39.2812 28.6094C39.1615 28.0781 39.1016 27.4688 39.1016 26.7812V24.8125C39.1016 23.9583 39.1927 23.2266 39.375 22.6172C39.5625 22.0026 39.8255 21.5 40.1641 21.1094C40.5078 20.7188 40.9141 20.4323 41.3828 20.25C41.8516 20.0625 42.3724 19.9688 42.9453 19.9688C43.4036 19.9688 43.8281 20.0286 44.2188 20.1484C44.6146 20.263 44.9714 20.4427 45.2891 20.6875C45.6068 20.9323 45.8776 21.2474 46.1016 21.6328C46.3255 22.013 46.4974 22.4688 46.6172 23C46.737 23.526 46.7969 24.1302 46.7969 24.8125ZM44.5391 27.0781V24.5078C44.5391 24.0964 44.5156 23.737 44.4688 23.4297C44.4271 23.1224 44.362 22.862 44.2734 22.6484C44.1849 22.4297 44.0755 22.2526 43.9453 22.1172C43.8151 21.9818 43.6667 21.8828 43.5 21.8203C43.3333 21.7578 43.1484 21.7266 42.9453 21.7266C42.6901 21.7266 42.4635 21.776 42.2656 21.875C42.0729 21.974 41.9089 22.1328 41.7734 22.3516C41.638 22.5651 41.5339 22.8516 41.4609 23.2109C41.3932 23.5651 41.3594 23.9974 41.3594 24.5078V27.0781C41.3594 27.4896 41.3802 27.8516 41.4219 28.1641C41.4688 28.4766 41.5365 28.7448 41.625 28.9688C41.7188 29.1875 41.8281 29.3672 41.9531 29.5078C42.0833 29.6432 42.2318 29.7422 42.3984 29.8047C42.5703 29.8672 42.7578 29.8984 42.9609 29.8984C43.2109 29.8984 43.4323 29.849 43.625 29.75C43.8229 29.6458 43.9896 29.4844 44.125 29.2656C44.2656 29.0417 44.3698 28.75 44.4375 28.3906C44.5052 28.0312 44.5391 27.5938 44.5391 27.0781ZM55.9844 24.8125V26.7812C55.9844 27.6354 55.8932 28.3724 55.7109 28.9922C55.5286 29.6068 55.2656 30.112 54.9219 30.5078C54.5833 30.8984 54.1797 31.1875 53.7109 31.375C53.2422 31.5625 52.7214 31.6562 52.1484 31.6562C51.6901 31.6562 51.263 31.599 50.8672 31.4844C50.4714 31.3646 50.1146 31.1797 49.7969 30.9297C49.4844 30.6797 49.2135 30.3646 48.9844 29.9844C48.7604 29.599 48.5885 29.1406 48.4688 28.6094C48.349 28.0781 48.2891 27.4688 48.2891 26.7812V24.8125C48.2891 23.9583 48.3802 23.2266 48.5625 22.6172C48.75 22.0026 49.013 21.5 49.3516 21.1094C49.6953 20.7188 50.1016 20.4323 50.5703 20.25C51.0391 20.0625 51.5599 19.9688 52.1328 19.9688C52.5911 19.9688 53.0156 20.0286 53.4062 20.1484C53.8021 20.263 54.1589 20.4427 54.4766 20.6875C54.7943 20.9323 55.0651 21.2474 55.2891 21.6328C55.513 22.013 55.6849 22.4688 55.8047 23C55.9245 23.526 55.9844 24.1302 55.9844 24.8125ZM53.7266 27.0781V24.5078C53.7266 24.0964 53.7031 23.737 53.6562 23.4297C53.6146 23.1224 53.5495 22.862 53.4609 22.6484C53.3724 22.4297 53.263 22.2526 53.1328 22.1172C53.0026 21.9818 52.8542 21.8828 52.6875 21.8203C52.5208 21.7578 52.3359 21.7266 52.1328 21.7266C51.8776 21.7266 51.651 21.776 51.4531 21.875C51.2604 21.974 51.0964 22.1328 50.9609 22.3516C50.8255 22.5651 50.7214 22.8516 50.6484 23.2109C50.5807 23.5651 50.5469 23.9974 50.5469 24.5078V27.0781C50.5469 27.4896 50.5677 27.8516 50.6094 28.1641C50.6562 28.4766 50.724 28.7448 50.8125 28.9688C50.9062 29.1875 51.0156 29.3672 51.1406 29.5078C51.2708 29.6432 51.4193 29.7422 51.5859 29.8047C51.7578 29.8672 51.9453 29.8984 52.1484 29.8984C52.3984 29.8984 52.6198 29.849 52.8125 29.75C53.0104 29.6458 53.1771 29.4844 53.3125 29.2656C53.4531 29.0417 53.5573 28.75 53.625 28.3906C53.6927 28.0312 53.7266 27.5938 53.7266 27.0781ZM65.1719 24.8125V26.7812C65.1719 27.6354 65.0807 28.3724 64.8984 28.9922C64.7161 29.6068 64.4531 30.112 64.1094 30.5078C63.7708 30.8984 63.3672 31.1875 62.8984 31.375C62.4297 31.5625 61.9089 31.6562 61.3359 31.6562C60.8776 31.6562 60.4505 31.599 60.0547 31.4844C59.6589 31.3646 59.3021 31.1797 58.9844 30.9297C58.6719 30.6797 58.401 30.3646 58.1719 29.9844C57.9479 29.599 57.776 29.1406 57.6562 28.6094C57.5365 28.0781 57.4766 27.4688 57.4766 26.7812V24.8125C57.4766 23.9583 57.5677 23.2266 57.75 22.6172C57.9375 22.0026 58.2005 21.5 58.5391 21.1094C58.8828 20.7188 59.2891 20.4323 59.7578 20.25C60.2266 20.0625 60.7474 19.9688 61.3203 19.9688C61.7786 19.9688 62.2031 20.0286 62.5938 20.1484C62.9896 20.263 63.3464 20.4427 63.6641 20.6875C63.9818 20.9323 64.2526 21.2474 64.4766 21.6328C64.7005 22.013 64.8724 22.4688 64.9922 23C65.112 23.526 65.1719 24.1302 65.1719 24.8125ZM62.9141 27.0781V24.5078C62.9141 24.0964 62.8906 23.737 62.8438 23.4297C62.8021 23.1224 62.737 22.862 62.6484 22.6484C62.5599 22.4297 62.4505 22.2526 62.3203 22.1172C62.1901 21.9818 62.0417 21.8828 61.875 21.8203C61.7083 21.7578 61.5234 21.7266 61.3203 21.7266C61.0651 21.7266 60.8385 21.776 60.6406 21.875C60.4479 21.974 60.2839 22.1328 60.1484 22.3516C60.013 22.5651 59.9089 22.8516 59.8359 23.2109C59.7682 23.5651 59.7344 23.9974 59.7344 24.5078V27.0781C59.7344 27.4896 59.7552 27.8516 59.7969 28.1641C59.8438 28.4766 59.9115 28.7448 60 28.9688C60.0938 29.1875 60.2031 29.3672 60.3281 29.5078C60.4583 29.6432 60.6068 29.7422 60.7734 29.8047C60.9453 29.8672 61.1328 29.8984 61.3359 29.8984C61.5859 29.8984 61.8073 29.849 62 29.75C62.1979 29.6458 62.3646 29.4844 62.5 29.2656C62.6406 29.0417 62.7448 28.75 62.8125 28.3906C62.8802 28.0312 62.9141 27.5938 62.9141 27.0781ZM74.1562 25.1641V27.125H66.3594V25.1641H74.1562ZM71.3281 22.0781V30.3594H69.1953V22.0781H71.3281Z" fill="white"/>
<g filter="url(#filter0_d_2_5279)">
<path d="M112 24.5837L107.854 23.9501L106 20L104.146 23.9501L100 24.5837L103 27.6584L102.292 32L106 29.9501L109.708 32L109 27.6584L112 24.5837Z" fill="#FFC107"/>
</g>
<g filter="url(#filter1_d_2_5279)">
<path d="M124 24.5837L119.854 23.9501L118 20L116.146 23.9501L112 24.5837L115 27.6584L114.292 32L118 29.9501L121.708 32L121 27.6584L124 24.5837Z" fill="#FFC107"/>
</g>
<g filter="url(#filter2_d_2_5279)">
<path d="M136 24.5837L131.854 23.9501L130 20L128.146 23.9501L124 24.5837L127 27.6584L126.292 32L130 29.9501L133.708 32L133 27.6584L136 24.5837Z" fill="#FFC107"/>
</g>
<g filter="url(#filter3_d_2_5279)">
<path d="M148 24.5837L143.854 23.9501L142 20L140.146 23.9501L136 24.5837L139 27.6584L138.292 32L142 29.9501L145.708 32L145 27.6584L148 24.5837Z" fill="#FFC107"/>
</g>
<g filter="url(#filter4_d_2_5279)">
<path d="M160 24.5837L155.854 23.9501L154 20L152.146 23.9501L148 24.5837L151 27.6584L150.292 32L154 29.9501L157.708 32L157 27.6584L160 24.5837Z" fill="#FFC107"/>
</g>
<path d="M17.1621 44.0469L20.1768 49.4678L23.2188 44.0469H24.1895L20.6006 50.2471V54H19.7598V50.2471L16.1641 44.0469H17.1621ZM24.5518 50.418V50.1924C24.5518 49.6546 24.6292 49.1579 24.7842 48.7021C24.9391 48.2464 25.1602 47.8522 25.4473 47.5195C25.7389 47.1868 26.0876 46.9294 26.4932 46.7471C26.8988 46.5602 27.3499 46.4668 27.8467 46.4668C28.348 46.4668 28.8014 46.5602 29.207 46.7471C29.6126 46.9294 29.9613 47.1868 30.2529 47.5195C30.5446 47.8522 30.7679 48.2464 30.9229 48.7021C31.0778 49.1579 31.1553 49.6546 31.1553 50.1924V50.418C31.1553 50.9557 31.0778 51.4525 30.9229 51.9082C30.7679 52.3594 30.5446 52.7513 30.2529 53.084C29.9658 53.4167 29.6195 53.6764 29.2139 53.8633C28.8083 54.0456 28.3571 54.1367 27.8604 54.1367C27.359 54.1367 26.9056 54.0456 26.5 53.8633C26.0944 53.6764 25.7458 53.4167 25.4541 53.084C25.1624 52.7513 24.9391 52.3594 24.7842 51.9082C24.6292 51.4525 24.5518 50.9557 24.5518 50.418ZM25.3652 50.1924V50.418C25.3652 50.8236 25.4199 51.2087 25.5293 51.5732C25.6387 51.9333 25.7982 52.2546 26.0078 52.5371C26.2174 52.8151 26.4772 53.0339 26.7871 53.1934C27.097 53.3529 27.4548 53.4326 27.8604 53.4326C28.2614 53.4326 28.6146 53.3529 28.9199 53.1934C29.2298 53.0339 29.4896 52.8151 29.6992 52.5371C29.9089 52.2546 30.0661 51.9333 30.1709 51.5732C30.2803 51.2087 30.335 50.8236 30.335 50.418V50.1924C30.335 49.7913 30.2803 49.4108 30.1709 49.0508C30.0661 48.6908 29.9066 48.3695 29.6924 48.0869C29.4827 47.8044 29.223 47.5811 28.9131 47.417C28.6032 47.2529 28.2477 47.1709 27.8467 47.1709C27.4456 47.1709 27.0902 47.2529 26.7803 47.417C26.4749 47.5811 26.2152 47.8044 26.001 48.0869C25.7913 48.3695 25.6318 48.6908 25.5225 49.0508C25.4176 49.4108 25.3652 49.7913 25.3652 50.1924ZM35.6465 46.6035V47.2734H31.9414V46.6035H35.6465ZM33.3018 44.7031H34.1152V52.2021C34.1152 52.5439 34.1608 52.8014 34.252 52.9746C34.3431 53.1478 34.4616 53.264 34.6074 53.3232C34.7533 53.3825 34.9105 53.4121 35.0791 53.4121C35.2021 53.4121 35.3206 53.4053 35.4346 53.3916C35.5485 53.3734 35.651 53.3551 35.7422 53.3369L35.7764 54.0273C35.6761 54.0592 35.5462 54.0843 35.3867 54.1025C35.2272 54.1253 35.0677 54.1367 34.9082 54.1367C34.5938 54.1367 34.3158 54.0798 34.0742 53.9658C33.8327 53.8473 33.6436 53.6468 33.5068 53.3643C33.3701 53.0771 33.3018 52.6875 33.3018 52.1953V44.7031ZM38.1689 48.0254V56.8438H37.3486V46.6035H38.1143L38.1689 48.0254ZM43.3096 50.2334V50.377C43.3096 50.9284 43.2458 51.4342 43.1182 51.8945C42.9906 52.3548 42.806 52.7536 42.5645 53.0908C42.3275 53.4235 42.0335 53.681 41.6826 53.8633C41.3317 54.0456 40.9329 54.1367 40.4863 54.1367C40.0443 54.1367 39.6501 54.0684 39.3037 53.9316C38.9574 53.7949 38.6589 53.6012 38.4082 53.3506C38.1621 53.0954 37.9639 52.7992 37.8135 52.4619C37.6676 52.1201 37.5651 51.7464 37.5059 51.3408V49.4473C37.5742 49.0007 37.6859 48.5951 37.8408 48.2305C37.9958 47.8659 38.194 47.5514 38.4355 47.2871C38.6816 47.0228 38.9733 46.82 39.3105 46.6787C39.6478 46.5374 40.0329 46.4668 40.4658 46.4668C40.917 46.4668 41.318 46.5557 41.6689 46.7334C42.0244 46.9066 42.3229 47.1595 42.5645 47.4922C42.8105 47.8203 42.9951 48.2168 43.1182 48.6816C43.2458 49.1419 43.3096 49.6592 43.3096 50.2334ZM42.4893 50.377V50.2334C42.4893 49.8005 42.4437 49.3994 42.3525 49.0303C42.266 48.6611 42.1315 48.3398 41.9492 48.0664C41.7715 47.7884 41.5436 47.5719 41.2656 47.417C40.9922 47.262 40.6663 47.1846 40.2881 47.1846C39.8962 47.1846 39.5612 47.2507 39.2832 47.3828C39.0098 47.5104 38.7819 47.6813 38.5996 47.8955C38.4173 48.1051 38.2738 48.3353 38.1689 48.5859C38.0641 48.8366 37.9867 49.0827 37.9365 49.3242V51.5049C38.0231 51.8512 38.1621 52.1725 38.3535 52.4688C38.5449 52.7604 38.8001 52.9951 39.1191 53.1729C39.4427 53.346 39.8369 53.4326 40.3018 53.4326C40.6755 53.4326 40.999 53.3551 41.2725 53.2002C41.5459 53.0452 41.7715 52.8288 41.9492 52.5508C42.1315 52.2728 42.266 51.9492 42.3525 51.5801C42.4437 51.2109 42.4893 50.8099 42.4893 50.377ZM44.6768 50.418V50.1924C44.6768 49.6546 44.7542 49.1579 44.9092 48.7021C45.0641 48.2464 45.2852 47.8522 45.5723 47.5195C45.8639 47.1868 46.2126 46.9294 46.6182 46.7471C47.0238 46.5602 47.4749 46.4668 47.9717 46.4668C48.473 46.4668 48.9264 46.5602 49.332 46.7471C49.7376 46.9294 50.0863 47.1868 50.3779 47.5195C50.6696 47.8522 50.8929 48.2464 51.0479 48.7021C51.2028 49.1579 51.2803 49.6546 51.2803 50.1924V50.418C51.2803 50.9557 51.2028 51.4525 51.0479 51.9082C50.8929 52.3594 50.6696 52.7513 50.3779 53.084C50.0908 53.4167 49.7445 53.6764 49.3389 53.8633C48.9333 54.0456 48.4821 54.1367 47.9854 54.1367C47.484 54.1367 47.0306 54.0456 46.625 53.8633C46.2194 53.6764 45.8708 53.4167 45.5791 53.084C45.2874 52.7513 45.0641 52.3594 44.9092 51.9082C44.7542 51.4525 44.6768 50.9557 44.6768 50.418ZM45.4902 50.1924V50.418C45.4902 50.8236 45.5449 51.2087 45.6543 51.5732C45.7637 51.9333 45.9232 52.2546 46.1328 52.5371C46.3424 52.8151 46.6022 53.0339 46.9121 53.1934C47.222 53.3529 47.5798 53.4326 47.9854 53.4326C48.3864 53.4326 48.7396 53.3529 49.0449 53.1934C49.3548 53.0339 49.6146 52.8151 49.8242 52.5371C50.0339 52.2546 50.1911 51.9333 50.2959 51.5732C50.4053 51.2087 50.46 50.8236 50.46 50.418V50.1924C50.46 49.7913 50.4053 49.4108 50.2959 49.0508C50.1911 48.6908 50.0316 48.3695 49.8174 48.0869C49.6077 47.8044 49.348 47.5811 49.0381 47.417C48.7282 47.2529 48.3727 47.1709 47.9717 47.1709C47.5706 47.1709 47.2152 47.2529 46.9053 47.417C46.5999 47.5811 46.3402 47.8044 46.126 48.0869C45.9163 48.3695 45.7568 48.6908 45.6475 49.0508C45.5426 49.4108 45.4902 49.7913 45.4902 50.1924ZM62.7852 50.8965H63.626C63.5576 51.5664 63.373 52.1452 63.0723 52.6328C62.7715 53.1159 62.3613 53.4873 61.8418 53.7471C61.3223 54.0068 60.6956 54.1367 59.9619 54.1367C59.3968 54.1367 58.8841 54.0296 58.4238 53.8154C57.9681 53.6012 57.5762 53.2982 57.248 52.9062C56.9199 52.5098 56.667 52.0358 56.4893 51.4844C56.3115 50.9329 56.2227 50.32 56.2227 49.6455V48.4014C56.2227 47.7269 56.3115 47.1162 56.4893 46.5693C56.667 46.0179 56.9222 45.5439 57.2549 45.1475C57.5876 44.751 57.9863 44.4456 58.4512 44.2314C58.916 44.0173 59.4401 43.9102 60.0234 43.9102C60.7298 43.9102 61.3405 44.04 61.8555 44.2998C62.3704 44.555 62.776 44.9242 63.0723 45.4072C63.373 45.8903 63.5576 46.4736 63.626 47.1572H62.7852C62.7214 46.6195 62.5801 46.1637 62.3613 45.79C62.1426 45.4163 61.8395 45.1315 61.4521 44.9355C61.0693 44.735 60.5931 44.6348 60.0234 44.6348C59.5586 44.6348 59.1439 44.7236 58.7793 44.9014C58.4147 45.0791 58.1048 45.3343 57.8496 45.667C57.5944 45.9951 57.3984 46.3893 57.2617 46.8496C57.1296 47.3099 57.0635 47.8226 57.0635 48.3877V49.6455C57.0635 50.1924 57.1273 50.696 57.2549 51.1562C57.3825 51.6165 57.5693 52.0153 57.8154 52.3525C58.0661 52.6898 58.3714 52.9518 58.7314 53.1387C59.0915 53.3255 59.5016 53.4189 59.9619 53.4189C60.5498 53.4189 61.0397 53.3255 61.4316 53.1387C61.8281 52.9473 62.1357 52.6647 62.3545 52.291C62.5732 51.9173 62.7168 51.4525 62.7852 50.8965ZM68.3428 54.1367C67.8597 54.1367 67.4154 54.0479 67.0098 53.8701C66.6087 53.6924 66.2578 53.4417 65.957 53.1182C65.6608 52.7946 65.4307 52.4118 65.2666 51.9697C65.1071 51.5231 65.0273 51.0355 65.0273 50.5068V50.2129C65.0273 49.6432 65.1117 49.1283 65.2803 48.668C65.4489 48.2077 65.6813 47.8135 65.9775 47.4854C66.2738 47.1572 66.611 46.9066 66.9893 46.7334C67.3721 46.5557 67.7731 46.4668 68.1924 46.4668C68.6618 46.4668 69.0788 46.5511 69.4434 46.7197C69.8079 46.8838 70.1133 47.1185 70.3594 47.4238C70.61 47.7246 70.7992 48.0824 70.9268 48.4971C71.0544 48.9072 71.1182 49.3607 71.1182 49.8574V50.3564H65.5195V49.6592H70.3047V49.5635C70.2956 49.1488 70.2113 48.7614 70.0518 48.4014C69.8968 48.0368 69.6644 47.7406 69.3545 47.5127C69.0446 47.2848 68.6572 47.1709 68.1924 47.1709C67.846 47.1709 67.527 47.2438 67.2354 47.3896C66.9482 47.5355 66.6999 47.7451 66.4902 48.0186C66.2852 48.2874 66.1257 48.6087 66.0117 48.9824C65.9023 49.3516 65.8477 49.7617 65.8477 50.2129V50.5068C65.8477 50.917 65.9069 51.2998 66.0254 51.6553C66.1484 52.0062 66.3216 52.3161 66.5449 52.585C66.7728 52.8538 67.0417 53.0635 67.3516 53.2139C67.6615 53.3643 68.0033 53.4395 68.377 53.4395C68.8145 53.4395 69.2018 53.3597 69.5391 53.2002C69.8763 53.0361 70.1794 52.7786 70.4482 52.4277L70.9609 52.8242C70.8014 53.0612 70.6009 53.2799 70.3594 53.4805C70.1224 53.681 69.8376 53.8405 69.5049 53.959C69.1722 54.0775 68.7848 54.1367 68.3428 54.1367ZM73.5449 47.8271V54H72.7314V46.6035H73.5244L73.5449 47.8271ZM76.1631 46.5488L76.1426 47.3008C76.0514 47.2871 75.9626 47.2757 75.876 47.2666C75.7894 47.2575 75.696 47.2529 75.5957 47.2529C75.2402 47.2529 74.9281 47.319 74.6592 47.4512C74.3949 47.5788 74.1715 47.7588 73.9893 47.9912C73.807 48.2191 73.668 48.488 73.5723 48.7979C73.4766 49.1032 73.4219 49.4313 73.4082 49.7822L73.1074 49.8984C73.1074 49.4154 73.1576 48.9665 73.2578 48.5518C73.3581 48.137 73.5107 47.7747 73.7158 47.4648C73.9255 47.1504 74.1875 46.9066 74.502 46.7334C74.821 46.5557 75.1947 46.4668 75.623 46.4668C75.7279 46.4668 75.8304 46.4759 75.9307 46.4941C76.0355 46.5078 76.113 46.526 76.1631 46.5488ZM80.5859 46.6035V47.2734H76.8809V46.6035H80.5859ZM78.2412 44.7031H79.0547V52.2021C79.0547 52.5439 79.1003 52.8014 79.1914 52.9746C79.2826 53.1478 79.401 53.264 79.5469 53.3232C79.6927 53.3825 79.8499 53.4121 80.0186 53.4121C80.1416 53.4121 80.2601 53.4053 80.374 53.3916C80.488 53.3734 80.5905 53.3551 80.6816 53.3369L80.7158 54.0273C80.6156 54.0592 80.4857 54.0843 80.3262 54.1025C80.1667 54.1253 80.0072 54.1367 79.8477 54.1367C79.5332 54.1367 79.2552 54.0798 79.0137 53.9658C78.7721 53.8473 78.583 53.6468 78.4463 53.3643C78.3096 53.0771 78.2412 52.6875 78.2412 52.1953V44.7031ZM83.2109 46.6035V54H82.3975V46.6035H83.2109ZM82.2539 44.4639C82.2539 44.3089 82.3018 44.179 82.3975 44.0742C82.4977 43.9648 82.6344 43.9102 82.8076 43.9102C82.9808 43.9102 83.1175 43.9648 83.2178 44.0742C83.3226 44.179 83.375 44.3089 83.375 44.4639C83.375 44.6143 83.3226 44.7441 83.2178 44.8535C83.1175 44.9583 82.9808 45.0107 82.8076 45.0107C82.6344 45.0107 82.4977 44.9583 82.3975 44.8535C82.3018 44.7441 82.2539 44.6143 82.2539 44.4639ZM86.752 54H85.9385V45.8242C85.9385 45.291 86.0365 44.8421 86.2324 44.4775C86.4329 44.1084 86.7155 43.8304 87.0801 43.6436C87.4492 43.4521 87.8867 43.3564 88.3926 43.3564C88.6979 43.3564 89.0078 43.3906 89.3223 43.459C89.6367 43.5273 89.9535 43.6276 90.2725 43.7598L90.1426 44.4707C89.901 44.3659 89.6481 44.2793 89.3838 44.2109C89.1195 44.1426 88.805 44.1084 88.4404 44.1084C87.8844 44.1084 87.4629 44.2542 87.1758 44.5459C86.8932 44.8376 86.752 45.2637 86.752 45.8242V54ZM88.4814 46.6035V47.2734H84.708V46.6035H88.4814ZM90.7168 46.6035V54H89.9033V46.6035H90.7168ZM95.8369 54.1367C95.3538 54.1367 94.9095 54.0479 94.5039 53.8701C94.1029 53.6924 93.752 53.4417 93.4512 53.1182C93.1549 52.7946 92.9248 52.4118 92.7607 51.9697C92.6012 51.5231 92.5215 51.0355 92.5215 50.5068V50.2129C92.5215 49.6432 92.6058 49.1283 92.7744 48.668C92.943 48.2077 93.1755 47.8135 93.4717 47.4854C93.7679 47.1572 94.1051 46.9066 94.4834 46.7334C94.8662 46.5557 95.2673 46.4668 95.6865 46.4668C96.1559 46.4668 96.5729 46.5511 96.9375 46.7197C97.3021 46.8838 97.6074 47.1185 97.8535 47.4238C98.1042 47.7246 98.2933 48.0824 98.4209 48.4971C98.5485 48.9072 98.6123 49.3607 98.6123 49.8574V50.3564H93.0137V49.6592H97.7988V49.5635C97.7897 49.1488 97.7054 48.7614 97.5459 48.4014C97.391 48.0368 97.1585 47.7406 96.8486 47.5127C96.5387 47.2848 96.1514 47.1709 95.6865 47.1709C95.3402 47.1709 95.0212 47.2438 94.7295 47.3896C94.4424 47.5355 94.194 47.7451 93.9844 48.0186C93.7793 48.2874 93.6198 48.6087 93.5059 48.9824C93.3965 49.3516 93.3418 49.7617 93.3418 50.2129V50.5068C93.3418 50.917 93.401 51.2998 93.5195 51.6553C93.6426 52.0062 93.8158 52.3161 94.0391 52.585C94.2669 52.8538 94.5358 53.0635 94.8457 53.2139C95.1556 53.3643 95.4974 53.4395 95.8711 53.4395C96.3086 53.4395 96.696 53.3597 97.0332 53.2002C97.3704 53.0361 97.6735 52.7786 97.9424 52.4277L98.4551 52.8242C98.2956 53.0612 98.0951 53.2799 97.8535 53.4805C97.6165 53.681 97.3317 53.8405 96.999 53.959C96.6663 54.0775 96.279 54.1367 95.8369 54.1367ZM105.031 52.5645V43.5H105.852V54H105.086L105.031 52.5645ZM99.8975 50.377V50.2334C99.8975 49.6592 99.9635 49.1419 100.096 48.6816C100.228 48.2168 100.417 47.8203 100.663 47.4922C100.914 47.1595 101.215 46.9066 101.565 46.7334C101.916 46.5557 102.313 46.4668 102.755 46.4668C103.188 46.4668 103.571 46.5374 103.903 46.6787C104.236 46.82 104.521 47.0228 104.758 47.2871C104.999 47.5514 105.193 47.8659 105.339 48.2305C105.489 48.5951 105.599 49.0007 105.667 49.4473V51.2725C105.612 51.6917 105.512 52.0768 105.366 52.4277C105.22 52.7741 105.027 53.0771 104.785 53.3369C104.544 53.5921 104.252 53.7904 103.91 53.9316C103.573 54.0684 103.183 54.1367 102.741 54.1367C102.304 54.1367 101.91 54.0456 101.559 53.8633C101.208 53.681 100.909 53.4235 100.663 53.0908C100.417 52.7536 100.228 52.3548 100.096 51.8945C99.9635 51.4342 99.8975 50.9284 99.8975 50.377ZM100.718 50.2334V50.377C100.718 50.8099 100.761 51.2109 100.848 51.5801C100.934 51.9492 101.066 52.2705 101.244 52.5439C101.422 52.8174 101.647 53.0316 101.921 53.1865C102.194 53.3415 102.518 53.4189 102.892 53.4189C103.361 53.4189 103.755 53.3301 104.074 53.1523C104.393 52.9701 104.648 52.7308 104.84 52.4346C105.031 52.1338 105.17 51.8057 105.257 51.4502V49.3242C105.202 49.0827 105.122 48.8366 105.018 48.5859C104.913 48.3353 104.769 48.1051 104.587 47.8955C104.409 47.6813 104.181 47.5104 103.903 47.3828C103.63 47.2507 103.297 47.1846 102.905 47.1846C102.527 47.1846 102.201 47.262 101.928 47.417C101.654 47.5719 101.426 47.7884 101.244 48.0664C101.066 48.3398 100.934 48.6611 100.848 49.0303C100.761 49.3994 100.718 49.8005 100.718 50.2334ZM111.594 44.0469H114.827C115.515 44.0469 116.112 44.1585 116.618 44.3818C117.124 44.6051 117.514 44.9355 117.787 45.373C118.065 45.806 118.204 46.3392 118.204 46.9727C118.204 47.4421 118.104 47.8682 117.903 48.251C117.707 48.6338 117.436 48.9551 117.09 49.2148C116.743 49.4701 116.342 49.6455 115.887 49.7412L115.593 49.8506H112.141L112.127 49.1328H115.019C115.538 49.1328 115.971 49.0326 116.317 48.832C116.664 48.6315 116.924 48.3672 117.097 48.0391C117.274 47.7064 117.363 47.3509 117.363 46.9727C117.363 46.5215 117.265 46.1318 117.069 45.8037C116.878 45.471 116.593 45.2158 116.215 45.0381C115.837 44.8604 115.374 44.7715 114.827 44.7715H112.435V54H111.594V44.0469ZM117.739 54L115.162 49.5498L116.064 49.543L118.635 53.9111V54H117.739ZM123.181 54.1367C122.698 54.1367 122.253 54.0479 121.848 53.8701C121.447 53.6924 121.096 53.4417 120.795 53.1182C120.499 52.7946 120.269 52.4118 120.104 51.9697C119.945 51.5231 119.865 51.0355 119.865 50.5068V50.2129C119.865 49.6432 119.95 49.1283 120.118 48.668C120.287 48.2077 120.519 47.8135 120.815 47.4854C121.112 47.1572 121.449 46.9066 121.827 46.7334C122.21 46.5557 122.611 46.4668 123.03 46.4668C123.5 46.4668 123.917 46.5511 124.281 46.7197C124.646 46.8838 124.951 47.1185 125.197 47.4238C125.448 47.7246 125.637 48.0824 125.765 48.4971C125.892 48.9072 125.956 49.3607 125.956 49.8574V50.3564H120.357V49.6592H125.143V49.5635C125.133 49.1488 125.049 48.7614 124.89 48.4014C124.735 48.0368 124.502 47.7406 124.192 47.5127C123.882 47.2848 123.495 47.1709 123.03 47.1709C122.684 47.1709 122.365 47.2438 122.073 47.3896C121.786 47.5355 121.538 47.7451 121.328 48.0186C121.123 48.2874 120.964 48.6087 120.85 48.9824C120.74 49.3516 120.686 49.7617 120.686 50.2129V50.5068C120.686 50.917 120.745 51.2998 120.863 51.6553C120.986 52.0062 121.16 52.3161 121.383 52.585C121.611 52.8538 121.88 53.0635 122.189 53.2139C122.499 53.3643 122.841 53.4395 123.215 53.4395C123.652 53.4395 124.04 53.3597 124.377 53.2002C124.714 53.0361 125.017 52.7786 125.286 52.4277L125.799 52.8242C125.639 53.0612 125.439 53.2799 125.197 53.4805C124.96 53.681 124.675 53.8405 124.343 53.959C124.01 54.0775 123.623 54.1367 123.181 54.1367ZM129.654 53.2139L132.026 46.6035H132.867L130.099 54H129.504L129.654 53.2139ZM127.508 46.6035L129.907 53.2344L130.037 54H129.436L126.66 46.6035H127.508ZM135.123 46.6035V54H134.31V46.6035H135.123ZM134.166 44.4639C134.166 44.3089 134.214 44.179 134.31 44.0742C134.41 43.9648 134.547 43.9102 134.72 43.9102C134.893 43.9102 135.03 43.9648 135.13 44.0742C135.235 44.179 135.287 44.3089 135.287 44.4639C135.287 44.6143 135.235 44.7441 135.13 44.8535C135.03 44.9583 134.893 45.0107 134.72 45.0107C134.547 45.0107 134.41 44.9583 134.31 44.8535C134.214 44.7441 134.166 44.6143 134.166 44.4639ZM140.216 54.1367C139.733 54.1367 139.288 54.0479 138.883 53.8701C138.482 53.6924 138.131 53.4417 137.83 53.1182C137.534 52.7946 137.304 52.4118 137.14 51.9697C136.98 51.5231 136.9 51.0355 136.9 50.5068V50.2129C136.9 49.6432 136.985 49.1283 137.153 48.668C137.322 48.2077 137.554 47.8135 137.851 47.4854C138.147 47.1572 138.484 46.9066 138.862 46.7334C139.245 46.5557 139.646 46.4668 140.065 46.4668C140.535 46.4668 140.952 46.5511 141.316 46.7197C141.681 46.8838 141.986 47.1185 142.232 47.4238C142.483 47.7246 142.672 48.0824 142.8 48.4971C142.927 48.9072 142.991 49.3607 142.991 49.8574V50.3564H137.393V49.6592H142.178V49.5635C142.169 49.1488 142.084 48.7614 141.925 48.4014C141.77 48.0368 141.537 47.7406 141.228 47.5127C140.918 47.2848 140.53 47.1709 140.065 47.1709C139.719 47.1709 139.4 47.2438 139.108 47.3896C138.821 47.5355 138.573 47.7451 138.363 48.0186C138.158 48.2874 137.999 48.6087 137.885 48.9824C137.775 49.3516 137.721 49.7617 137.721 50.2129V50.5068C137.721 50.917 137.78 51.2998 137.898 51.6553C138.021 52.0062 138.195 52.3161 138.418 52.585C138.646 52.8538 138.915 53.0635 139.225 53.2139C139.535 53.3643 139.876 53.4395 140.25 53.4395C140.688 53.4395 141.075 53.3597 141.412 53.2002C141.749 53.0361 142.052 52.7786 142.321 52.4277L142.834 52.8242C142.674 53.0612 142.474 53.2799 142.232 53.4805C141.995 53.681 141.711 53.8405 141.378 53.959C141.045 54.0775 140.658 54.1367 140.216 54.1367ZM146.655 52.2705L148.439 46.6035H149.014L148.672 48.1279L146.806 54H146.231L146.655 52.2705ZM144.803 46.6035L146.368 52.3047L146.703 54H146.108L143.962 46.6035H144.803ZM151.235 52.2842L152.76 46.6035H153.601L151.454 54H150.866L151.235 52.2842ZM149.13 46.6035L150.887 52.2227L151.331 54H150.757L148.85 48.1211L148.528 46.6035H149.13ZM159.603 52.1133C159.603 51.9128 159.552 51.7145 159.452 51.5186C159.352 51.3226 159.158 51.1426 158.871 50.9785C158.589 50.8145 158.172 50.6755 157.62 50.5615C157.21 50.4704 156.843 50.3678 156.52 50.2539C156.201 50.14 155.932 50.0033 155.713 49.8438C155.494 49.6842 155.328 49.4928 155.214 49.2695C155.1 49.0462 155.043 48.7819 155.043 48.4766C155.043 48.2031 155.102 47.9456 155.221 47.7041C155.344 47.458 155.517 47.2438 155.74 47.0615C155.968 46.8747 156.242 46.7288 156.561 46.624C156.884 46.5192 157.246 46.4668 157.647 46.4668C158.217 46.4668 158.705 46.5648 159.11 46.7607C159.521 46.9521 159.833 47.2142 160.047 47.5469C160.266 47.8796 160.375 48.2555 160.375 48.6748H159.562C159.562 48.4196 159.486 48.1781 159.336 47.9502C159.19 47.7223 158.974 47.5355 158.687 47.3896C158.404 47.2438 158.058 47.1709 157.647 47.1709C157.224 47.1709 156.88 47.2347 156.615 47.3623C156.351 47.4899 156.157 47.6517 156.034 47.8477C155.916 48.0436 155.856 48.2464 155.856 48.4561C155.856 48.6201 155.882 48.7705 155.932 48.9072C155.986 49.0394 156.082 49.1624 156.219 49.2764C156.36 49.3903 156.561 49.4974 156.82 49.5977C157.08 49.6979 157.417 49.7959 157.832 49.8916C158.429 50.0238 158.917 50.1855 159.295 50.377C159.678 50.5638 159.96 50.7962 160.143 51.0742C160.325 51.3477 160.416 51.6803 160.416 52.0723C160.416 52.3776 160.352 52.6579 160.225 52.9131C160.097 53.1637 159.912 53.3802 159.671 53.5625C159.434 53.7448 159.147 53.8861 158.81 53.9863C158.477 54.0866 158.103 54.1367 157.688 54.1367C157.064 54.1367 156.535 54.0342 156.103 53.8291C155.674 53.6195 155.348 53.346 155.125 53.0088C154.906 52.667 154.797 52.3047 154.797 51.9219H155.61C155.638 52.3047 155.758 52.6077 155.973 52.8311C156.187 53.0498 156.449 53.2048 156.759 53.2959C157.073 53.387 157.383 53.4326 157.688 53.4326C158.108 53.4326 158.459 53.3711 158.741 53.248C159.024 53.125 159.238 52.9632 159.384 52.7627C159.53 52.5622 159.603 52.3457 159.603 52.1133Z" fill="white"/>
<defs>
<filter id="filter0_d_2_5279" x="92" y="16" width="28" height="28" filterUnits="userSpaceOnUse" color-interpolation-filters="sRGB">
<feFlood flood-opacity="0" result="BackgroundImageFix"/>
<feColorMatrix in="SourceAlpha" type="matrix" values="0 0 0 0 0 0 0 0 0 0 0 0 0 0 0 0 0 0 127 0" result="hardAlpha"/>
<feOffset dy="4"/>
<feGaussianBlur stdDeviation="4"/>
<feComposite in2="hardAlpha" operator="out"/>
<feColorMatrix type="matrix" values="0 0 0 0 0 0 0 0 0 0 0 0 0 0 0 0 0 0 0.2 0"/>
<feBlend mode="normal" in2="BackgroundImageFix" result="effect1_dropShadow_2_5279"/>
<feBlend mode="normal" in="SourceGraphic" in2="effect1_dropShadow_2_5279" result="shape"/>
</filter>
<filter id="filter1_d_2_5279" x="104" y="16" width="28" height="28" filterUnits="userSpaceOnUse" color-interpolation-filters="sRGB">
<feFlood flood-opacity="0" result="BackgroundImageFix"/>
<feColorMatrix in="SourceAlpha" type="matrix" values="0 0 0 0 0 0 0 0 0 0 0 0 0 0 0 0 0 0 127 0" result="hardAlpha"/>
<feOffset dy="4"/>
<feGaussianBlur stdDeviation="4"/>
<feComposite in2="hardAlpha" operator="out"/>
<feColorMatrix type="matrix" values="0 0 0 0 0 0 0 0 0 0 0 0 0 0 0 0 0 0 0.2 0"/>
<feBlend mode="normal" in2="BackgroundImageFix" result="effect1_dropShadow_2_5279"/>
<feBlend mode="normal" in="SourceGraphic" in2="effect1_dropShadow_2_5279" result="shape"/>
</filter>
<filter id="filter2_d_2_5279" x="116" y="16" width="28" height="28" filterUnits="userSpaceOnUse" color-interpolation-filters="sRGB">
<feFlood flood-opacity="0" result="BackgroundImageFix"/>
<feColorMatrix in="SourceAlpha" type="matrix" values="0 0 0 0 0 0 0 0 0 0 0 0 0 0 0 0 0 0 127 0" result="hardAlpha"/>
<feOffset dy="4"/>
<feGaussianBlur stdDeviation="4"/>
<feComposite in2="hardAlpha" operator="out"/>
<feColorMatrix type="matrix" values="0 0 0 0 0 0 0 0 0 0 0 0 0 0 0 0 0 0 0.2 0"/>
<feBlend mode="normal" in2="BackgroundImageFix" result="effect1_dropShadow_2_5279"/>
<feBlend mode="normal" in="SourceGraphic" in2="effect1_dropShadow_2_5279" result="shape"/>
</filter>
<filter id="filter3_d_2_5279" x="128" y="16" width="28" height="28" filterUnits="userSpaceOnUse" color-interpolation-filters="sRGB">
<feFlood flood-opacity="0" result="BackgroundImageFix"/>
<feColorMatrix in="SourceAlpha" type="matrix" values="0 0 0 0 0 0 0 0 0 0 0 0 0 0 0 0 0 0 127 0" result="hardAlpha"/>
<feOffset dy="4"/>
<feGaussianBlur stdDeviation="4"/>
<feComposite in2="hardAlpha" operator="out"/>
<feColorMatrix type="matrix" values="0 0 0 0 0 0 0 0 0 0 0 0 0 0 0 0 0 0 0.2 0"/>
<feBlend mode="normal" in2="BackgroundImageFix" result="effect1_dropShadow_2_5279"/>
<feBlend mode="normal" in="SourceGraphic" in2="effect1_dropShadow_2_5279" result="shape"/>
</filter>
<filter id="filter4_d_2_5279" x="140" y="16" width="28" height="28" filterUnits="userSpaceOnUse" color-interpolation-filters="sRGB">
<feFlood flood-opacity="0" result="BackgroundImageFix"/>
<feColorMatrix in="SourceAlpha" type="matrix" values="0 0 0 0 0 0 0 0 0 0 0 0 0 0 0 0 0 0 127 0" result="hardAlpha"/>
<feOffset dy="4"/>
<feGaussianBlur stdDeviation="4"/>
<feComposite in2="hardAlpha" operator="out"/>
<feColorMatrix type="matrix" values="0 0 0 0 0 0 0 0 0 0 0 0 0 0 0 0 0 0 0.2 0"/>
<feBlend mode="normal" in2="BackgroundImageFix" result="effect1_dropShadow_2_5279"/>
<feBlend mode="normal" in="SourceGraphic" in2="effect1_dropShadow_2_5279" result="shape"/>
</filter>
</defs>
</svg>
