<svg width="24" height="24" viewBox="0 0 24 24" fill="none" xmlns="http://www.w3.org/2000/svg">
<g clip-path="url(#clip0_23_1616)">
<path d="M23.3002 11.9999C23.3002 13.0999 21.8002 13.9999 21.5002 15.0999C21.2002 16.1999 21.8002 17.7999 21.2002 18.5999C20.5002 19.4999 18.8002 19.3999 17.9002 19.9999C17.0002 20.5999 16.6002 22.2999 15.5002 22.6999C14.5002 22.9999 13.2002 21.8999 12.0002 21.8999C10.9002 21.8999 9.6002 22.9999 8.5002 22.6999C7.4002 22.3999 7.0002 20.6999 6.1002 19.9999C5.2002 19.2999 3.5002 19.4999 2.8002 18.5999C2.2002 17.6999 2.8002 16.0999 2.5002 15.0999C2.2002 14.0999 0.700195 13.1999 0.700195 11.9999C0.700195 10.8999 2.2002 9.99989 2.5002 8.89989C2.8002 7.79989 2.2002 6.19989 2.8002 5.39989C3.6002 4.49989 5.3002 4.59989 6.2002 3.99989C7.1002 3.39989 7.5002 1.69989 8.6002 1.29989C9.6002 0.999887 10.9002 2.09989 12.1002 2.09989C13.2002 2.09989 14.5002 0.999887 15.6002 1.29989C16.7002 1.59989 17.1002 3.29989 18.0002 3.99989C18.9002 4.69989 20.6002 4.49989 21.3002 5.39989C21.9002 6.29989 21.3002 7.89989 21.6002 8.89989C21.8002 9.99989 23.3002 10.8999 23.3002 11.9999Z" fill="#01ACDC" stroke="white" stroke-width="1.5" stroke-miterlimit="10" stroke-linecap="round" stroke-linejoin="round"/>
<path d="M7.90039 12.0998L10.6004 14.6998L16.1004 9.2998" stroke="white" stroke-width="1.5" stroke-miterlimit="10" stroke-linecap="round" stroke-linejoin="round"/>
</g>
<defs>
<clipPath id="clip0_23_1616">
<rect width="24" height="24" fill="white"/>
</clipPath>
</defs>
</svg>
