<svg width="23" height="155" viewBox="0 0 23 155" fill="none" xmlns="http://www.w3.org/2000/svg">
<path d="M4.59882 154.742C4.18877 154.801 3.80885 154.516 3.75025 154.106L2.79518 147.424C2.73657 147.014 3.02147 146.634 3.43151 146.575C3.84156 146.517 4.22148 146.802 4.28008 147.212L5.12904 153.151L11.0687 152.302C11.4787 152.244 11.8586 152.529 11.9172 152.939C11.9759 153.349 11.691 153.729 11.2809 153.787L4.59882 154.742ZM3.89267 153.55C4.08496 153.294 4.2757 153.033 4.46488 152.769L5.68495 153.641C5.48933 153.915 5.29193 154.184 5.09273 154.45L3.89267 153.55ZM5.58122 151.134C5.93744 150.588 6.28769 150.028 6.63197 149.453L7.91874 150.224C7.56494 150.814 7.20449 151.391 6.83737 151.954L5.58122 151.134ZM7.62077 147.734C7.93814 147.16 8.25002 146.573 8.5564 145.974L9.89174 146.657C9.57834 147.27 9.25898 147.871 8.93363 148.46L7.62077 147.734ZM9.4327 144.198C9.71696 143.6 9.99612 142.992 10.2702 142.373L11.6416 142.981C11.3623 143.611 11.0775 144.232 10.7873 144.842L9.4327 144.198ZM11.0477 140.558C11.3021 139.943 11.5517 139.32 11.7966 138.687L13.1954 139.229C12.9465 139.872 12.6925 140.506 12.4336 141.131L11.0477 140.558ZM12.4908 136.836C12.7166 136.214 12.9381 135.584 13.1551 134.947L14.575 135.431C14.3548 136.077 14.13 136.716 13.9007 137.348L12.4908 136.836ZM13.7821 133.048C13.9827 132.421 14.1793 131.788 14.3717 131.148L15.8082 131.58C15.6132 132.228 15.4141 132.87 15.2108 133.505L13.7821 133.048ZM14.937 129.209C15.1154 128.578 15.2901 127.941 15.4609 127.298L16.9105 127.684C16.7377 128.334 16.5611 128.978 16.3805 129.617L14.937 129.209ZM15.9613 125.358C16.1225 124.713 16.2801 124.063 16.434 123.408L17.8942 123.751C17.7388 124.412 17.5795 125.069 17.4165 125.722L15.9613 125.358ZM16.8761 121.466C17.0199 120.815 17.1601 120.159 17.2968 119.498L18.7656 119.803C18.6277 120.469 18.4861 121.131 18.3408 121.789L16.8761 121.466ZM17.6894 117.541C17.8158 116.889 17.9388 116.234 18.0584 115.576L19.5342 115.844C19.4136 116.508 19.2894 117.169 19.1619 117.826L17.6894 117.541ZM18.4071 113.59C18.5177 112.938 18.6251 112.283 18.7292 111.625L20.2108 111.859C20.1058 112.523 19.9975 113.183 19.886 113.841L18.4071 113.59ZM19.0315 109.644C19.1288 108.983 19.2228 108.318 19.3137 107.651L20.8 107.854C20.7084 108.526 20.6136 109.196 20.5155 109.862L19.0315 109.644ZM19.5728 105.674C19.6561 105.012 19.7362 104.348 19.8133 103.682L21.3033 103.855C21.2257 104.526 21.145 105.194 21.0611 105.861L19.5728 105.674ZM20.0343 101.686C20.1041 101.025 20.171 100.362 20.2348 99.6974L21.728 99.8408C21.6637 100.51 21.5963 101.178 21.5259 101.843L20.0343 101.686ZM20.4173 97.6989C20.4749 97.0337 20.5295 96.3669 20.5811 95.6989L22.0766 95.8144C22.0247 96.487 21.9697 97.1584 21.9117 97.8283L20.4173 97.6989ZM20.726 93.703C20.7714 93.0365 20.8138 92.3689 20.8533 91.7004L22.3507 91.7888C22.311 92.4618 22.2683 93.1339 22.2226 93.8049L20.726 93.703ZM20.9626 89.6976C20.9959 89.0313 21.0264 88.3642 21.054 87.6965L22.5527 87.7584C22.525 88.4305 22.4943 89.1019 22.4607 89.7726L20.9626 89.6976ZM21.1279 85.692C21.1496 85.0241 21.1685 84.3558 21.1844 83.6872L22.684 83.723C22.6679 84.3959 22.649 85.0685 22.6271 85.7408L21.1279 85.692ZM21.2234 81.6831C21.2336 81.0149 21.2408 80.3466 21.2451 79.6785L22.7451 79.6883C22.7407 80.3607 22.7334 81.0333 22.7233 81.7058L21.2234 81.6831ZM21.2496 77.6726C21.2481 77.0038 21.2438 76.3352 21.2366 75.6671L22.7365 75.6509C22.7438 76.3234 22.7481 76.9963 22.7496 77.6695L21.2496 77.6726ZM21.2064 73.6642C21.1934 72.9948 21.1775 72.3261 21.1587 71.6582L22.6581 71.6159C22.677 72.2882 22.693 72.9613 22.7061 73.6351L21.2064 73.6642ZM21.0934 69.653C21.0687 68.9855 21.0411 68.3191 21.0107 67.6537L22.5091 67.5851C22.5398 68.2548 22.5675 68.9257 22.5924 69.5976L21.0934 69.653ZM20.9098 65.6482C20.8731 64.9792 20.8335 64.3116 20.791 63.6455L22.2879 63.5498C22.3308 64.2205 22.3706 64.8926 22.4075 65.5661L20.9098 65.6482ZM20.6544 61.6521C20.6055 60.982 20.5535 60.3138 20.4985 59.6475L21.9934 59.5241C22.0488 60.1951 22.1011 60.868 22.1505 61.5427L20.6544 61.6521ZM20.324 57.6498C20.2629 56.986 20.1987 56.3243 20.1315 55.665L21.6238 55.513C21.6915 56.1771 21.7561 56.8436 21.8177 57.5122L20.324 57.6498ZM19.9173 53.6615C19.8427 52.9958 19.765 52.3326 19.6842 51.6723L21.1731 51.4901C21.2545 52.1555 21.3328 52.8237 21.4079 53.4945L19.9173 53.6615ZM19.4316 49.6937C19.3427 49.025 19.2506 48.3595 19.1552 47.6974L20.6399 47.4835C20.736 48.1511 20.8289 48.822 20.9186 49.496L19.4316 49.6937ZM18.8594 45.7212C18.7565 45.0592 18.6503 44.4009 18.5408 43.7464L20.0203 43.499C20.1307 44.1592 20.2378 44.8232 20.3416 45.4909L18.8594 45.7212ZM18.1972 41.7646C18.0792 41.1081 17.9579 40.4559 17.8332 39.8081L19.3061 39.5246C19.432 40.1785 19.5545 40.8369 19.6735 41.4993L18.1972 41.7646ZM17.4403 37.8361C17.3046 37.178 17.1654 36.5249 17.0226 35.877L18.4875 35.5542C18.6317 36.2088 18.7724 36.8686 18.9094 37.5332L17.4403 37.8361ZM16.5817 33.9414C16.4264 33.2816 16.2673 32.6276 16.1044 31.9799L17.5591 31.614C17.7239 32.2693 17.8848 32.9306 18.0418 33.5977L16.5817 33.9414ZM15.6042 30.0555C15.4295 29.4046 15.2507 28.7605 15.068 28.1236L16.5099 27.71C16.695 28.3554 16.876 29.0076 17.0529 29.6665L15.6042 30.0555ZM14.4991 26.205C14.3037 25.5673 14.104 24.9373 13.9003 24.3155L15.3257 23.8484C15.5325 24.4796 15.735 25.1187 15.9333 25.7654L14.4991 26.205ZM13.2532 22.4079C13.0331 21.7809 12.8085 21.1631 12.5795 20.5546L13.9834 20.0263C14.2164 20.6455 14.4448 21.2738 14.6685 21.9109L13.2532 22.4079ZM11.8468 18.677C11.5964 18.0584 11.3411 17.4507 11.0811 16.8542L12.4561 16.2547C12.7216 16.8638 12.982 17.4837 13.2372 18.1142L11.8468 18.677ZM10.2545 15.0309C9.96914 14.4258 9.67847 13.8338 9.38251 13.2553L10.7179 12.5721C11.0215 13.1654 11.3192 13.772 11.6112 14.3911L10.2545 15.0309ZM8.44359 11.4979C8.1178 10.9143 7.78616 10.3467 7.44868 9.79546L8.72796 9.01223C9.07638 9.58131 9.41816 10.1664 9.75333 10.7668L8.44359 11.4979ZM6.37317 8.12417C6.00078 7.57423 5.62195 7.04376 5.23671 6.53335L6.43396 5.6297C6.83538 6.16155 7.22912 6.71296 7.61521 7.28314L6.37317 8.12417ZM3.99527 4.98463C3.56683 4.48239 3.13124 4.00426 2.68856 3.55093L3.76177 2.50296C4.2291 2.98155 4.68731 3.48462 5.13645 4.01113L3.99527 4.98463ZM1.26149 2.19758C1.01979 1.9862 0.77618 1.78197 0.530663 1.585L1.46934 0.415002C1.73181 0.625584 1.99169 0.84346 2.24897 1.06846L1.26149 2.19758Z" fill="#7B7B7B"/>
</svg>
