<svg width="45" height="284" viewBox="0 0 45 284" fill="none" xmlns="http://www.w3.org/2000/svg">
<path d="M44.0678 282.747C44.4803 282.709 44.7843 282.345 44.7467 281.932L44.1348 275.21C44.0972 274.797 43.7324 274.493 43.3199 274.531C42.9074 274.568 42.6034 274.933 42.6409 275.346L43.1849 281.321L37.2096 281.865C36.7971 281.903 36.4931 282.267 36.5307 282.68C36.5682 283.092 36.9331 283.396 37.3456 283.359L44.0678 282.747ZM41.8335 91.0612L42.3437 90.5115L41.8335 91.0612ZM41.4155 94.4574L41.7981 95.1025L41.4155 94.4574ZM40.6298 0.348621C40.3319 0.518653 40.0368 0.689133 39.7444 0.860054L40.5016 2.15496C40.7893 1.9867 41.0799 1.81884 41.3733 1.65138L40.6298 0.348621ZM38.0238 1.8908C37.4613 2.23611 36.9098 2.58313 36.3691 2.93179L37.182 4.1924C37.7132 3.84985 38.2553 3.50875 38.8085 3.16915L38.0238 1.8908ZM34.7147 4.02663C34.1547 4.40703 33.6071 4.78929 33.0719 5.17334L33.9463 6.39209C34.471 6.01566 35.008 5.64075 35.5575 5.26744L34.7147 4.02663ZM31.5027 6.33079C30.9616 6.74129 30.4339 7.15372 29.9197 7.568L30.8606 8.73614C31.3634 8.33117 31.8795 7.92771 32.4092 7.52586L31.5027 6.33079ZM28.3901 8.8389C27.8867 9.27061 27.3972 9.70418 26.9214 10.1395L27.9341 11.2461C28.3977 10.8219 28.8751 10.399 29.3665 9.97759L28.3901 8.8389ZM25.4555 11.5288C24.982 11.9939 24.5237 12.4608 24.0801 12.9295L25.1696 13.9605C25.6004 13.5053 26.0459 13.0514 26.5066 12.599L25.4555 11.5288ZM22.7235 14.4207C22.2822 14.9258 21.8575 15.4328 21.449 15.9415L22.6186 16.8806C23.0139 16.3884 23.4252 15.8973 23.8531 15.4076L22.7235 14.4207ZM20.2305 17.529C19.8317 18.0732 19.4509 18.6192 19.0875 19.1667L20.3374 19.9961C20.6877 19.4681 21.0553 18.9412 21.4404 18.4155L20.2305 17.529ZM18.0232 20.858C17.6775 21.4386 17.3507 22.0207 17.0423 22.6041L18.3685 23.305C18.6649 22.7443 18.9792 22.1844 19.312 21.6255L18.0232 20.858ZM16.1537 24.3977C15.8703 25.0099 15.6065 25.6233 15.3617 26.2375L16.7552 26.7928C16.9899 26.2038 17.2429 25.6154 17.5149 25.0277L16.1537 24.3977ZM14.6706 28.1216C14.4567 28.7591 14.2626 29.3971 14.0875 30.0354L15.534 30.4322C15.7018 29.8208 15.8878 29.2096 16.0927 28.5988L14.6706 28.1216ZM13.6105 31.9887C13.47 32.6438 13.3489 33.2988 13.2463 33.9534L14.7282 34.1856C14.8265 33.5583 14.9426 32.9308 15.0772 32.3033L13.6105 31.9887ZM12.9903 35.9487C12.9235 36.6149 12.8752 37.2802 12.8446 37.9445L14.343 38.0135C14.3723 37.3758 14.4187 36.7373 14.4828 36.0984L12.9903 35.9487ZM12.8052 39.9493C12.8095 40.6177 12.8311 41.2845 12.869 41.9495L14.3666 41.8641C14.33 41.2238 14.3093 40.5822 14.3052 39.9396L12.8052 39.9493ZM13.0318 43.9435C13.102 44.6066 13.1878 45.2675 13.2884 45.9258L14.7712 45.6992C14.674 45.0631 14.5911 44.4251 14.5234 43.7856L13.0318 43.9435ZM13.634 47.8935C13.7633 48.5459 13.9065 49.1956 14.0627 49.8421L15.5207 49.4896C15.3692 48.8628 15.2305 48.2334 15.1054 47.6019L13.634 47.8935ZM14.5697 51.771C14.751 52.4099 14.9445 53.0454 15.1493 53.6771L16.5762 53.2145C16.3769 52.5999 16.1888 51.9821 16.0127 51.3615L14.5697 51.771ZM15.7969 55.5601C16.0234 56.1837 16.2605 56.8032 16.5073 57.4184L17.8994 56.8599C17.6586 56.2596 17.4274 55.6554 17.2067 55.0479L15.7969 55.5601ZM17.2766 59.2524C17.5423 59.8595 17.817 60.462 18.0997 61.0596L19.4556 60.4181C19.179 59.8334 18.9104 59.2442 18.6507 58.6509L17.2766 59.2524ZM18.9746 62.844C19.2746 63.4352 19.5819 64.0211 19.8958 64.6015L21.2152 63.8879C20.9074 63.3187 20.6061 62.7444 20.3122 62.1652L18.9746 62.844ZM20.8611 66.3343C21.1914 66.9104 21.5275 67.4806 21.8686 68.0443L23.152 67.2678C22.8168 66.7139 22.4867 66.1539 22.1624 65.5883L20.8611 66.3343ZM22.9108 69.724C23.2684 70.2862 23.6302 70.8416 23.9954 71.3896L25.2436 70.5579C24.8842 70.0184 24.5282 69.472 24.1766 68.9191L22.9108 69.724ZM25.1084 73.0236C25.4887 73.57 25.8716 74.1083 26.256 74.6384L27.4702 73.7576C27.0913 73.2353 26.7141 72.7048 26.3395 72.1667L25.1084 73.0236ZM27.4357 76.2329C27.8351 76.7623 28.2351 77.2825 28.6346 77.7929L29.8158 76.8683C29.4216 76.3647 29.0271 75.8517 28.6332 75.3296L27.4357 76.2329ZM29.8743 79.3482C30.2968 79.8689 30.7175 80.3783 31.1352 80.8756L32.2839 79.911C31.8715 79.4199 31.4561 78.9171 31.0391 78.4031L29.8743 79.3482ZM32.4109 82.3697C32.8545 82.8807 33.293 83.3773 33.7247 83.8586L34.8414 82.8571C34.4149 82.3816 33.9818 81.8912 33.5437 81.3864L32.4109 82.3697ZM35.0625 85.3266C35.5256 85.8267 35.9782 86.3071 36.4179 86.767L37.5021 85.7304C37.0677 85.2761 36.6206 84.8014 36.1631 84.3074L35.0625 85.3266ZM37.7932 88.1827C38.2834 88.6792 38.7516 89.145 39.1939 89.5785L40.2438 88.5071C39.8072 88.0792 39.3448 87.6193 38.8607 87.1289L37.7932 88.1827ZM40.6258 90.9573C40.8716 91.1898 41.1044 91.4078 41.3232 91.6109L42.3437 90.5115C42.1282 90.3115 41.8988 90.0967 41.6564 89.8675L40.6258 90.9573ZM41.3232 91.6109C41.4864 91.7623 41.5976 91.9396 41.6636 92.1286L43.0798 91.6342C42.9353 91.2203 42.6906 90.8335 42.3437 90.5115L41.3232 91.6109ZM41.4993 93.3675C41.384 93.543 41.2282 93.6965 41.033 93.8123L41.7981 95.1025C42.1955 94.8668 42.5164 94.5514 42.7531 94.1909L41.4993 93.3675ZM41.033 93.8123C40.7398 93.9861 40.4484 94.1619 40.1585 94.3397L40.9427 95.6184C41.2262 95.4445 41.5114 95.2725 41.7981 95.1025L41.033 93.8123ZM38.4389 95.4296C37.8721 95.8007 37.3119 96.1795 36.7582 96.5657L37.6165 97.796C38.1581 97.4181 38.7062 97.0476 39.2605 96.6846L38.4389 95.4296ZM35.1108 97.7513C34.5657 98.1558 34.0273 98.5678 33.4954 98.9871L34.4241 100.165C34.9445 99.7547 35.4714 99.3516 36.0047 98.9559L35.1108 97.7513ZM31.9195 100.267C31.4002 100.701 30.8875 101.143 30.3814 101.591L31.3763 102.714C31.8718 102.275 32.3736 101.843 32.8818 101.418L31.9195 100.267ZM28.8805 102.96C28.3867 103.423 27.8996 103.893 27.419 104.37L28.4755 105.435C28.9463 104.968 29.4233 104.508 29.9068 104.054L28.8805 102.96ZM25.9981 105.82C25.5316 106.309 25.0716 106.805 24.6181 107.307L25.7314 108.312C26.1758 107.82 26.6265 107.334 27.0836 106.855L25.9981 105.82ZM23.2773 108.832C22.8378 109.346 22.4047 109.866 21.9781 110.392L23.1431 111.337C23.5615 110.821 23.9861 110.311 24.4171 109.807L23.2773 108.832ZM20.7224 111.982C20.3102 112.518 19.9044 113.06 19.505 113.607L20.7168 114.491C21.1088 113.954 21.507 113.422 21.9113 112.896L20.7224 111.982ZM18.329 115.262C17.9457 115.816 17.5687 116.375 17.1979 116.94L18.4517 117.763C18.8159 117.209 19.1861 116.659 19.5624 116.116L18.329 115.262ZM16.1042 118.649C15.7467 119.223 15.3955 119.802 15.0504 120.386L16.3417 121.149C16.6809 120.575 17.0261 120.006 17.3773 119.443L16.1042 118.649ZM14.0421 122.137C13.712 122.726 13.3881 123.319 13.0701 123.917L14.3946 124.621C14.7073 124.033 15.0259 123.449 15.3504 122.871L14.0421 122.137ZM12.1358 125.722C11.8336 126.322 11.5374 126.926 11.247 127.534L12.6007 128.18C12.8865 127.581 13.1781 126.987 13.4754 126.397L12.1358 125.722ZM10.3935 129.371C10.1148 129.988 9.84203 130.609 9.57508 131.233L10.9544 131.823C11.2173 131.207 11.486 130.596 11.7604 129.989L10.3935 129.371ZM8.8013 133.095C8.54917 133.719 8.30272 134.347 8.06193 134.979L9.46351 135.513C9.70083 134.891 9.9437 134.272 10.1921 133.657L8.8013 133.095ZM7.35654 136.884C7.1294 137.516 6.9078 138.152 6.69172 138.79L8.11262 139.271C8.32572 138.641 8.54423 138.015 8.76817 137.391L7.35654 136.884ZM6.06184 140.711C5.85736 141.354 5.65836 142 5.46482 142.65L6.90234 143.078C7.09331 142.438 7.28965 141.8 7.49136 141.165L6.06184 140.711ZM4.90443 144.593C4.72407 145.24 4.54902 145.89 4.37928 146.542L5.83094 146.92C5.99851 146.276 6.1713 145.634 6.34931 144.996L4.90443 144.593ZM3.88593 148.507C3.72729 149.162 3.57391 149.82 3.42577 150.481L4.8894 150.809C5.03571 150.157 5.18719 149.507 5.34383 148.86L3.88593 148.507ZM3.00074 152.451C2.86421 153.11 2.7328 153.772 2.60652 154.435L4.08008 154.716C4.20485 154.06 4.33468 153.406 4.46956 152.755L3.00074 152.451ZM2.24304 156.432C2.12825 157.093 2.01846 157.755 1.91366 158.42L3.39534 158.653C3.49893 157.997 3.60744 157.342 3.72088 156.689L2.24304 156.432ZM1.61436 160.417C1.51957 161.085 1.42976 161.755 1.3449 162.426L2.83306 162.614C2.91696 161.95 3.00576 161.288 3.09947 160.628L1.61436 160.417ZM1.10661 164.432C1.03238 165.099 0.962994 165.768 0.898452 166.439L2.39155 166.582C2.45539 165.919 2.52401 165.258 2.59742 164.597L1.10661 164.432ZM0.719336 168.454C0.664572 169.126 0.614619 169.799 0.569467 170.473L2.06611 170.573C2.11079 169.906 2.1602 169.24 2.21438 168.576L0.719336 168.454ZM0.449149 172.485C0.41377 173.157 0.383115 173.83 0.357174 174.503L1.85606 174.561C1.88173 173.894 1.91207 173.229 1.94707 172.564L0.449149 172.485ZM0.29348 176.528C0.277057 177.199 0.26528 177.872 0.25814 178.545L1.75806 178.561C1.76512 177.894 1.77678 177.229 1.79303 176.564L0.29348 176.528ZM0.250613 180.563C0.25272 181.237 0.259442 181.911 0.270767 182.586L1.77056 182.56C1.75934 181.893 1.75269 181.225 1.75061 180.559L0.250613 180.563ZM0.318411 184.607C0.33879 185.278 0.363707 185.95 0.393155 186.623L1.89172 186.557C1.86256 185.891 1.8379 185.226 1.81772 184.561L0.318411 184.607ZM0.495074 188.64C0.533571 189.313 0.576587 189.986 0.624115 190.659L2.12039 190.554C2.07333 189.887 2.03074 189.221 1.99263 188.555L0.495074 188.64ZM0.779529 192.671C0.835774 193.341 0.89648 194.012 0.961638 194.682L2.4546 194.537C2.39008 193.873 2.32997 193.209 2.27428 192.546L0.779529 192.671ZM1.17046 196.692C1.24442 197.361 1.32281 198.03 1.40562 198.699L2.89425 198.515C2.81224 197.853 2.73461 197.19 2.66138 196.527L1.17046 196.692ZM1.66683 200.701C1.7583 201.368 1.85417 202.034 1.95443 202.7L3.43772 202.477C3.33843 201.817 3.24349 201.157 3.15291 200.497L1.66683 200.701ZM2.26836 204.697C2.37724 205.361 2.49048 206.024 2.60809 206.687L4.08502 206.425C3.96856 205.769 3.85642 205.112 3.7486 204.454L2.26836 204.697ZM2.97393 208.673C3.10023 209.335 3.23088 209.995 3.36588 210.655L4.83542 210.354C4.70175 209.701 4.57237 209.047 4.4473 208.392L2.97393 208.673ZM3.78387 212.631C3.92753 213.289 4.07553 213.946 4.22786 214.602L5.68897 214.263C5.53814 213.613 5.39159 212.963 5.24933 212.311L3.78387 212.631ZM4.69779 216.566C4.85876 217.22 5.02404 217.872 5.19363 218.524L6.64522 218.146C6.47731 217.501 6.31366 216.855 6.15428 216.208L4.69779 216.566ZM5.71602 220.476C5.89448 221.126 6.07725 221.774 6.26433 222.421L7.70526 222.004C7.52006 221.364 7.33911 220.722 7.16242 220.079L5.71602 220.476ZM6.83846 224.356C7.03438 225.001 7.2346 225.644 7.43911 226.285L8.86821 225.83C8.66576 225.195 8.46757 224.558 8.27363 223.92L6.83846 224.356ZM8.06654 228.207C8.27999 228.846 8.49774 229.483 8.71979 230.118L10.1358 229.624C9.91603 228.995 9.70051 228.364 9.48925 227.732L8.06654 228.207ZM9.3988 232.019C9.63031 232.652 9.86614 233.284 10.1063 233.914L11.5079 233.38C11.2702 232.757 11.0369 232.131 10.8078 231.504L9.3988 232.019ZM10.8398 235.798C11.0886 236.423 11.3417 237.047 11.5991 237.668L12.9848 237.094C12.7302 236.479 12.4798 235.863 12.2336 235.243L10.8398 235.798ZM12.3861 239.53C12.6535 240.149 12.9252 240.767 13.2012 241.381L14.5696 240.767C14.2966 240.159 14.0279 239.548 13.7634 238.935L12.3861 239.53ZM14.0422 243.218C14.3269 243.828 14.616 244.435 14.9093 245.04L16.2588 244.385C15.9687 243.787 15.6829 243.187 15.4014 242.584L14.0422 243.218ZM15.8075 246.855C16.1112 247.458 16.4193 248.057 16.7317 248.654L18.0605 247.958C17.7517 247.368 17.4471 246.775 17.1468 246.18L15.8075 246.855ZM17.682 250.435C18.0045 251.028 18.3312 251.617 18.6624 252.204L19.9687 251.467C19.6414 250.887 19.3185 250.304 18.9998 249.718L17.682 250.435ZM19.6715 253.959C20.0123 254.541 20.3574 255.119 20.7069 255.694L21.9886 254.915C21.6434 254.347 21.3024 253.775 20.9658 253.201L19.6715 253.959ZM21.77 257.411C22.1307 257.983 22.4959 258.551 22.8654 259.116L24.1205 258.294C23.7556 257.737 23.395 257.176 23.0387 256.611L21.77 257.411ZM23.9874 260.799C24.3657 261.356 24.7485 261.909 25.1357 262.459L26.3619 261.595C25.9797 261.053 25.6019 260.506 25.2283 259.956L23.9874 260.799ZM26.3172 264.105C26.716 264.65 27.1193 265.192 27.5269 265.729L28.7217 264.822C28.3195 264.292 27.9216 263.758 27.528 263.22L26.3172 264.105ZM28.7632 267.327C29.181 267.857 29.6033 268.383 30.03 268.905L31.1909 267.955C30.77 267.44 30.3535 266.922 29.9414 266.399L28.7632 267.327ZM31.3281 270.461C31.7653 270.975 32.2069 271.485 32.653 271.99L33.7772 270.997C33.3374 270.499 32.902 269.996 32.4709 269.489L31.3281 270.461ZM34.0057 273.491C34.4633 273.99 34.9254 274.483 35.3921 274.972L36.4766 273.935C36.0169 273.454 35.5615 272.968 35.1104 272.477L34.0057 273.491ZM36.8054 276.422C37.281 276.9 37.7611 277.373 38.2457 277.841L39.2877 276.762C38.8105 276.301 38.3376 275.835 37.8691 275.364L36.8054 276.422ZM39.7179 279.234C40.2135 279.693 40.7137 280.147 41.2184 280.596L42.2147 279.474C41.7179 279.033 41.2255 278.586 40.7375 278.134L39.7179 279.234ZM42.7458 281.924C43.0026 282.143 43.2606 282.36 43.5197 282.576L44.4799 281.424C44.2249 281.211 43.971 280.997 43.7182 280.782L42.7458 281.924Z" fill="#7B7B7B"/>
</svg>
