<svg width="101" height="76" viewBox="0 0 101 76" fill="none" xmlns="http://www.w3.org/2000/svg">
<rect x="2.21436" y="0.531494" width="3.1317" height="3.13172" transform="rotate(45 2.21436 0.531494)" fill="#A9BBC8"/>
<rect x="21.4348" y="0.531494" width="3.1317" height="3.13172" transform="rotate(45 21.4348 0.531494)" fill="#A9BBC8"/>
<rect x="40.6553" y="0.531494" width="3.1317" height="3.13172" transform="rotate(45 40.6553 0.531494)" fill="#A9BBC8"/>
<rect x="59.8755" y="0.531494" width="3.1317" height="3.13172" transform="rotate(45 59.8755 0.531494)" fill="#A9BBC8"/>
<rect x="79.0959" y="0.531494" width="3.1317" height="3.13172" transform="rotate(45 79.0959 0.531494)" fill="#A9BBC8"/>
<rect x="98.3164" y="0.531494" width="3.1317" height="3.13172" transform="rotate(45 98.3164 0.531494)" fill="#A9BBC8"/>
<rect x="2.21436" y="18.0804" width="3.1317" height="3.13172" transform="rotate(45 2.21436 18.0804)" fill="#A9BBC8"/>
<rect x="2.21436" y="35.6298" width="3.1317" height="3.13172" transform="rotate(45 2.21436 35.6298)" fill="#A9BBC8"/>
<rect x="2.21436" y="53.1787" width="3.1317" height="3.13172" transform="rotate(45 2.21436 53.1787)" fill="#A9BBC8"/>
<rect x="2.21436" y="70.7276" width="3.1317" height="3.13172" transform="rotate(45 2.21436 70.7276)" fill="#A9BBC8"/>
<rect x="21.4348" y="18.0804" width="3.1317" height="3.13172" transform="rotate(45 21.4348 18.0804)" fill="#A9BBC8"/>
<rect x="21.4348" y="35.6298" width="3.1317" height="3.13172" transform="rotate(45 21.4348 35.6298)" fill="#A9BBC8"/>
<rect x="21.4348" y="53.1787" width="3.1317" height="3.13172" transform="rotate(45 21.4348 53.1787)" fill="#A9BBC8"/>
<rect x="21.4348" y="70.7276" width="3.1317" height="3.13172" transform="rotate(45 21.4348 70.7276)" fill="#A9BBC8"/>
<rect x="40.6553" y="18.0804" width="3.1317" height="3.13172" transform="rotate(45 40.6553 18.0804)" fill="#A9BBC8"/>
<rect x="40.6553" y="35.6298" width="3.1317" height="3.13172" transform="rotate(45 40.6553 35.6298)" fill="#A9BBC8"/>
<rect x="40.6553" y="53.1787" width="3.1317" height="3.13172" transform="rotate(45 40.6553 53.1787)" fill="#A9BBC8"/>
<rect x="40.6553" y="70.7276" width="3.1317" height="3.13172" transform="rotate(45 40.6553 70.7276)" fill="#A9BBC8"/>
<rect x="59.8755" y="18.0804" width="3.1317" height="3.13172" transform="rotate(45 59.8755 18.0804)" fill="#A9BBC8"/>
<rect x="59.8755" y="35.6298" width="3.1317" height="3.13172" transform="rotate(45 59.8755 35.6298)" fill="#A9BBC8"/>
<rect x="59.8755" y="53.1787" width="3.1317" height="3.13172" transform="rotate(45 59.8755 53.1787)" fill="#A9BBC8"/>
<rect x="59.8755" y="70.7276" width="3.1317" height="3.13172" transform="rotate(45 59.8755 70.7276)" fill="#A9BBC8"/>
<rect x="79.0959" y="18.0804" width="3.1317" height="3.13172" transform="rotate(45 79.0959 18.0804)" fill="#A9BBC8"/>
<rect x="79.0959" y="35.6298" width="3.1317" height="3.13172" transform="rotate(45 79.0959 35.6298)" fill="#A9BBC8"/>
<rect x="79.0959" y="53.1787" width="3.1317" height="3.13172" transform="rotate(45 79.0959 53.1787)" fill="#A9BBC8"/>
<rect x="79.0959" y="70.7276" width="3.1317" height="3.13172" transform="rotate(45 79.0959 70.7276)" fill="#A9BBC8"/>
<rect x="98.3164" y="18.0804" width="3.1317" height="3.13172" transform="rotate(45 98.3164 18.0804)" fill="#A9BBC8"/>
<rect x="98.3164" y="35.6298" width="3.1317" height="3.13172" transform="rotate(45 98.3164 35.6298)" fill="#A9BBC8"/>
<rect x="98.3164" y="53.1787" width="3.1317" height="3.13172" transform="rotate(45 98.3164 53.1787)" fill="#A9BBC8"/>
<rect x="98.3164" y="70.7276" width="3.1317" height="3.13172" transform="rotate(45 98.3164 70.7276)" fill="#A9BBC8"/>
</svg>
