<svg width="32" height="32" viewBox="0 0 32 32" fill="none" xmlns="http://www.w3.org/2000/svg">
<path d="M21.9522 29H9.92217C9.66957 29 9.41945 28.9486 9.18611 28.8489C8.95277 28.7491 8.74078 28.6028 8.56226 28.4185C8.38375 28.2341 8.2422 28.0153 8.14573 27.7745C8.04925 27.5336 7.99973 27.2756 8 27.015V4.98501C8 4.45892 8.20245 3.95434 8.56287 3.58214C8.92328 3.20994 9.41219 3.00056 9.92217 3H26.0758C26.3285 3 26.5787 3.05134 26.8121 3.1511C27.0456 3.25086 27.2577 3.39707 27.4364 3.5814C27.6151 3.76572 27.7568 3.98455 27.8535 4.22538C27.9502 4.46621 28 4.72433 28 4.98501V21.9751C28 22.5071 27.8191 23.0222 27.4887 23.4305L23.6443 28.1844C23.4373 28.4398 23.1784 28.6452 22.8861 28.7861C22.5937 28.927 22.2749 29 21.9522 29Z" fill="#F5F5F5"/>
<path d="M23.5 28.5L27.5 23.5C27.8011 23.1443 27.9467 22.4605 28 22H23.0258C22.891 21.9997 22.7575 22.0257 22.6329 22.0764C22.5083 22.1272 22.3951 22.2017 22.2998 22.2958C22.2045 22.3898 22.1289 22.5015 22.0775 22.6244C22.026 22.7473 21.9997 22.879 22 23.012V29C22.2998 29 23 29 23.5 28.5Z" fill="#7B7B7B"/>
<path d="M24.4009 10H10.5991C10.4402 10 10.2878 9.94732 10.1755 9.85355C10.0631 9.75979 10 9.63261 10 9.5C10 9.36739 10.0631 9.24021 10.1755 9.14645C10.2878 9.05268 10.4402 9 10.5991 9H24.4009C24.5598 9 24.7122 9.05268 24.8245 9.14645C24.9369 9.24021 25 9.36739 25 9.5C25 9.63261 24.9369 9.75979 24.8245 9.85355C24.7122 9.94732 24.5598 10 24.4009 10Z" fill="#B4B4B4"/>
<path d="M20.4363 13H10.5637C10.4142 13 10.2708 12.9473 10.1651 12.8536C10.0594 12.7598 10 12.6326 10 12.5C10 12.3674 10.0594 12.2402 10.1651 12.1464C10.2708 12.0527 10.4142 12 10.5637 12H20.4363C20.5858 12 20.7292 12.0527 20.8349 12.1464C20.9406 12.2402 21 12.3674 21 12.5C21 12.6326 20.9406 12.7598 20.8349 12.8536C20.7292 12.9473 20.5858 13 20.4363 13Z" fill="#B4B4B4"/>
<path d="M22.4208 17H10.5792C10.4256 17 10.2782 16.9473 10.1696 16.8536C10.061 16.7598 10 16.6326 10 16.5C10 16.3674 10.061 16.2402 10.1696 16.1464C10.2782 16.0527 10.4256 16 10.5792 16H22.4208C22.5744 16 22.7218 16.0527 22.8304 16.1464C22.939 16.2402 23 16.3674 23 16.5C23 16.6326 22.939 16.7598 22.8304 16.8536C22.7218 16.9473 22.5744 17 22.4208 17Z" fill="#B4B4B4"/>
<path d="M24.4009 10H10.5991C10.4402 10 10.2878 9.94732 10.1755 9.85355C10.0631 9.75979 10 9.63261 10 9.5C10 9.36739 10.0631 9.24022 10.1755 9.14645C10.2878 9.05268 10.4402 9 10.5991 9H24.4009C24.5598 9 24.7122 9.05268 24.8245 9.14645C24.9369 9.24022 25 9.36739 25 9.5C25 9.63261 24.9369 9.75979 24.8245 9.85355C24.7122 9.94732 24.5598 10 24.4009 10Z" fill="#7B7B7B"/>
<path d="M21.3851 13H10.6149C10.4518 13 10.2954 12.9473 10.1801 12.8536C10.0648 12.7598 10 12.6326 10 12.5C10 12.3674 10.0648 12.2402 10.1801 12.1464C10.2954 12.0527 10.4518 12 10.6149 12H21.3851C21.5482 12 21.7046 12.0527 21.8199 12.1464C21.9352 12.2402 22 12.3674 22 12.5C22 12.6326 21.9352 12.7598 21.8199 12.8536C21.7046 12.9473 21.5482 13 21.3851 13Z" fill="#7B7B7B"/>
<path d="M22.4208 16H10.5792C10.4256 16 10.2782 16.0527 10.1696 16.1464C10.061 16.2402 10 16.3674 10 16.5C10 16.6326 10.061 16.7598 10.1696 16.8536C10.2782 16.9473 10.4256 17 10.5792 17H22.4208C22.5744 17 22.7218 16.9473 22.8304 16.8536C22.939 16.7598 23 16.6326 23 16.5C23 16.3674 22.939 16.2402 22.8304 16.1464C22.7218 16.0527 22.5744 16 22.4208 16Z" fill="#7B7B7B"/>
<path d="M7.5 31C10.5376 31 13 28.5376 13 25.5C13 22.4624 10.5376 20 7.5 20C4.46243 20 2 22.4624 2 25.5C2 28.5376 4.46243 31 7.5 31Z" fill="#F8881B"/>
<path d="M7.5 30C9.98528 30 12 27.9853 12 25.5C12 23.0147 9.98528 21 7.5 21C5.01472 21 3 23.0147 3 25.5C3 27.9853 5.01472 30 7.5 30Z" fill="#F08000"/>
<path d="M7.5 30C9.98528 30 12 27.9853 12 25.5C12 23.0147 9.98528 21 7.5 21C5.01472 21 3 23.0147 3 25.5C3 27.9853 5.01472 30 7.5 30Z" fill="#F4C23F"/>
<path d="M8.41109 24.8885H6.58671C6.46005 24.8885 6.33859 24.8443 6.24903 24.7657C6.15947 24.6871 6.10916 24.5804 6.10916 24.4692C6.10916 24.358 6.15947 24.2514 6.24903 24.1728C6.33859 24.0941 6.46005 24.05 6.58671 24.05H9.44542C9.59251 24.05 9.73356 23.9987 9.83757 23.9074C9.94157 23.816 10 23.6922 10 23.5631C10 23.4339 9.94157 23.3101 9.83757 23.2188C9.73356 23.1275 9.59251 23.0762 9.44542 23.0762H8.05458V22.4869C8.05458 22.3578 7.99615 22.2339 7.89215 22.1426C7.78814 22.0513 7.64708 22 7.5 22C7.35292 22 7.21186 22.0513 7.10786 22.1426C7.00385 22.2339 6.94542 22.3578 6.94542 22.4869V23.0762H6.58671C6.17583 23.0896 5.78687 23.2424 5.50159 23.5023C5.21631 23.7623 5.05692 24.1092 5.05692 24.4702C5.05692 24.8312 5.21631 25.1781 5.50159 25.4381C5.78687 25.698 6.17583 25.8508 6.58671 25.8642H8.41109C8.53243 25.8714 8.64611 25.9188 8.72915 25.9969C8.81218 26.0749 8.85837 26.1777 8.85837 26.2844C8.85837 26.3912 8.81218 26.494 8.72915 26.572C8.64611 26.65 8.53243 26.6974 8.41109 26.7047H5.55458C5.40749 26.7047 5.26644 26.756 5.16243 26.8473C5.05843 26.9386 5 27.0624 5 27.1916C5 27.3207 5.05843 27.4445 5.16243 27.5358C5.26644 27.6271 5.40749 27.6784 5.55458 27.6784H6.94542V28.5131C6.94542 28.6422 7.00385 28.7661 7.10786 28.8574C7.21186 28.9487 7.35292 29 7.5 29C7.64708 29 7.78814 28.9487 7.89215 28.8574C7.99615 28.7661 8.05458 28.6422 8.05458 28.5131V27.6784H8.41109C8.8325 27.6784 9.23664 27.5315 9.53462 27.2699C9.8326 27.0083 10 26.6534 10 26.2835C10 25.9135 9.8326 25.5587 9.53462 25.2971C9.23664 25.0355 8.8325 24.8885 8.41109 24.8885Z" fill="#CF6B00"/>
</svg>
