<svg width="25" height="25" viewBox="0 0 25 25" fill="none" xmlns="http://www.w3.org/2000/svg">
<path fill-rule="evenodd" clip-rule="evenodd" d="M8.74023 8.49817V6.49817C8.74023 4.28903 10.5311 2.49817 12.7402 2.49817C14.9494 2.49817 16.7402 4.28903 16.7402 6.49817V8.49817L19.7402 8.49817C20.8448 8.49817 21.7402 9.3936 21.7402 10.4982L21.7402 20.4982C21.7402 21.6027 20.8448 22.4982 19.7402 22.4982L5.74024 22.4982C4.63567 22.4982 3.74023 21.6027 3.74023 20.4982V10.4982C3.74023 9.3936 4.63567 8.49817 5.74023 8.49817L8.74023 8.49817ZM10.7402 6.49817C10.7402 5.3936 11.6357 4.49817 12.7402 4.49817C13.8448 4.49817 14.7402 5.3936 14.7402 6.49817V8.49817L10.7402 8.49817V6.49817ZM9.97015 10.4982H5.74023L5.74024 20.4982L19.7402 20.4982L19.7402 10.4982L9.97015 10.4982C9.97044 10.4982 9.96987 10.4982 9.97015 10.4982Z" fill="#D2D2D2"/>
<path fill-rule="evenodd" clip-rule="evenodd" d="M8.74023 8.49817V6.49817C8.74023 4.28903 10.5311 2.49817 12.7402 2.49817C14.9494 2.49817 16.7402 4.28903 16.7402 6.49817V8.49817L19.7402 8.49817C20.8448 8.49817 21.7402 9.3936 21.7402 10.4982L21.7402 20.4982C21.7402 21.6027 20.8448 22.4982 19.7402 22.4982L5.74024 22.4982C4.63567 22.4982 3.74023 21.6027 3.74023 20.4982V10.4982C3.74023 9.3936 4.63567 8.49817 5.74023 8.49817L8.74023 8.49817ZM10.7402 6.49817C10.7402 5.3936 11.6357 4.49817 12.7402 4.49817C13.8448 4.49817 14.7402 5.3936 14.7402 6.49817V8.49817L10.7402 8.49817V6.49817ZM9.97015 10.4982H5.74023L5.74024 20.4982L19.7402 20.4982L19.7402 10.4982L9.97015 10.4982C9.97044 10.4982 9.96987 10.4982 9.97015 10.4982Z" fill="black" fill-opacity="0.2"/>
</svg>
