<svg width="234" height="77" viewBox="0 0 234 77" fill="none" xmlns="http://www.w3.org/2000/svg">
<rect x="0.155273" y="0.453369" width="233" height="76" rx="16" fill="white"/>
<g clip-path="url(#clip0_2_5253)">
<path d="M44.8303 27.7034V44.7034H32.7553C32.7059 43.9363 32.3664 43.2168 31.8057 42.6911C31.245 42.1653 30.5052 41.8727 29.7365 41.8727C28.9679 41.8727 28.2281 42.1653 27.6674 42.6911C27.1067 43.2168 26.7672 43.9363 26.7178 44.7034H23.6553V27.7034H44.8303Z" stroke="#333333" stroke-width="1.5" stroke-linecap="round" stroke-linejoin="round"/>
<path d="M54.9061 38.7034V44.7034H52.8936C52.8442 43.9363 52.5046 43.2168 51.9439 42.6911C51.3833 42.1653 50.6434 41.8727 49.8748 41.8727C49.1062 41.8727 48.3664 42.1653 47.8057 42.6911C47.245 43.2168 46.9054 43.9363 46.8561 44.7034H44.8311V32.7034H49.0436L54.9061 38.7034Z" stroke="#333333" stroke-width="1.5" stroke-linecap="round" stroke-linejoin="round"/>
<path d="M54.9061 38.7034V44.7034H52.8936C52.8442 43.9363 52.5046 43.2168 51.9439 42.6911C51.3833 42.1653 50.6434 41.8727 49.8748 41.8727C49.1062 41.8727 48.3664 42.1653 47.8057 42.6911C47.245 43.2168 46.9054 43.9363 46.8561 44.7034H44.8311V38.7034H54.9061Z" stroke="#333333" stroke-width="1.5" stroke-linecap="round" stroke-linejoin="round"/>
<path d="M29.7311 47.7034C31.4017 47.7034 32.7561 46.3602 32.7561 44.7034C32.7561 43.0465 31.4017 41.7034 29.7311 41.7034C28.0604 41.7034 26.7061 43.0465 26.7061 44.7034C26.7061 46.3602 28.0604 47.7034 29.7311 47.7034Z" stroke="#333333" stroke-width="1.5" stroke-linecap="round" stroke-linejoin="round"/>
<path d="M49.8678 47.7034C51.5384 47.7034 52.8928 46.3602 52.8928 44.7034C52.8928 43.0465 51.5384 41.7034 49.8678 41.7034C48.1971 41.7034 46.8428 43.0465 46.8428 44.7034C46.8428 46.3602 48.1971 47.7034 49.8678 47.7034Z" stroke="#333333" stroke-width="1.5" stroke-linecap="round" stroke-linejoin="round"/>
<path d="M17.4053 29.7034H20.6678" stroke="#333333" stroke-width="1.5" stroke-linecap="round" stroke-linejoin="round"/>
<path d="M17.4053 33.7034H20.6678" stroke="#333333" stroke-width="1.5" stroke-linecap="round" stroke-linejoin="round"/>
<path d="M17.4053 37.7034H20.6678" stroke="#333333" stroke-width="1.5" stroke-linecap="round" stroke-linejoin="round"/>
</g>
<path d="M76.6709 31.6331V32.4534H70.2725V31.6331H76.6709ZM70.5615 21.0784V32.4534H69.6006V21.0784H70.5615ZM75.874 26.1799V27.0002H70.2725V26.1799H75.874ZM76.6318 21.0784V21.9065H70.2725V21.0784H76.6318ZM83.6318 30.9377V26.5784C83.6318 26.1773 83.5485 25.831 83.3818 25.5393C83.2152 25.2476 82.9704 25.0237 82.6475 24.8674C82.3245 24.7112 81.9261 24.6331 81.4521 24.6331C81.0146 24.6331 80.624 24.7112 80.2803 24.8674C79.9417 25.0185 79.6735 25.2242 79.4756 25.4846C79.2829 25.7398 79.1865 26.0237 79.1865 26.3362L78.249 26.3284C78.249 26.0107 78.3271 25.7034 78.4834 25.4065C78.6396 25.1096 78.861 24.844 79.1475 24.6096C79.4339 24.3752 79.7751 24.1903 80.1709 24.0549C80.5719 23.9143 81.012 23.844 81.4912 23.844C82.0954 23.844 82.6266 23.9456 83.085 24.1487C83.5485 24.3518 83.9105 24.6565 84.1709 25.0627C84.4313 25.469 84.5615 25.9794 84.5615 26.594V30.6799C84.5615 30.9716 84.5824 31.2737 84.624 31.5862C84.6709 31.8987 84.736 32.1565 84.8193 32.3596V32.4534H83.8271C83.7646 32.2659 83.7152 32.0315 83.6787 31.7502C83.6475 31.4638 83.6318 31.193 83.6318 30.9377ZM83.8506 27.5315L83.8662 28.2502H82.0303C81.5511 28.2502 81.1214 28.2945 80.7412 28.3831C80.3662 28.4664 80.0485 28.5914 79.7881 28.7581C79.5277 28.9195 79.3271 29.1148 79.1865 29.344C79.0511 29.5732 78.9834 29.8336 78.9834 30.1252C78.9834 30.4273 79.0589 30.7034 79.21 30.9534C79.3662 31.2034 79.585 31.4039 79.8662 31.5549C80.1527 31.7008 80.4912 31.7737 80.8818 31.7737C81.4027 31.7737 81.861 31.6773 82.2568 31.4846C82.6579 31.2919 82.9886 31.0393 83.249 30.7268C83.5094 30.4143 83.6839 30.0732 83.7725 29.7034L84.1787 30.2424C84.111 30.5028 83.986 30.7711 83.8037 31.0471C83.6266 31.318 83.3949 31.5732 83.1084 31.8127C82.8219 32.0471 82.4834 32.2398 82.0928 32.3909C81.7074 32.5367 81.2699 32.6096 80.7803 32.6096C80.2282 32.6096 79.7464 32.5055 79.335 32.2971C78.9287 32.0888 78.611 31.8049 78.3818 31.4456C78.1579 31.081 78.0459 30.6695 78.0459 30.2112C78.0459 29.7945 78.1344 29.4221 78.3115 29.094C78.4886 28.7607 78.7438 28.4794 79.0771 28.2502C79.4157 28.0159 79.8219 27.8388 80.2959 27.719C80.7751 27.594 81.3115 27.5315 81.9053 27.5315H83.8506ZM92.1318 30.2971C92.1318 30.068 92.0745 29.8414 91.96 29.6174C91.8454 29.3935 91.624 29.1877 91.2959 29.0002C90.973 28.8127 90.4964 28.6539 89.8662 28.5237C89.3975 28.4195 88.9782 28.3023 88.6084 28.1721C88.2438 28.0419 87.9365 27.8857 87.6865 27.7034C87.4365 27.5211 87.2464 27.3023 87.1162 27.0471C86.986 26.7919 86.9209 26.4898 86.9209 26.1409C86.9209 25.8284 86.9886 25.5341 87.124 25.2581C87.2646 24.9768 87.4626 24.732 87.7178 24.5237C87.9782 24.3101 88.2907 24.1435 88.6553 24.0237C89.0251 23.9039 89.4391 23.844 89.8975 23.844C90.5485 23.844 91.1058 23.956 91.5693 24.1799C92.0381 24.3987 92.3949 24.6982 92.6396 25.0784C92.8896 25.4586 93.0146 25.8883 93.0146 26.3674H92.085C92.085 26.0758 91.999 25.7997 91.8271 25.5393C91.6605 25.2789 91.4131 25.0653 91.085 24.8987C90.762 24.732 90.3662 24.6487 89.8975 24.6487C89.4131 24.6487 89.0199 24.7216 88.7178 24.8674C88.4157 25.0133 88.1943 25.1982 88.0537 25.4221C87.9183 25.6461 87.8506 25.8778 87.8506 26.1174C87.8506 26.3049 87.8792 26.4768 87.9365 26.6331C87.999 26.7841 88.1084 26.9247 88.2646 27.0549C88.4261 27.1851 88.6553 27.3075 88.9521 27.4221C89.249 27.5367 89.6344 27.6487 90.1084 27.7581C90.7907 27.9091 91.348 28.094 91.7803 28.3127C92.2178 28.5263 92.5407 28.7919 92.749 29.1096C92.9574 29.4221 93.0615 29.8023 93.0615 30.2502C93.0615 30.5992 92.9886 30.9195 92.8428 31.2112C92.6969 31.4976 92.486 31.745 92.21 31.9534C91.9391 32.1617 91.611 32.3232 91.2256 32.4377C90.8454 32.5523 90.4183 32.6096 89.9443 32.6096C89.2308 32.6096 88.6266 32.4924 88.1318 32.2581C87.6423 32.0185 87.2699 31.706 87.0146 31.3206C86.7646 30.9299 86.6396 30.5159 86.6396 30.0784H87.5693C87.6006 30.5159 87.7386 30.8622 87.9834 31.1174C88.2282 31.3674 88.5277 31.5445 88.8818 31.6487C89.2412 31.7528 89.5954 31.8049 89.9443 31.8049C90.4235 31.8049 90.8245 31.7346 91.1475 31.594C91.4704 31.4534 91.7152 31.2685 91.8818 31.0393C92.0485 30.8101 92.1318 30.5627 92.1318 30.2971ZM97.6865 31.6096L100.319 24.0002H101.327L97.749 33.8127C97.6761 34.0055 97.5824 34.219 97.4678 34.4534C97.3584 34.6877 97.2126 34.9117 97.0303 35.1252C96.8532 35.344 96.6292 35.5211 96.3584 35.6565C96.0928 35.7971 95.7673 35.8674 95.3818 35.8674C95.2829 35.8674 95.1553 35.8544 94.999 35.8284C94.848 35.8075 94.7386 35.7867 94.6709 35.7659L94.6631 34.9768C94.7204 34.9924 94.8037 35.0055 94.9131 35.0159C95.0225 35.0263 95.098 35.0315 95.1396 35.0315C95.4782 35.0315 95.762 34.9742 95.9912 34.8596C96.2256 34.745 96.4209 34.5732 96.5771 34.344C96.7334 34.12 96.8714 33.8388 96.9912 33.5002L97.6865 31.6096ZM95.2256 24.0002L97.9209 31.2581L98.1709 32.2346L97.4912 32.6174L94.21 24.0002H95.2256ZM106.179 28.3596V28.1018C106.179 27.4872 106.267 26.9195 106.444 26.3987C106.621 25.8778 106.874 25.4273 107.202 25.0471C107.535 24.6669 107.934 24.3726 108.397 24.1643C108.861 23.9508 109.377 23.844 109.944 23.844C110.517 23.844 111.035 23.9508 111.499 24.1643C111.963 24.3726 112.361 24.6669 112.694 25.0471C113.028 25.4273 113.283 25.8778 113.46 26.3987C113.637 26.9195 113.726 27.4872 113.726 28.1018V28.3596C113.726 28.9742 113.637 29.5419 113.46 30.0627C113.283 30.5784 113.028 31.0263 112.694 31.4065C112.366 31.7867 111.97 32.0836 111.507 32.2971C111.043 32.5055 110.528 32.6096 109.96 32.6096C109.387 32.6096 108.869 32.5055 108.405 32.2971C107.942 32.0836 107.543 31.7867 107.21 31.4065C106.877 31.0263 106.621 30.5784 106.444 30.0627C106.267 29.5419 106.179 28.9742 106.179 28.3596ZM107.108 28.1018V28.3596C107.108 28.8232 107.171 29.2633 107.296 29.6799C107.421 30.0914 107.603 30.4586 107.843 30.7815C108.082 31.0992 108.379 31.3492 108.733 31.5315C109.088 31.7138 109.496 31.8049 109.96 31.8049C110.418 31.8049 110.822 31.7138 111.171 31.5315C111.525 31.3492 111.822 31.0992 112.062 30.7815C112.301 30.4586 112.481 30.0914 112.601 29.6799C112.726 29.2633 112.788 28.8232 112.788 28.3596V28.1018C112.788 27.6435 112.726 27.2086 112.601 26.7971C112.481 26.3857 112.299 26.0185 112.054 25.6956C111.814 25.3726 111.517 25.1174 111.163 24.9299C110.809 24.7424 110.403 24.6487 109.944 24.6487C109.486 24.6487 109.08 24.7424 108.726 24.9299C108.377 25.1174 108.08 25.3726 107.835 25.6956C107.595 26.0185 107.413 26.3857 107.288 26.7971C107.168 27.2086 107.108 27.6435 107.108 28.1018ZM116.593 25.8049V32.4534H115.663V24.0002H116.554L116.593 25.8049ZM116.382 27.7034L115.968 27.469C115.999 26.969 116.101 26.5002 116.272 26.0627C116.444 25.6252 116.676 25.2398 116.968 24.9065C117.265 24.5732 117.611 24.3127 118.007 24.1252C118.408 23.9377 118.851 23.844 119.335 23.844C119.757 23.844 120.134 23.9013 120.468 24.0159C120.801 24.1305 121.085 24.3127 121.319 24.5627C121.554 24.8127 121.731 25.1331 121.851 25.5237C121.976 25.9143 122.038 26.3909 122.038 26.9534V32.4534H121.101V26.9456C121.101 26.3622 121.02 25.9065 120.858 25.5784C120.697 25.245 120.468 25.0081 120.171 24.8674C119.874 24.7268 119.522 24.6565 119.116 24.6565C118.668 24.6565 118.275 24.7555 117.937 24.9534C117.603 25.1461 117.322 25.3987 117.093 25.7112C116.869 26.0185 116.697 26.3492 116.577 26.7034C116.457 27.0523 116.392 27.3857 116.382 27.7034ZM125.499 20.4534V32.4534H124.569V20.4534H125.499ZM129.093 24.0002V32.4534H128.163V24.0002H129.093ZM127.999 21.5549C127.999 21.3778 128.054 21.2294 128.163 21.1096C128.278 20.9846 128.434 20.9221 128.632 20.9221C128.83 20.9221 128.986 20.9846 129.101 21.1096C129.22 21.2294 129.28 21.3778 129.28 21.5549C129.28 21.7268 129.22 21.8752 129.101 22.0002C128.986 22.12 128.83 22.1799 128.632 22.1799C128.434 22.1799 128.278 22.12 128.163 22.0002C128.054 21.8752 127.999 21.7268 127.999 21.5549ZM132.577 25.8049V32.4534H131.647V24.0002H132.538L132.577 25.8049ZM132.366 27.7034L131.952 27.469C131.983 26.969 132.085 26.5002 132.257 26.0627C132.429 25.6252 132.66 25.2398 132.952 24.9065C133.249 24.5732 133.595 24.3127 133.991 24.1252C134.392 23.9377 134.835 23.844 135.319 23.844C135.741 23.844 136.119 23.9013 136.452 24.0159C136.785 24.1305 137.069 24.3127 137.304 24.5627C137.538 24.8127 137.715 25.1331 137.835 25.5237C137.96 25.9143 138.022 26.3909 138.022 26.9534V32.4534H137.085V26.9456C137.085 26.3622 137.004 25.9065 136.843 25.5784C136.681 25.245 136.452 25.0081 136.155 24.8674C135.858 24.7268 135.507 24.6565 135.101 24.6565C134.653 24.6565 134.259 24.7555 133.921 24.9534C133.588 25.1461 133.306 25.3987 133.077 25.7112C132.853 26.0185 132.681 26.3492 132.562 26.7034C132.442 27.0523 132.377 27.3857 132.366 27.7034ZM143.71 32.6096C143.158 32.6096 142.65 32.5081 142.187 32.3049C141.728 32.1018 141.327 31.8153 140.983 31.4456C140.645 31.0758 140.382 30.6383 140.194 30.1331C140.012 29.6226 139.921 29.0653 139.921 28.4612V28.1252C139.921 27.4742 140.017 26.8857 140.21 26.3596C140.403 25.8336 140.668 25.3831 141.007 25.0081C141.345 24.6331 141.731 24.3466 142.163 24.1487C142.601 23.9456 143.059 23.844 143.538 23.844C144.075 23.844 144.551 23.9403 144.968 24.1331C145.384 24.3206 145.733 24.5888 146.015 24.9377C146.301 25.2815 146.517 25.6903 146.663 26.1643C146.809 26.6331 146.882 27.1513 146.882 27.719V28.2893H140.483V27.4924H145.952V27.3831C145.942 26.9091 145.845 26.4664 145.663 26.0549C145.486 25.6383 145.22 25.2997 144.866 25.0393C144.512 24.7789 144.069 24.6487 143.538 24.6487C143.142 24.6487 142.778 24.732 142.444 24.8987C142.116 25.0653 141.832 25.3049 141.593 25.6174C141.358 25.9247 141.176 26.2919 141.046 26.719C140.921 27.1409 140.858 27.6096 140.858 28.1252V28.4612C140.858 28.9299 140.926 29.3674 141.062 29.7737C141.202 30.1747 141.4 30.5289 141.655 30.8362C141.916 31.1435 142.223 31.3831 142.577 31.5549C142.931 31.7268 143.322 31.8127 143.749 31.8127C144.249 31.8127 144.692 31.7216 145.077 31.5393C145.463 31.3518 145.809 31.0575 146.116 30.6565L146.702 31.1096C146.52 31.3805 146.291 31.6305 146.015 31.8596C145.744 32.0888 145.418 32.2711 145.038 32.4065C144.658 32.5419 144.215 32.6096 143.71 32.6096ZM152.116 28.3596V28.1018C152.116 27.4872 152.205 26.9195 152.382 26.3987C152.559 25.8778 152.812 25.4273 153.14 25.0471C153.473 24.6669 153.871 24.3726 154.335 24.1643C154.799 23.9508 155.314 23.844 155.882 23.844C156.455 23.844 156.973 23.9508 157.437 24.1643C157.9 24.3726 158.299 24.6669 158.632 25.0471C158.965 25.4273 159.22 25.8778 159.397 26.3987C159.575 26.9195 159.663 27.4872 159.663 28.1018V28.3596C159.663 28.9742 159.575 29.5419 159.397 30.0627C159.22 30.5784 158.965 31.0263 158.632 31.4065C158.304 31.7867 157.908 32.0836 157.444 32.2971C156.981 32.5055 156.465 32.6096 155.897 32.6096C155.325 32.6096 154.806 32.5055 154.343 32.2971C153.879 32.0836 153.481 31.7867 153.147 31.4065C152.814 31.0263 152.559 30.5784 152.382 30.0627C152.205 29.5419 152.116 28.9742 152.116 28.3596ZM153.046 28.1018V28.3596C153.046 28.8232 153.108 29.2633 153.233 29.6799C153.358 30.0914 153.541 30.4586 153.78 30.7815C154.02 31.0992 154.317 31.3492 154.671 31.5315C155.025 31.7138 155.434 31.8049 155.897 31.8049C156.356 31.8049 156.759 31.7138 157.108 31.5315C157.463 31.3492 157.759 31.0992 157.999 30.7815C158.239 30.4586 158.418 30.0914 158.538 29.6799C158.663 29.2633 158.726 28.8232 158.726 28.3596V28.1018C158.726 27.6435 158.663 27.2086 158.538 26.7971C158.418 26.3857 158.236 26.0185 157.991 25.6956C157.752 25.3726 157.455 25.1174 157.101 24.9299C156.746 24.7424 156.34 24.6487 155.882 24.6487C155.424 24.6487 155.017 24.7424 154.663 24.9299C154.314 25.1174 154.017 25.3726 153.772 25.6956C153.533 26.0185 153.351 26.3857 153.226 26.7971C153.106 27.2086 153.046 27.6435 153.046 28.1018ZM162.53 25.3987V32.4534H161.601V24.0002H162.507L162.53 25.3987ZM165.522 23.9377L165.499 24.7971C165.395 24.7815 165.293 24.7685 165.194 24.7581C165.095 24.7476 164.989 24.7424 164.874 24.7424C164.468 24.7424 164.111 24.818 163.804 24.969C163.502 25.1148 163.246 25.3206 163.038 25.5862C162.83 25.8466 162.671 26.1539 162.562 26.5081C162.452 26.857 162.39 27.232 162.374 27.6331L162.03 27.7659C162.03 27.2138 162.088 26.7008 162.202 26.2268C162.317 25.7528 162.491 25.3388 162.726 24.9846C162.965 24.6252 163.265 24.3466 163.624 24.1487C163.989 23.9456 164.416 23.844 164.905 23.844C165.025 23.844 165.142 23.8544 165.257 23.8752C165.377 23.8909 165.465 23.9117 165.522 23.9377ZM172.327 30.8127V20.4534H173.265V32.4534H172.39L172.327 30.8127ZM166.46 28.3127V28.1487C166.46 27.4924 166.535 26.9013 166.687 26.3752C166.838 25.844 167.054 25.3909 167.335 25.0159C167.621 24.6357 167.965 24.3466 168.366 24.1487C168.767 23.9456 169.22 23.844 169.726 23.844C170.22 23.844 170.658 23.9247 171.038 24.0862C171.418 24.2476 171.744 24.4794 172.015 24.7815C172.291 25.0836 172.512 25.443 172.679 25.8596C172.851 26.2763 172.976 26.7398 173.054 27.2502V29.3362C172.991 29.8153 172.877 30.2555 172.71 30.6565C172.543 31.0523 172.322 31.3987 172.046 31.6956C171.77 31.9872 171.437 32.2138 171.046 32.3752C170.66 32.5315 170.215 32.6096 169.71 32.6096C169.21 32.6096 168.759 32.5055 168.358 32.2971C167.957 32.0888 167.616 31.7945 167.335 31.4143C167.054 31.0289 166.838 30.5732 166.687 30.0471C166.535 29.5211 166.46 28.943 166.46 28.3127ZM167.397 28.1487V28.3127C167.397 28.8075 167.447 29.2659 167.546 29.6877C167.645 30.1096 167.796 30.4768 167.999 30.7893C168.202 31.1018 168.46 31.3466 168.772 31.5237C169.085 31.7008 169.455 31.7893 169.882 31.7893C170.418 31.7893 170.869 31.6877 171.233 31.4846C171.598 31.2763 171.89 31.0028 172.108 30.6643C172.327 30.3206 172.486 29.9456 172.585 29.5393V27.1096C172.522 26.8336 172.431 26.5523 172.312 26.2659C172.192 25.9794 172.028 25.7164 171.819 25.4768C171.616 25.232 171.356 25.0367 171.038 24.8909C170.726 24.7398 170.345 24.6643 169.897 24.6643C169.465 24.6643 169.093 24.7528 168.78 24.9299C168.468 25.107 168.207 25.3544 167.999 25.6721C167.796 25.9846 167.645 26.3518 167.546 26.7737C167.447 27.1956 167.397 27.6539 167.397 28.1487ZM178.991 32.6096C178.439 32.6096 177.931 32.5081 177.468 32.3049C177.009 32.1018 176.608 31.8153 176.265 31.4456C175.926 31.0758 175.663 30.6383 175.476 30.1331C175.293 29.6226 175.202 29.0653 175.202 28.4612V28.1252C175.202 27.4742 175.299 26.8857 175.491 26.3596C175.684 25.8336 175.95 25.3831 176.288 25.0081C176.627 24.6331 177.012 24.3466 177.444 24.1487C177.882 23.9456 178.34 23.844 178.819 23.844C179.356 23.844 179.832 23.9403 180.249 24.1331C180.666 24.3206 181.015 24.5888 181.296 24.9377C181.582 25.2815 181.799 25.6903 181.944 26.1643C182.09 26.6331 182.163 27.1513 182.163 27.719V28.2893H175.765V27.4924H181.233V27.3831C181.223 26.9091 181.127 26.4664 180.944 26.0549C180.767 25.6383 180.502 25.2997 180.147 25.0393C179.793 24.7789 179.351 24.6487 178.819 24.6487C178.424 24.6487 178.059 24.732 177.726 24.8987C177.397 25.0653 177.114 25.3049 176.874 25.6174C176.64 25.9247 176.457 26.2919 176.327 26.719C176.202 27.1409 176.14 27.6096 176.14 28.1252V28.4612C176.14 28.9299 176.207 29.3674 176.343 29.7737C176.483 30.1747 176.681 30.5289 176.937 30.8362C177.197 31.1435 177.504 31.3831 177.858 31.5549C178.213 31.7268 178.603 31.8127 179.03 31.8127C179.53 31.8127 179.973 31.7216 180.358 31.5393C180.744 31.3518 181.09 31.0575 181.397 30.6565L181.983 31.1096C181.801 31.3805 181.572 31.6305 181.296 31.8596C181.025 32.0888 180.7 32.2711 180.319 32.4065C179.939 32.5419 179.496 32.6096 178.991 32.6096ZM184.937 25.3987V32.4534H184.007V24.0002H184.913L184.937 25.3987ZM187.929 23.9377L187.905 24.7971C187.801 24.7815 187.7 24.7685 187.601 24.7581C187.502 24.7476 187.395 24.7424 187.28 24.7424C186.874 24.7424 186.517 24.818 186.21 24.969C185.908 25.1148 185.653 25.3206 185.444 25.5862C185.236 25.8466 185.077 26.1539 184.968 26.5081C184.858 26.857 184.796 27.232 184.78 27.6331L184.437 27.7659C184.437 27.2138 184.494 26.7008 184.608 26.2268C184.723 25.7528 184.897 25.3388 185.132 24.9846C185.371 24.6252 185.671 24.3466 186.03 24.1487C186.395 23.9456 186.822 23.844 187.312 23.844C187.431 23.844 187.549 23.8544 187.663 23.8752C187.783 23.8909 187.871 23.9117 187.929 23.9377ZM190.437 24.0002V32.4534H189.507V24.0002H190.437ZM189.343 21.5549C189.343 21.3778 189.397 21.2294 189.507 21.1096C189.621 20.9846 189.778 20.9221 189.976 20.9221C190.174 20.9221 190.33 20.9846 190.444 21.1096C190.564 21.2294 190.624 21.3778 190.624 21.5549C190.624 21.7268 190.564 21.8752 190.444 22.0002C190.33 22.12 190.174 22.1799 189.976 22.1799C189.778 22.1799 189.621 22.12 189.507 22.0002C189.397 21.8752 189.343 21.7268 189.343 21.5549ZM193.921 25.8049V32.4534H192.991V24.0002H193.882L193.921 25.8049ZM193.71 27.7034L193.296 27.469C193.327 26.969 193.429 26.5002 193.601 26.0627C193.772 25.6252 194.004 25.2398 194.296 24.9065C194.593 24.5732 194.939 24.3127 195.335 24.1252C195.736 23.9377 196.179 23.844 196.663 23.844C197.085 23.844 197.463 23.9013 197.796 24.0159C198.129 24.1305 198.413 24.3127 198.647 24.5627C198.882 24.8127 199.059 25.1331 199.179 25.5237C199.304 25.9143 199.366 26.3909 199.366 26.9534V32.4534H198.429V26.9456C198.429 26.3622 198.348 25.9065 198.187 25.5784C198.025 25.245 197.796 25.0081 197.499 24.8674C197.202 24.7268 196.851 24.6565 196.444 24.6565C195.996 24.6565 195.603 24.7555 195.265 24.9534C194.931 25.1461 194.65 25.3987 194.421 25.7112C194.197 26.0185 194.025 26.3492 193.905 26.7034C193.785 27.0523 193.72 27.3857 193.71 27.7034ZM207.351 24.0002H208.218V32.3049C208.218 33.0393 208.077 33.6695 207.796 34.1956C207.52 34.7216 207.127 35.1252 206.616 35.4065C206.111 35.6877 205.515 35.8284 204.827 35.8284C204.478 35.8284 204.119 35.7737 203.749 35.6643C203.384 35.5601 203.038 35.3987 202.71 35.1799C202.387 34.9664 202.111 34.7008 201.882 34.3831L202.405 33.8127C202.749 34.2294 203.116 34.5341 203.507 34.7268C203.897 34.9247 204.319 35.0237 204.772 35.0237C205.309 35.0237 205.762 34.9169 206.132 34.7034C206.507 34.4898 206.791 34.1825 206.983 33.7815C207.181 33.3805 207.28 32.8987 207.28 32.3362V25.8596L207.351 24.0002ZM201.413 28.3127V28.1487C201.413 27.4924 201.486 26.9013 201.632 26.3752C201.783 25.844 201.999 25.3909 202.28 25.0159C202.562 24.6357 202.903 24.3466 203.304 24.1487C203.71 23.9456 204.168 23.844 204.679 23.844C205.168 23.844 205.603 23.9247 205.983 24.0862C206.364 24.2476 206.692 24.4794 206.968 24.7815C207.244 25.0836 207.465 25.443 207.632 25.8596C207.804 26.2763 207.929 26.7398 208.007 27.2502V29.3362C207.944 29.8153 207.83 30.2555 207.663 30.6565C207.496 31.0523 207.275 31.3987 206.999 31.6956C206.723 31.9872 206.39 32.2138 205.999 32.3752C205.614 32.5315 205.168 32.6096 204.663 32.6096C204.158 32.6096 203.705 32.5055 203.304 32.2971C202.903 32.0888 202.562 31.7945 202.28 31.4143C201.999 31.0289 201.783 30.5732 201.632 30.0471C201.486 29.5211 201.413 28.943 201.413 28.3127ZM202.351 28.1487V28.3127C202.351 28.8075 202.4 29.2659 202.499 29.6877C202.598 30.1096 202.749 30.4768 202.952 30.7893C203.155 31.1018 203.413 31.3466 203.726 31.5237C204.038 31.7008 204.405 31.7893 204.827 31.7893C205.364 31.7893 205.814 31.6877 206.179 31.4846C206.543 31.2763 206.832 31.0028 207.046 30.6643C207.259 30.3206 207.416 29.9456 207.515 29.5393V27.1096C207.457 26.8336 207.369 26.5523 207.249 26.2659C207.134 25.9794 206.973 25.7164 206.765 25.4768C206.562 25.232 206.301 25.0367 205.983 24.8909C205.671 24.7398 205.291 24.6643 204.843 24.6643C204.416 24.6643 204.043 24.7528 203.726 24.9299C203.413 25.107 203.155 25.3544 202.952 25.6721C202.749 25.9846 202.598 26.3518 202.499 26.7737C202.4 27.1956 202.351 27.6539 202.351 28.1487ZM211.562 30.9768V32.0706C211.562 32.5497 211.463 33.0107 211.265 33.4534C211.067 33.9013 210.799 34.2789 210.46 34.5862L209.913 34.1799C210.075 33.9612 210.21 33.7424 210.319 33.5237C210.429 33.3101 210.509 33.0862 210.562 32.8518C210.619 32.6174 210.647 32.3648 210.647 32.094V30.9768H211.562ZM76.7412 50.7815V51.5784H68.6865V51.0393L73.9443 43.0784H74.7256L73.6162 45.0081L69.8271 50.7815H76.7412ZM74.9678 43.0784V54.4534H74.0381V43.0784H74.9678ZM87.6553 52.8127V42.4534H88.5928V54.4534H87.7178L87.6553 52.8127ZM81.7881 50.3127V50.1487C81.7881 49.4924 81.8636 48.9013 82.0146 48.3752C82.1657 47.844 82.3818 47.3909 82.6631 47.0159C82.9495 46.6357 83.2933 46.3466 83.6943 46.1487C84.0954 45.9456 84.5485 45.844 85.0537 45.844C85.5485 45.844 85.986 45.9247 86.3662 46.0862C86.7464 46.2476 87.0719 46.4794 87.3428 46.7815C87.6188 47.0836 87.8402 47.443 88.0068 47.8596C88.1787 48.2763 88.3037 48.7398 88.3818 49.2502V51.3362C88.3193 51.8153 88.2048 52.2555 88.0381 52.6565C87.8714 53.0523 87.6501 53.3987 87.374 53.6956C87.098 53.9872 86.7646 54.2138 86.374 54.3752C85.9886 54.5315 85.5433 54.6096 85.0381 54.6096C84.5381 54.6096 84.0876 54.5055 83.6865 54.2971C83.2855 54.0888 82.9443 53.7945 82.6631 53.4143C82.3818 53.0289 82.1657 52.5732 82.0146 52.0471C81.8636 51.5211 81.7881 50.943 81.7881 50.3127ZM82.7256 50.1487V50.3127C82.7256 50.8075 82.7751 51.2659 82.874 51.6877C82.973 52.1096 83.124 52.4768 83.3271 52.7893C83.5303 53.1018 83.7881 53.3466 84.1006 53.5237C84.4131 53.7008 84.7829 53.7893 85.21 53.7893C85.7464 53.7893 86.1969 53.6877 86.5615 53.4846C86.9261 53.2763 87.2178 53.0028 87.4365 52.6643C87.6553 52.3206 87.8141 51.9456 87.9131 51.5393V49.1096C87.8506 48.8336 87.7594 48.5523 87.6396 48.2659C87.5199 47.9794 87.3558 47.7164 87.1475 47.4768C86.9443 47.232 86.6839 47.0367 86.3662 46.8909C86.0537 46.7398 85.6735 46.6643 85.2256 46.6643C84.7933 46.6643 84.4209 46.7528 84.1084 46.9299C83.7959 47.107 83.5355 47.3544 83.3271 47.6721C83.124 47.9846 82.973 48.3518 82.874 48.7737C82.7751 49.1956 82.7256 49.6539 82.7256 50.1487ZM96.1943 52.9377V48.5784C96.1943 48.1773 96.111 47.831 95.9443 47.5393C95.7777 47.2476 95.5329 47.0237 95.21 46.8674C94.887 46.7112 94.4886 46.6331 94.0146 46.6331C93.5771 46.6331 93.1865 46.7112 92.8428 46.8674C92.5042 47.0185 92.236 47.2242 92.0381 47.4846C91.8454 47.7398 91.749 48.0237 91.749 48.3362L90.8115 48.3284C90.8115 48.0107 90.8896 47.7034 91.0459 47.4065C91.2021 47.1096 91.4235 46.844 91.71 46.6096C91.9964 46.3752 92.3376 46.1903 92.7334 46.0549C93.1344 45.9143 93.5745 45.844 94.0537 45.844C94.6579 45.844 95.1891 45.9456 95.6475 46.1487C96.111 46.3518 96.473 46.6565 96.7334 47.0627C96.9938 47.469 97.124 47.9794 97.124 48.594V52.6799C97.124 52.9716 97.1449 53.2737 97.1865 53.5862C97.2334 53.8987 97.2985 54.1565 97.3818 54.3596V54.4534H96.3896C96.3271 54.2659 96.2777 54.0315 96.2412 53.7502C96.21 53.4638 96.1943 53.193 96.1943 52.9377ZM96.4131 49.5315L96.4287 50.2502H94.5928C94.1136 50.2502 93.6839 50.2945 93.3037 50.3831C92.9287 50.4664 92.611 50.5914 92.3506 50.7581C92.0902 50.9195 91.8896 51.1148 91.749 51.344C91.6136 51.5732 91.5459 51.8336 91.5459 52.1252C91.5459 52.4273 91.6214 52.7034 91.7725 52.9534C91.9287 53.2034 92.1475 53.4039 92.4287 53.5549C92.7152 53.7008 93.0537 53.7737 93.4443 53.7737C93.9652 53.7737 94.4235 53.6773 94.8193 53.4846C95.2204 53.2919 95.5511 53.0393 95.8115 52.7268C96.0719 52.4143 96.2464 52.0732 96.335 51.7034L96.7412 52.2424C96.6735 52.5028 96.5485 52.7711 96.3662 53.0471C96.1891 53.318 95.9574 53.5732 95.6709 53.8127C95.3844 54.0471 95.0459 54.2398 94.6553 54.3909C94.2699 54.5367 93.8324 54.6096 93.3428 54.6096C92.7907 54.6096 92.3089 54.5055 91.8975 54.2971C91.4912 54.0888 91.1735 53.8049 90.9443 53.4456C90.7204 53.081 90.6084 52.6695 90.6084 52.2112C90.6084 51.7945 90.6969 51.4221 90.874 51.094C91.0511 50.7607 91.3063 50.4794 91.6396 50.2502C91.9782 50.0159 92.3844 49.8388 92.8584 49.719C93.3376 49.594 93.874 49.5315 94.4678 49.5315H96.4131ZM102.015 53.6096L104.647 46.0002H105.655L102.077 55.8127C102.004 56.0055 101.91 56.219 101.796 56.4534C101.687 56.6877 101.541 56.9117 101.358 57.1252C101.181 57.344 100.957 57.5211 100.687 57.6565C100.421 57.7971 100.095 57.8674 99.71 57.8674C99.611 57.8674 99.4834 57.8544 99.3271 57.8284C99.1761 57.8075 99.0667 57.7867 98.999 57.7659L98.9912 56.9768C99.0485 56.9924 99.1318 57.0055 99.2412 57.0159C99.3506 57.0263 99.4261 57.0315 99.4678 57.0315C99.8063 57.0315 100.09 56.9742 100.319 56.8596C100.554 56.745 100.749 56.5732 100.905 56.344C101.062 56.12 101.2 55.8388 101.319 55.5002L102.015 53.6096ZM99.5537 46.0002L102.249 53.2581L102.499 54.2346L101.819 54.6174L98.5381 46.0002H99.5537ZM114.218 46.0002V46.7659H109.983V46.0002H114.218ZM111.538 43.8284H112.468V52.3987C112.468 52.7893 112.52 53.0836 112.624 53.2815C112.728 53.4794 112.864 53.6122 113.03 53.6799C113.197 53.7476 113.377 53.7815 113.569 53.7815C113.71 53.7815 113.845 53.7737 113.976 53.7581C114.106 53.7372 114.223 53.7164 114.327 53.6956L114.366 54.4846C114.252 54.5211 114.103 54.5497 113.921 54.5706C113.739 54.5966 113.556 54.6096 113.374 54.6096C113.015 54.6096 112.697 54.5445 112.421 54.4143C112.145 54.2789 111.929 54.0497 111.772 53.7268C111.616 53.3987 111.538 52.9534 111.538 52.3909V43.8284ZM121.593 52.5002V46.0002H122.53V54.4534H121.632L121.593 52.5002ZM121.765 50.9377L122.249 50.9221C122.249 51.4534 122.187 51.943 122.062 52.3909C121.937 52.8388 121.741 53.2294 121.476 53.5627C121.21 53.8961 120.866 54.1539 120.444 54.3362C120.022 54.5185 119.515 54.6096 118.921 54.6096C118.509 54.6096 118.132 54.5523 117.788 54.4377C117.45 54.318 117.158 54.1305 116.913 53.8752C116.668 53.62 116.478 53.2893 116.343 52.8831C116.213 52.4768 116.147 51.9846 116.147 51.4065V46.0002H117.077V51.4221C117.077 51.8752 117.127 52.2528 117.226 52.5549C117.33 52.857 117.47 53.0992 117.647 53.2815C117.83 53.4638 118.038 53.594 118.272 53.6721C118.507 53.7502 118.759 53.7893 119.03 53.7893C119.718 53.7893 120.259 53.6565 120.655 53.3909C121.056 53.1252 121.34 52.7763 121.507 52.344C121.679 51.9065 121.765 51.4377 121.765 50.9377ZM125.905 47.3987V54.4534H124.976V46.0002H125.882L125.905 47.3987ZM128.897 45.9377L128.874 46.7971C128.77 46.7815 128.668 46.7685 128.569 46.7581C128.47 46.7476 128.364 46.7424 128.249 46.7424C127.843 46.7424 127.486 46.818 127.179 46.969C126.877 47.1148 126.621 47.3206 126.413 47.5862C126.205 47.8466 126.046 48.1539 125.937 48.5081C125.827 48.857 125.765 49.232 125.749 49.6331L125.405 49.7659C125.405 49.2138 125.463 48.7008 125.577 48.2268C125.692 47.7528 125.866 47.3388 126.101 46.9846C126.34 46.6252 126.64 46.3466 126.999 46.1487C127.364 45.9456 127.791 45.844 128.28 45.844C128.4 45.844 128.517 45.8544 128.632 45.8752C128.752 45.8909 128.84 45.9117 128.897 45.9377ZM131.296 47.8049V54.4534H130.366V46.0002H131.257L131.296 47.8049ZM131.085 49.7034L130.671 49.469C130.702 48.969 130.804 48.5002 130.976 48.0627C131.147 47.6252 131.379 47.2398 131.671 46.9065C131.968 46.5732 132.314 46.3127 132.71 46.1252C133.111 45.9377 133.554 45.844 134.038 45.844C134.46 45.844 134.838 45.9013 135.171 46.0159C135.504 46.1305 135.788 46.3127 136.022 46.5627C136.257 46.8127 136.434 47.1331 136.554 47.5237C136.679 47.9143 136.741 48.3909 136.741 48.9534V54.4534H135.804V48.9456C135.804 48.3622 135.723 47.9065 135.562 47.5784C135.4 47.245 135.171 47.0081 134.874 46.8674C134.577 46.7268 134.226 46.6565 133.819 46.6565C133.371 46.6565 132.978 46.7555 132.64 46.9534C132.306 47.1461 132.025 47.3987 131.796 47.7112C131.572 48.0185 131.4 48.3492 131.28 48.7034C131.16 49.0523 131.095 49.3857 131.085 49.7034ZM144.304 52.9377V48.5784C144.304 48.1773 144.22 47.831 144.054 47.5393C143.887 47.2476 143.642 47.0237 143.319 46.8674C142.996 46.7112 142.598 46.6331 142.124 46.6331C141.687 46.6331 141.296 46.7112 140.952 46.8674C140.614 47.0185 140.345 47.2242 140.147 47.4846C139.955 47.7398 139.858 48.0237 139.858 48.3362L138.921 48.3284C138.921 48.0107 138.999 47.7034 139.155 47.4065C139.312 47.1096 139.533 46.844 139.819 46.6096C140.106 46.3752 140.447 46.1903 140.843 46.0549C141.244 45.9143 141.684 45.844 142.163 45.844C142.767 45.844 143.299 45.9456 143.757 46.1487C144.22 46.3518 144.582 46.6565 144.843 47.0627C145.103 47.469 145.233 47.9794 145.233 48.594V52.6799C145.233 52.9716 145.254 53.2737 145.296 53.5862C145.343 53.8987 145.408 54.1565 145.491 54.3596V54.4534H144.499C144.437 54.2659 144.387 54.0315 144.351 53.7502C144.319 53.4638 144.304 53.193 144.304 52.9377ZM144.522 49.5315L144.538 50.2502H142.702C142.223 50.2502 141.793 50.2945 141.413 50.3831C141.038 50.4664 140.72 50.5914 140.46 50.7581C140.2 50.9195 139.999 51.1148 139.858 51.344C139.723 51.5732 139.655 51.8336 139.655 52.1252C139.655 52.4273 139.731 52.7034 139.882 52.9534C140.038 53.2034 140.257 53.4039 140.538 53.5549C140.825 53.7008 141.163 53.7737 141.554 53.7737C142.075 53.7737 142.533 53.6773 142.929 53.4846C143.33 53.2919 143.66 53.0393 143.921 52.7268C144.181 52.4143 144.356 52.0732 144.444 51.7034L144.851 52.2424C144.783 52.5028 144.658 52.7711 144.476 53.0471C144.299 53.318 144.067 53.5732 143.78 53.8127C143.494 54.0471 143.155 54.2398 142.765 54.3909C142.379 54.5367 141.942 54.6096 141.452 54.6096C140.9 54.6096 140.418 54.5055 140.007 54.2971C139.601 54.0888 139.283 53.8049 139.054 53.4456C138.83 53.081 138.718 52.6695 138.718 52.2112C138.718 51.7945 138.806 51.4221 138.983 51.094C139.16 50.7607 139.416 50.4794 139.749 50.2502C140.088 50.0159 140.494 49.8388 140.968 49.719C141.447 49.594 141.983 49.5315 142.577 49.5315H144.522ZM148.671 47.3987V54.4534H147.741V46.0002H148.647L148.671 47.3987ZM151.663 45.9377L151.64 46.7971C151.535 46.7815 151.434 46.7685 151.335 46.7581C151.236 46.7476 151.129 46.7424 151.015 46.7424C150.608 46.7424 150.252 46.818 149.944 46.969C149.642 47.1148 149.387 47.3206 149.179 47.5862C148.97 47.8466 148.812 48.1539 148.702 48.5081C148.593 48.857 148.53 49.232 148.515 49.6331L148.171 49.7659C148.171 49.2138 148.228 48.7008 148.343 48.2268C148.457 47.7528 148.632 47.3388 148.866 46.9846C149.106 46.6252 149.405 46.3466 149.765 46.1487C150.129 45.9456 150.556 45.844 151.046 45.844C151.166 45.844 151.283 45.8544 151.397 45.8752C151.517 45.8909 151.606 45.9117 151.663 45.9377ZM152.46 50.3596V50.1018C152.46 49.4872 152.549 48.9195 152.726 48.3987C152.903 47.8778 153.155 47.4273 153.483 47.0471C153.817 46.6669 154.215 46.3726 154.679 46.1643C155.142 45.9508 155.658 45.844 156.226 45.844C156.799 45.844 157.317 45.9508 157.78 46.1643C158.244 46.3726 158.642 46.6669 158.976 47.0471C159.309 47.4273 159.564 47.8778 159.741 48.3987C159.918 48.9195 160.007 49.4872 160.007 50.1018V50.3596C160.007 50.9742 159.918 51.5419 159.741 52.0627C159.564 52.5784 159.309 53.0263 158.976 53.4065C158.647 53.7867 158.252 54.0836 157.788 54.2971C157.325 54.5055 156.809 54.6096 156.241 54.6096C155.668 54.6096 155.15 54.5055 154.687 54.2971C154.223 54.0836 153.825 53.7867 153.491 53.4065C153.158 53.0263 152.903 52.5784 152.726 52.0627C152.549 51.5419 152.46 50.9742 152.46 50.3596ZM153.39 50.1018V50.3596C153.39 50.8232 153.452 51.2633 153.577 51.6799C153.702 52.0914 153.884 52.4586 154.124 52.7815C154.364 53.0992 154.66 53.3492 155.015 53.5315C155.369 53.7138 155.778 53.8049 156.241 53.8049C156.7 53.8049 157.103 53.7138 157.452 53.5315C157.806 53.3492 158.103 53.0992 158.343 52.7815C158.582 52.4586 158.762 52.0914 158.882 51.6799C159.007 51.2633 159.069 50.8232 159.069 50.3596V50.1018C159.069 49.6435 159.007 49.2086 158.882 48.7971C158.762 48.3857 158.58 48.0185 158.335 47.6956C158.095 47.3726 157.799 47.1174 157.444 46.9299C157.09 46.7424 156.684 46.6487 156.226 46.6487C155.767 46.6487 155.361 46.7424 155.007 46.9299C154.658 47.1174 154.361 47.3726 154.116 47.6956C153.877 48.0185 153.694 48.3857 153.569 48.7971C153.45 49.2086 153.39 49.6435 153.39 50.1018ZM167.358 52.5002V46.0002H168.296V54.4534H167.397L167.358 52.5002ZM167.53 50.9377L168.015 50.9221C168.015 51.4534 167.952 51.943 167.827 52.3909C167.702 52.8388 167.507 53.2294 167.241 53.5627C166.976 53.8961 166.632 54.1539 166.21 54.3362C165.788 54.5185 165.28 54.6096 164.687 54.6096C164.275 54.6096 163.897 54.5523 163.554 54.4377C163.215 54.318 162.924 54.1305 162.679 53.8752C162.434 53.62 162.244 53.2893 162.108 52.8831C161.978 52.4768 161.913 51.9846 161.913 51.4065V46.0002H162.843V51.4221C162.843 51.8752 162.892 52.2528 162.991 52.5549C163.095 52.857 163.236 53.0992 163.413 53.2815C163.595 53.4638 163.804 53.594 164.038 53.6721C164.272 53.7502 164.525 53.7893 164.796 53.7893C165.483 53.7893 166.025 53.6565 166.421 53.3909C166.822 53.1252 167.106 52.7763 167.272 52.344C167.444 51.9065 167.53 51.4377 167.53 50.9377ZM171.671 47.8049V54.4534H170.741V46.0002H171.632L171.671 47.8049ZM171.46 49.7034L171.046 49.469C171.077 48.969 171.179 48.5002 171.351 48.0627C171.522 47.6252 171.754 47.2398 172.046 46.9065C172.343 46.5732 172.689 46.3127 173.085 46.1252C173.486 45.9377 173.929 45.844 174.413 45.844C174.835 45.844 175.213 45.9013 175.546 46.0159C175.879 46.1305 176.163 46.3127 176.397 46.5627C176.632 46.8127 176.809 47.1331 176.929 47.5237C177.054 47.9143 177.116 48.3909 177.116 48.9534V54.4534H176.179V48.9456C176.179 48.3622 176.098 47.9065 175.937 47.5784C175.775 47.245 175.546 47.0081 175.249 46.8674C174.952 46.7268 174.601 46.6565 174.194 46.6565C173.746 46.6565 173.353 46.7555 173.015 46.9534C172.681 47.1461 172.4 47.3987 172.171 47.7112C171.947 48.0185 171.775 48.3492 171.655 48.7034C171.535 49.0523 171.47 49.3857 171.46 49.7034ZM185.03 52.8127V42.4534H185.968V54.4534H185.093L185.03 52.8127ZM179.163 50.3127V50.1487C179.163 49.4924 179.239 48.9013 179.39 48.3752C179.541 47.844 179.757 47.3909 180.038 47.0159C180.325 46.6357 180.668 46.3466 181.069 46.1487C181.47 45.9456 181.924 45.844 182.429 45.844C182.924 45.844 183.361 45.9247 183.741 46.0862C184.121 46.2476 184.447 46.4794 184.718 46.7815C184.994 47.0836 185.215 47.443 185.382 47.8596C185.554 48.2763 185.679 48.7398 185.757 49.2502V51.3362C185.694 51.8153 185.58 52.2555 185.413 52.6565C185.246 53.0523 185.025 53.3987 184.749 53.6956C184.473 53.9872 184.14 54.2138 183.749 54.3752C183.364 54.5315 182.918 54.6096 182.413 54.6096C181.913 54.6096 181.463 54.5055 181.062 54.2971C180.66 54.0888 180.319 53.7945 180.038 53.4143C179.757 53.0289 179.541 52.5732 179.39 52.0471C179.239 51.5211 179.163 50.943 179.163 50.3127ZM180.101 50.1487V50.3127C180.101 50.8075 180.15 51.2659 180.249 51.6877C180.348 52.1096 180.499 52.4768 180.702 52.7893C180.905 53.1018 181.163 53.3466 181.476 53.5237C181.788 53.7008 182.158 53.7893 182.585 53.7893C183.121 53.7893 183.572 53.6877 183.937 53.4846C184.301 53.2763 184.593 53.0028 184.812 52.6643C185.03 52.3206 185.189 51.9456 185.288 51.5393V49.1096C185.226 48.8336 185.134 48.5523 185.015 48.2659C184.895 47.9794 184.731 47.7164 184.522 47.4768C184.319 47.232 184.059 47.0367 183.741 46.8909C183.429 46.7398 183.049 46.6643 182.601 46.6643C182.168 46.6643 181.796 46.7528 181.483 46.9299C181.171 47.107 180.91 47.3544 180.702 47.6721C180.499 47.9846 180.348 48.3518 180.249 48.7737C180.15 49.1956 180.101 49.6539 180.101 50.1487Z" fill="black"/>
<defs>
<clipPath id="clip0_2_5253">
<rect width="40" height="40" fill="white" transform="translate(16.1553 16.4534)"/>
</clipPath>
</defs>
</svg>
