<svg width="322" height="24" viewBox="0 0 322 24" fill="none" xmlns="http://www.w3.org/2000/svg">
<path fill-rule="evenodd" clip-rule="evenodd" d="M17.6855 5.8044L15.5729 17.976L19.0491 17.9679L21.162 5.79633L17.6855 5.8044ZM12.588 5.81624L9.31495 14.192L8.914 12.391L8.91428 12.3915L8.82589 11.9879C8.42088 11.2011 7.48447 9.70628 5.72394 8.43276C5.20345 8.05634 4.67906 7.73527 4.17231 7.46115L7.23661 17.9953L10.8586 17.9869L16.3295 5.80755L12.588 5.81624ZM26.1718 9.16241C26.1651 7.78687 29.5515 7.95576 31.0428 8.69922L31.526 6.08502C31.526 6.08502 29.9924 5.55807 28.3966 5.56178C26.6713 5.56578 22.578 6.26272 22.5945 9.60294C22.6101 12.7465 27.4185 12.7744 27.4267 14.4248C27.4348 16.0752 23.1208 15.7903 21.6925 14.7525L21.1888 17.4849C21.1888 17.4849 22.7443 18.1687 25.1165 18.1632C27.4885 18.1577 31.0623 17.0298 31.0473 13.9842C31.0316 10.821 26.1786 10.5376 26.1718 9.16241ZM40.3408 5.7518L37.5458 5.75829C36.2552 5.76129 35.9454 6.66872 35.9454 6.66872L30.8168 17.9406L34.4402 17.9322L35.1561 16.1234L39.5755 16.1132L39.9921 17.9193L43.184 17.9119L40.3408 5.7518ZM36.1455 13.6244L37.9498 9.06715L38.9999 13.6178L36.1455 13.6244Z" fill="#005BAC"/>
<path fill-rule="evenodd" clip-rule="evenodd" d="M7.78314 6.94693C7.78314 6.94693 7.63918 5.85144 6.10241 5.85144H0.519164L0.453766 6.05732C0.453766 6.05732 3.13752 6.55444 5.71224 8.41689C8.17275 10.1969 8.97541 12.4159 8.97541 12.4159L7.78314 6.94693Z" fill="#F6AC1D"/>
<path d="M59.3125 19.125C63.3511 19.125 66.625 15.8511 66.625 11.8125C66.625 7.77392 63.3511 4.5 59.3125 4.5C55.2739 4.5 52 7.77392 52 11.8125C52 15.8511 55.2739 19.125 59.3125 19.125Z" fill="#F93232"/>
<path d="M68.0875 4.5C66.4451 4.5 64.9343 5.04844 63.7146 5.9625H63.7V5.97274C63.4104 6.19065 63.1442 6.43635 62.8905 6.69375H64.5095C64.7347 6.92263 64.9424 7.1676 65.1347 7.425H62.2594C62.0825 7.65827 61.9201 7.90177 61.7717 8.15625H65.621C65.7585 8.39317 65.8879 8.63449 65.9998 8.8875H61.3995C61.2949 9.12516 61.2028 9.36866 61.1238 9.61875H66.2747C66.3508 9.85714 66.4107 10.1021 66.4634 10.35H60.9329C60.8839 10.5898 60.843 10.8326 60.8181 11.0812H66.5811C66.6096 11.3211 66.625 11.5646 66.625 11.8125H60.775C60.775 12.0604 60.7947 12.3024 60.8189 12.5437H66.5826C66.5548 12.7916 66.5146 13.0351 66.4641 13.275H60.9337C60.9841 13.5244 61.0492 13.7671 61.1245 14.0062H66.2755C66.1965 14.2563 66.1043 14.4998 65.9998 14.7375H61.3995C61.5099 14.989 61.6342 15.2333 61.7717 15.4688H65.621C65.4733 15.7232 65.3087 15.9667 65.1318 16.2H62.2594C62.4539 16.4574 62.6638 16.7024 62.8898 16.9312H64.5095C64.255 17.1894 63.9896 17.4344 63.7 17.6523C64.9226 18.5729 66.4385 19.125 68.0875 19.125C72.1262 19.125 75.4 15.8505 75.4 11.8125C75.4 7.77454 72.1262 4.5 68.0875 4.5Z" fill="#FED049"/>
<path d="M125.756 8.77209H122.905C122.738 8.77209 122.57 8.9398 122.486 9.1075L121.312 16.4865C121.312 16.6542 121.396 16.7381 121.564 16.7381H123.073C123.241 16.7381 123.325 16.6542 123.325 16.4865L123.66 14.3902C123.66 14.2225 123.828 14.0548 124.079 14.0548H125.002C126.93 14.0548 128.02 13.1324 128.272 11.2877C128.44 10.533 128.272 9.86217 127.937 9.44291C127.433 9.02365 126.679 8.77209 125.756 8.77209ZM126.092 11.5392C125.924 12.5454 125.169 12.5454 124.415 12.5454H123.912L124.247 10.6168C124.247 10.533 124.331 10.4491 124.499 10.4491H124.666C125.169 10.4491 125.673 10.4491 125.924 10.7845C126.092 10.8684 126.092 11.12 126.092 11.5392Z" fill="#139AD6"/>
<path d="M105.213 8.77209H102.362C102.194 8.77209 102.026 8.9398 101.942 9.1075L100.769 16.4865C100.769 16.6542 100.852 16.7381 101.02 16.7381H102.362C102.529 16.7381 102.697 16.5703 102.781 16.4026L103.116 14.3902C103.116 14.2225 103.284 14.0548 103.536 14.0548H104.458C106.387 14.0548 107.477 13.1324 107.728 11.2877C107.896 10.533 107.728 9.86217 107.393 9.44291C106.89 9.02365 106.219 8.77209 105.213 8.77209ZM105.548 11.5392C105.38 12.5454 104.626 12.5454 103.871 12.5454H103.452L103.787 10.6168C103.787 10.533 103.871 10.4491 104.039 10.4491H104.206C104.71 10.4491 105.213 10.4491 105.464 10.7845C105.548 10.8684 105.632 11.12 105.548 11.5392Z" fill="#263B80"/>
<path d="M113.849 11.4552H112.508C112.424 11.4552 112.256 11.5391 112.256 11.6229L112.172 12.0422L112.088 11.8745C111.753 11.4552 111.166 11.2875 110.495 11.2875C108.986 11.2875 107.644 12.4615 107.393 14.0547C107.225 14.8932 107.477 15.6479 107.896 16.151C108.315 16.6541 108.902 16.8218 109.657 16.8218C110.915 16.8218 111.585 16.0671 111.585 16.0671L111.502 16.4864C111.502 16.6541 111.585 16.7379 111.753 16.7379H113.011C113.179 16.7379 113.346 16.5702 113.43 16.4025L114.185 11.7068C114.101 11.6229 113.933 11.4552 113.849 11.4552ZM111.921 14.1385C111.753 14.8932 111.166 15.4801 110.328 15.4801C109.908 15.4801 109.573 15.3124 109.405 15.1447C109.238 14.8932 109.154 14.5578 109.154 14.1385C109.238 13.3838 109.908 12.7969 110.663 12.7969C111.082 12.7969 111.334 12.9646 111.585 13.1323C111.837 13.3838 111.921 13.8031 111.921 14.1385Z" fill="#263B80"/>
<path d="M134.309 11.4552H132.968C132.884 11.4552 132.716 11.5391 132.716 11.6229L132.632 12.0422L132.548 11.8745C132.213 11.4552 131.626 11.2875 130.955 11.2875C129.446 11.2875 128.104 12.4615 127.853 14.0547C127.685 14.8932 127.937 15.6479 128.356 16.151C128.775 16.6541 129.362 16.8218 130.117 16.8218C131.375 16.8218 132.045 16.0671 132.045 16.0671L131.961 16.4864C131.961 16.6541 132.045 16.7379 132.213 16.7379H133.471C133.639 16.7379 133.806 16.5702 133.89 16.4025L134.645 11.7068C134.561 11.6229 134.477 11.4552 134.309 11.4552ZM132.381 14.1385C132.213 14.8932 131.626 15.4801 130.788 15.4801C130.368 15.4801 130.033 15.3124 129.865 15.1447C129.697 14.8932 129.614 14.5578 129.614 14.1385C129.697 13.3838 130.368 12.7969 131.123 12.7969C131.542 12.7969 131.794 12.9646 132.045 13.1323C132.381 13.3838 132.465 13.8031 132.381 14.1385Z" fill="#139AD6"/>
<path d="M121.144 11.4549H119.719C119.551 11.4549 119.467 11.5387 119.384 11.6226L117.539 14.4736L116.7 11.7903C116.616 11.6226 116.533 11.5387 116.281 11.5387H114.939C114.772 11.5387 114.688 11.7065 114.688 11.8742L116.197 16.3183L114.772 18.3308C114.688 18.4985 114.772 18.75 114.939 18.75H116.281C116.449 18.75 116.533 18.6662 116.616 18.5823L121.228 11.958C121.48 11.7065 121.312 11.4549 121.144 11.4549Z" fill="#263B80"/>
<path d="M135.903 9.02323L134.729 16.5699C134.729 16.7376 134.813 16.8215 134.98 16.8215H136.154C136.322 16.8215 136.49 16.6538 136.573 16.4861L137.747 9.10708C137.747 8.93938 137.664 8.85553 137.496 8.85553H136.154C136.07 8.77168 135.986 8.85553 135.903 9.02323Z" fill="#139AD6"/>
<path d="M94.5634 6.25623C93.9765 5.58541 92.8864 5.25 91.377 5.25H87.1844C86.9329 5.25 86.6813 5.50156 86.5975 5.75311L84.9204 16.7378C84.9204 16.9893 85.0881 17.157 85.2558 17.157H87.8552L88.5261 13.0483V13.216C88.6099 12.9644 88.8615 12.7128 89.113 12.7128H90.3708C92.8025 12.7128 94.6473 11.7066 95.2342 8.9395C95.2342 8.85565 95.2342 8.77179 95.2342 8.68794C95.1504 8.68794 95.1504 8.68794 95.2342 8.68794C95.3181 7.59786 95.1504 6.92705 94.5634 6.25623Z" fill="#263B80"/>
<path d="M95.1503 8.68799C95.1503 8.77184 95.1503 8.85569 95.1503 8.93954C94.5634 11.7905 92.7186 12.7129 90.2869 12.7129H89.0291C88.7776 12.7129 88.526 12.9645 88.4422 13.216L87.6036 18.331C87.6036 18.4987 87.6875 18.6664 87.939 18.6664H90.1192C90.3708 18.6664 90.6223 18.4987 90.6223 18.2471V18.1633L91.0416 15.5639V15.3962C91.0416 15.1446 91.2931 14.9769 91.5447 14.9769H91.8801C93.9764 14.9769 95.6535 14.1384 96.0727 11.6228C96.2404 10.6166 96.1566 9.69421 95.6535 9.10725C95.5696 8.93954 95.4019 8.77184 95.1503 8.68799Z" fill="#139AD6"/>
<path d="M94.5635 8.43649C94.4796 8.43649 94.3957 8.35264 94.3119 8.35264C94.228 8.35264 94.1442 8.35264 94.0603 8.26879C93.7249 8.18494 93.3895 8.18494 92.9703 8.18494H89.7C89.6162 8.18494 89.5323 8.18494 89.4485 8.26879C89.2808 8.35264 89.1969 8.52035 89.1969 8.68805L88.5261 13.0484V13.2161C88.6099 12.9645 88.8615 12.713 89.1131 12.713H90.3708C92.8026 12.713 94.6473 11.7067 95.2343 8.93961C95.2343 8.85575 95.2343 8.7719 95.3181 8.68805C95.1504 8.6042 95.0666 8.52035 94.8989 8.52035C94.6473 8.43649 94.6473 8.43649 94.5635 8.43649Z" fill="#232C65"/>
<g clip-path="url(#clip0_57_8588)">
<path fill-rule="evenodd" clip-rule="evenodd" d="M178.587 12.1851C178.587 11.3673 177.876 10.6857 177.033 10.6857C176.19 10.6857 175.479 11.3673 175.479 12.1851C175.479 12.9907 176.19 13.6846 177.033 13.6846C177.876 13.6846 178.587 12.9907 178.587 12.1851ZM179.259 10.0909C179.851 10.6609 180.18 11.4044 180.18 12.1851C180.18 12.9659 179.851 13.7094 179.259 14.2794C178.666 14.837 177.876 15.1345 177.033 15.1345C176.48 15.1345 175.979 14.9486 175.545 14.5768L175.479 14.5273V17.8461L173.886 18.3192V9.34724H175.479V9.79349L175.545 9.73142C176.019 9.29779 176.559 9.23584 177.033 9.23584C177.863 9.23584 178.653 9.53334 179.259 10.0909Z" fill="#31322F"/>
<path fill-rule="evenodd" clip-rule="evenodd" d="M182.34 12.1851C182.34 13.003 183.051 13.6846 183.894 13.6846C184.737 13.6846 185.448 13.003 185.448 12.1851C185.448 11.3796 184.737 10.6857 183.894 10.6857C183.051 10.6857 182.34 11.3796 182.34 12.1851ZM181.669 14.2794C181.076 13.7094 180.747 12.9659 180.747 12.1851C180.747 11.4044 181.076 10.6609 181.669 10.0909C182.261 9.53334 183.051 9.23584 183.894 9.23584C184.447 9.23584 184.948 9.42168 185.382 9.79349L185.448 9.84295V9.34724H187.042V15.0231H185.448V14.5768L185.382 14.6389C184.908 15.0725 184.368 15.1345 183.894 15.1345C183.065 15.1345 182.275 14.837 181.669 14.2794Z" fill="#31322F"/>
<path fill-rule="evenodd" clip-rule="evenodd" d="M188.635 18.3192L190.071 15.0353L187.661 9.34717H189.426L190.927 12.879L192.454 9.34717H194.206L190.361 18.3192H188.635Z" fill="#31322F"/>
<path fill-rule="evenodd" clip-rule="evenodd" d="M150.583 10.1913C149.422 10.1913 148.477 11.0858 148.477 12.1851C148.477 13.2844 149.422 14.1789 150.583 14.1789C151.744 14.1789 152.689 13.2844 152.689 12.1851C152.689 11.0858 151.744 10.1913 150.583 10.1913ZM150.583 15.0738C149.759 15.0738 148.983 14.7776 148.398 14.2396C147.819 13.6826 147.5 12.9525 147.5 12.1851C147.5 11.4176 147.819 10.6875 148.4 10.1295C148.983 9.59272 149.759 9.29651 150.583 9.29651C151.417 9.29651 152.119 9.71172 152.561 10.06L152.689 10.1604V9.42027H153.666V14.95H152.689V14.2098L152.561 14.3101C152.119 14.6585 151.417 15.0738 150.583 15.0738Z" fill="#31322F"/>
<path fill-rule="evenodd" clip-rule="evenodd" d="M155.435 14.95V10.2904H154.54V9.42022H155.435V7.7859C155.435 6.78445 156.28 6 157.359 6H158.588L158.34 6.87022H157.385C156.867 6.87022 156.412 7.30964 156.412 7.81076V9.42022H158.269V10.2904H156.412V14.95H155.435Z" fill="#31322F"/>
<path fill-rule="evenodd" clip-rule="evenodd" d="M161.955 14.95C160.894 14.95 160.031 14.1376 160.031 13.1394V10.2904H159.135V9.42022H160.031V6H161.008V9.42022H162.865V10.2904H161.008V13.1146C161.008 13.6197 161.472 14.0798 161.981 14.0798H162.936L163.184 14.95H161.955Z" fill="#31322F"/>
<path fill-rule="evenodd" clip-rule="evenodd" d="M166.163 10.2284C165.408 10.2284 164.706 10.741 164.418 11.5039L164.408 11.5205L164.352 11.6261H167.975L167.905 11.4956C167.634 10.7415 166.933 10.2284 166.163 10.2284ZM166.162 15.0491C165.397 15.0486 164.693 14.7493 164.18 14.2062C163.709 13.7263 163.434 13.1246 163.383 12.4649C163.37 12.3781 163.37 12.2965 163.37 12.2099C163.37 11.9933 163.396 11.7735 163.447 11.5566C163.56 11.0595 163.814 10.5955 164.18 10.2142C164.69 9.68622 165.413 9.38318 166.163 9.38318C166.92 9.38318 167.63 9.67862 168.161 10.215C168.542 10.6121 168.795 11.0755 168.892 11.5544C168.969 11.9777 168.971 12.2406 168.962 12.3723H164.308V12.4702C164.444 13.4495 165.23 14.1907 166.136 14.2038C166.693 14.1782 167.242 13.9638 167.623 13.6273L168.438 14.0854C168.217 14.306 167.98 14.4874 167.716 14.6385C167.286 14.8811 166.749 15.0232 166.162 15.0491Z" fill="#31322F"/>
<path fill-rule="evenodd" clip-rule="evenodd" d="M169.922 14.9499V9.42017H170.9V10.1191L171.035 9.97872C171.381 9.61889 172.4 9.32564 173.077 9.29846L172.839 10.2168C171.764 10.2458 170.9 11.0343 170.9 11.9991V14.9499H169.922Z" fill="#31322F"/>
<path fill-rule="evenodd" clip-rule="evenodd" d="M202.644 10.9148C203.225 10.5983 203.771 10.3007 204.355 9.9826C204.166 9.67029 204.212 9.74537 204.04 9.4507C203.857 9.13852 203.926 9.01579 204.303 9.01321C205.401 9.006 206.499 9.0051 207.597 9.01051C207.923 9.01218 208.002 9.14354 207.839 9.41426C207.295 10.3129 206.746 11.2084 206.192 12.1012C206.015 12.3862 205.861 12.3855 205.676 12.1067C205.486 11.8201 205.536 11.891 205.333 11.5662C204.76 11.8791 204.188 12.192 203.627 12.4983C203.661 12.581 203.704 12.6341 203.739 12.6916C204.162 13.3836 204.35 13.7141 204.787 14.3982C205.304 15.2089 206.389 15.2577 207.005 14.5085C207.073 14.4251 207.136 14.3367 207.192 14.2455C208.228 12.5566 209.265 10.868 210.295 9.17574C210.399 9.00445 210.493 8.81732 210.539 8.6262C210.719 7.86442 210.118 7.14424 209.274 7.13999C207.054 7.12892 204.833 7.12724 202.613 7.14566C201.601 7.15403 200.993 8.10693 201.438 8.94444C201.583 9.21708 201.756 9.4762 201.919 9.74035C202.225 10.2376 202.306 10.3684 202.644 10.9148Z" fill="#306E9A"/>
<path fill-rule="evenodd" clip-rule="evenodd" d="M197.707 16.1327C197.708 15.5059 197.71 14.2789 197.71 14.2789C197.71 14.2789 197.437 14.2762 197.068 14.2762C196.692 14.2762 196.614 14.1513 196.8 13.8457C197.34 12.9556 197.887 12.0686 198.438 11.1849C198.602 10.9224 198.748 10.8994 198.927 11.1912C199.472 12.0795 200.019 12.9668 200.556 13.8589C200.728 14.1437 200.65 14.2683 200.304 14.2788C199.946 14.2788 199.641 14.2784 199.641 14.2784L199.641 16.1377C199.641 16.1377 201.098 16.138 201.951 16.138C202.947 16.124 203.532 15.2729 203.156 14.4024C203.114 14.3057 203.065 14.211 203.009 14.1204C201.986 12.4424 200.963 10.7642 199.933 9.08939C199.829 8.91991 199.705 8.75055 199.554 8.6188C198.949 8.09348 197.993 8.21956 197.569 8.89879C196.452 10.686 195.344 12.4782 194.255 14.2799C193.759 15.1007 194.325 16.0662 195.31 16.1247C195.63 16.1437 197 16.1327 197.707 16.1327Z" fill="#1F4066"/>
</g>
<rect x="220.086" y="6.1936" width="41.6842" height="13.1613" fill="white"/>
<path d="M256.888 16.8244V16.6064C256.107 16.8774 256.606 16.8244 245.554 16.8244C245.554 15.6049 245.561 15.6679 245.554 15.6049C245.431 15.6001 245.323 15.6001 244.874 15.6001C244.874 16.4662 244.867 15.9291 244.867 16.8244H242.003C242.003 16.2388 242.01 16.084 242.01 15.4113C241.287 15.7017 240.361 15.721 239.529 15.7113C239.529 16.4225 239.522 16.113 239.522 16.8243H235.985C235.616 16.5483 235.79 16.6741 234.871 15.9822C234.639 16.1516 233.945 16.6549 233.706 16.8243H227.775V12.3581H233.786C234.148 12.6291 233.988 12.5081 234.907 13.1903C235.139 13.021 235.789 12.5419 236.043 12.3581H240.238C240.947 12.3581 241.54 12.4501 241.996 12.6291V12.3581C245.923 12.3581 246.646 12.2903 247.471 12.6048V12.3581H253.127V12.6096C253.952 12.2757 254.545 12.3581 257.822 12.3581V12.6C258.567 12.3145 259.022 12.3484 261.749 12.3581V3.87109C261.749 2.58884 260.194 1.54846 258.277 1.54846H223.558C221.642 1.54846 220.086 2.58884 220.086 3.87109V9.18396C220.766 8.12431 221.511 6.95821 221.757 6.57599H224.629C224.94 7.06466 224.745 6.75495 225.28 7.59691V6.57599H228.607C228.817 6.87588 229.41 7.73719 229.613 8.02756C230.032 7.36946 230.343 6.87104 230.524 6.57599H237.974C237.974 6.57108 238.806 6.57599 238.813 6.57599C241.974 6.58557 242.69 6.5372 243.471 6.83236V6.57599H246.357V7.02592C246.907 6.73076 247.652 6.57599 248.578 6.57599H250.574C250.574 6.60018 250.712 6.59048 250.74 6.59048H253.084C253.388 7.0646 253.272 6.88073 253.72 7.58721V6.59048H256.852C257.207 6.97755 256.78 6.50337 257.662 7.48076V6.59048H260.548V11.0421H257.539C257.149 10.6066 257.438 10.9356 256.585 9.98246V11.0421H252.765C252.303 10.3259 252.758 11.0276 252.288 10.3018H250.914C250.61 10.7856 250.755 10.5534 250.451 11.0421H248.512C247.623 11.0421 246.899 10.8969 246.364 10.6115V11.0421H241.554C241.533 10.3695 241.547 9.84206 241.547 9.84206C241.417 9.82757 241.301 9.83242 240.838 9.83242V11.0469H231.037V10.4953C230.857 10.7662 230.842 10.7808 230.669 11.0469H228.535C228.245 10.6163 228.325 10.7373 228.166 10.4953V11.0469H224.34C224.036 10.5582 224.18 10.7905 223.877 10.3066H222.488C222.184 10.7904 222.329 10.5582 222.025 11.0469H220.101V20.9032C220.101 22.1856 221.656 23.2259 223.573 23.2259H258.299C260.215 23.2259 261.771 22.1856 261.771 20.9032V16.5292C260.852 16.9307 259.405 16.8244 256.888 16.8244Z" fill="#016FD0"/>
<path d="M245.525 7.21973H244.303V10.5729H245.525V7.21973Z" fill="#016FD0"/>
<path d="M243.615 8.11955C243.615 7.32602 242.596 7.22933 241.634 7.22933L238.806 7.21472V10.5679H239.992V9.35343H241.294C242.625 9.35343 242.342 9.85185 242.364 10.5679H243.565V9.91466C243.565 9.46958 243.456 9.18405 242.769 9.02444C243.305 8.87925 243.623 8.50667 243.615 8.11955ZM241.489 8.66635H239.992V7.92599H241.511C241.88 7.92599 242.285 7.97442 242.285 8.28401C242.285 8.60343 241.901 8.66635 241.489 8.66635Z" fill="#016FD0"/>
<path d="M237.981 7.92608V7.21973H233.967V10.5729H237.981V9.88092H235.167V9.21325H237.901V8.53096H235.167V7.92608H237.981Z" fill="#016FD0"/>
<path d="M233.077 10.5729V7.21973H231.081L229.656 9.49386L228.086 7.21973H226.126V10.3986L224.094 7.21973H222.321L220.173 10.5729H221.468L221.931 9.83255H224.426L224.889 10.5729H227.334V7.95027L229.07 10.5729H230.126L231.862 7.95027V10.5729H233.077ZM222.357 9.13577L223.168 7.80029L223.999 9.13577H222.357Z" fill="#016FD0"/>
<path d="M240.281 12.9969H236.469L234.95 14.1001L233.468 12.9969H228.658L228.65 16.3501H233.381L234.922 15.2373L236.397 16.3501H238.726L238.733 15.2228C240.1 15.2228 242.299 15.4452 242.299 14.0953C242.299 13.2582 241.41 12.9969 240.281 12.9969ZM232.773 15.6437H229.837V14.9759H232.462V14.2938H229.837V13.6888H232.853L234.148 14.6663L232.773 15.6437ZM237.533 16.0405L235.703 14.6808L237.533 13.355V16.0405ZM240.267 14.5405H238.733V13.6888H240.288C240.694 13.6888 241.026 13.8001 241.026 14.0954C241.026 14.4049 240.694 14.5405 240.267 14.5405Z" fill="#016FD0"/>
<path d="M246.111 8.92284C246.111 9.99698 246.849 10.568 248.498 10.568H249.887L250.349 9.82766H252.831L253.308 10.568H255.746V8.05669L258.002 10.568H259.709V7.22939H258.487V9.55681L256.382 7.22939H254.552V10.3938L252.534 7.22939H250.74L249.04 9.8664H248.505C247.543 9.8664 247.341 9.47443 247.341 8.9035C247.341 7.75188 248.476 7.93575 249.735 7.95024V7.21472H248.57C246.871 7.21472 246.111 7.79535 246.111 8.92284ZM251.616 7.8002L252.425 9.13568H250.776L251.616 7.8002Z" fill="#016FD0"/>
<path d="M255.391 15.6293H253.062L253.055 16.3454H255.384C256.454 16.3454 257.279 16.0745 257.279 15.281C257.279 13.6745 254.176 14.739 254.176 14.0083C254.176 13.7374 254.53 13.6987 254.841 13.6987H257.04V12.9922H254.639C253.713 12.9922 252.939 13.3117 252.939 13.9938C252.939 15.5906 256.028 14.5987 256.028 15.3197C256.021 15.581 255.688 15.6293 255.391 15.6293Z" fill="#016FD0"/>
<path d="M247.688 13.9018C247.688 13.1082 246.668 12.9969 245.728 12.9969H242.878L242.871 16.3501H244.071L244.078 15.126H245.352C246.147 15.126 246.422 15.2228 246.422 15.7938L246.415 16.3501H247.616L247.623 15.6825C247.623 15.2518 247.493 14.9518 246.827 14.7921C247.384 14.6421 247.681 14.2696 247.688 13.9018ZM245.576 14.4437H244.078V13.6889H245.598C245.966 13.6889 246.372 13.7374 246.372 14.047C246.371 14.3809 245.981 14.4437 245.576 14.4437Z" fill="#016FD0"/>
<path d="M252.339 13.6888V12.9969H248.346L248.339 16.3501H252.331L252.339 15.6581L249.547 15.6437V14.9759H252.288V14.2938H249.554V13.6888H252.339Z" fill="#016FD0"/>
<path d="M259.514 13.7034H261.691V12.9969H259.311C258.386 12.9969 257.59 13.3163 257.59 13.9986C257.59 15.5953 260.678 14.618 260.678 15.3244C260.678 15.5711 260.367 15.634 260.071 15.634H257.756L257.749 16.3501H260.064C260.671 16.3501 261.337 16.2629 261.691 15.9195V14.671C260.932 14.0033 258.849 14.6081 258.849 14.0179C258.849 13.7373 259.181 13.7034 259.514 13.7034Z" fill="#016FD0"/>
<path d="M298.731 1.5H274.284C272.896 1.5 271.771 2.48544 271.771 3.70002V20.2999C271.771 21.5146 272.896 22.5 274.284 22.5H298.503C299.89 22.5 301.244 21.5146 301.244 20.2999V3.70002C301.244 2.48544 300.119 1.5 298.731 1.5Z" fill="#F9F9F9"/>
<path d="M298.624 10.3413C299.257 10.2268 299.603 9.85549 299.603 9.27799C299.603 7.97173 298.016 8.15965 296.833 8.15965L296.833 11.918H297.671V10.4147H297.786L298.949 11.918H299.975L298.624 10.3413ZM297.917 9.90133H297.671V8.76013H297.927C298.456 8.76013 298.744 8.95255 298.744 9.31471C298.744 9.69967 298.456 9.90133 297.917 9.90133Z" fill="black"/>
<path d="M293.906 8.16431H296.278V8.80595H294.744V9.64019H296.226V10.2726H294.744V11.2901H296.278V11.9226H293.906V8.16431Z" fill="black"/>
<path d="M290.309 8.16431L291.456 10.6943L292.618 8.16431H293.535L291.676 12.0234H291.226L289.393 8.16431H290.309Z" fill="black"/>
<path d="M287.382 8.02673C288.676 8.02673 289.718 8.94335 289.718 10.0709C289.718 11.203 288.67 12.1151 287.382 12.1151C286.089 12.1151 285.047 11.1983 285.047 10.0709C285.047 8.93879 286.094 8.02673 287.382 8.02673Z" fill="#FF6F00"/>
<path d="M284.801 8.30634V9.17718C283.749 8.25594 282.351 8.96184 282.351 10.048C282.351 11.1939 283.791 11.8127 284.801 10.928V11.7989C283.246 12.4543 281.487 11.5376 281.487 10.048C281.487 8.61798 283.22 7.61886 284.801 8.30634Z" fill="black"/>
<path d="M279.712 11.3449C280.309 11.3449 280.885 10.6437 279.539 10.2267C278.754 9.97455 278.481 9.70419 278.481 9.18627C278.481 8.12289 280.083 7.74711 281.084 8.53095L280.644 9.02583C280.099 8.49423 279.34 8.74167 279.34 9.14055C279.34 9.34215 279.481 9.45669 279.984 9.61251C280.937 9.91503 281.22 10.1855 281.22 10.7858C281.22 12.138 279.188 12.5001 278.256 11.3037L278.795 10.85C278.989 11.1754 279.314 11.3449 279.712 11.3449Z" fill="black"/>
<path d="M277.931 8.16431H277.094V11.9226H277.931V8.16431Z" fill="black"/>
<path d="M301.245 20.3V14.2189C299.213 15.3298 287.442 20.5998 275.884 22.4994H298.535C299.911 22.4844 301.245 21.5053 301.245 20.3Z" fill="#FF6F00"/>
<path d="M274.397 8.16431H273.172V11.9226H274.397C276.015 11.9226 276.706 10.896 276.706 10.0481C276.706 8.94347 275.764 8.16431 274.397 8.16431ZM275.376 10.9968C275.12 11.1984 274.769 11.2901 274.23 11.2901H274.01V8.80595H274.23C274.769 8.80595 275.104 8.88389 275.376 9.10841C275.675 9.33767 275.842 9.68591 275.842 10.048C275.842 10.4101 275.675 10.7584 275.376 10.9968Z" fill="black"/>
<path d="M274.284 1.6H298.731C300.076 1.6 301.144 2.55276 301.144 3.70002V20.2999C301.144 20.8681 300.827 21.3916 300.332 21.7765C299.838 22.1613 299.174 22.4 298.503 22.4H274.284C272.939 22.4 271.871 21.4472 271.871 20.2999V3.70002C271.871 2.55276 272.939 1.6 274.284 1.6Z" stroke="#616161" stroke-width="0.2"/>
<defs>
<clipPath id="clip0_57_8588">
<rect width="63.4286" height="24" fill="white" transform="translate(147.5)"/>
</clipPath>
</defs>
</svg>
