<svg width="44" height="44" viewBox="0 0 44 44" fill="none" xmlns="http://www.w3.org/2000/svg">
<rect width="44" height="44" rx="22" fill="white"/>
<path d="M23.0029 15C23.0029 14.4477 22.5552 14 22.0029 14C21.4506 14 21.0029 14.4477 21.0029 15V21H15.0029C14.4506 21 14.0029 21.4477 14.0029 22C14.0029 22.5523 14.4506 23 15.0029 23H21.0029V29C21.0029 29.5523 21.4506 30 22.0029 30C22.5552 30 23.0029 29.5523 23.0029 29V23H29.0029C29.5552 23 30.0029 22.5523 30.0029 22C30.0029 21.4477 29.5552 21 29.0029 21H23.0029V15Z" fill="#333333"/>
</svg>
