<svg width="20" height="20" viewBox="0 0 20 20" fill="none" xmlns="http://www.w3.org/2000/svg">
<path d="M14.8449 14.0369L12.3554 11.5474C12.8554 10.8797 13.1552 10.0534 13.1552 9.15515C13.1552 6.94601 11.3643 5.15515 9.15515 5.15515C6.94601 5.15515 5.15515 6.94601 5.15515 9.15515C5.15515 11.3643 6.94601 13.1552 9.15515 13.1552C10.0534 13.1552 10.8797 12.8554 11.5474 12.3554L14.0369 14.8449L14.8449 14.0369ZM6.29801 9.15515C6.29801 7.57972 7.57972 6.29801 9.15515 6.29801C10.7306 6.29801 12.0123 7.57972 12.0123 9.15515C12.0123 10.7306 10.7306 12.0123 9.15515 12.0123C7.57972 12.0123 6.29801 10.7306 6.29801 9.15515Z" fill="#333333"/>
</svg>
