<svg width="16" height="15" viewBox="0 0 16 15" fill="none" xmlns="http://www.w3.org/2000/svg">
<path fill-rule="evenodd" clip-rule="evenodd" d="M0.666687 0.737467C0.666687 0.369278 0.965164 0.0708008 1.33335 0.0708008H2.93046C3.86786 0.0708008 4.67948 0.721865 4.88283 1.63694L5.20147 3.0708H14.0526C15.1369 3.0708 15.9325 4.08978 15.6695 5.14169L15.0709 7.53597C14.5516 9.61341 12.685 11.0708 10.5436 11.0708H9.27923C7.05472 11.0708 5.13945 9.50066 4.70319 7.31934L4.01436 3.87517L3.58125 1.92618C3.51347 1.62116 3.24292 1.40413 2.93046 1.40413H1.33335C0.965164 1.40413 0.666687 1.10566 0.666687 0.737467ZM5.47989 4.40413L6.01063 7.05785C6.32225 8.61594 7.6903 9.73747 9.27923 9.73747H10.5436C12.0731 9.73747 13.4064 8.69648 13.7774 7.21259L14.376 4.81831C14.4286 4.60793 14.2694 4.40413 14.0526 4.40413H5.47989Z" fill="#333333"/>
<path d="M5.00002 12.7375C5.00002 12.0011 5.59697 11.4041 6.33335 11.4041C7.06973 11.4041 7.66669 12.0011 7.66669 12.7375C7.66669 13.4738 7.06973 14.0708 6.33335 14.0708C5.59697 14.0708 5.00002 13.4738 5.00002 12.7375Z" fill="#333333"/>
<path d="M13 11.4041C12.2636 11.4041 11.6667 12.0011 11.6667 12.7375C11.6667 13.4738 12.2636 14.0708 13 14.0708C13.7364 14.0708 14.3334 13.4738 14.3334 12.7375C14.3334 12.0011 13.7364 11.4041 13 11.4041Z" fill="#333333"/>
</svg>