<svg width="16" height="16" viewBox="0 0 16 16" fill="none" xmlns="http://www.w3.org/2000/svg">
<path d="M13.4137 11.9312C13.119 11.2331 12.6912 10.5989 12.1543 10.0641C11.6191 9.52767 10.985 9.10001 10.2871 8.80469C10.2809 8.80156 10.2746 8.8 10.2684 8.79688C11.2418 8.09375 11.8746 6.94844 11.8746 5.65625C11.8746 3.51562 10.1403 1.78125 7.99964 1.78125C5.85902 1.78125 4.12464 3.51562 4.12464 5.65625C4.12464 6.94844 4.75746 8.09375 5.73089 8.79844C5.72464 8.80156 5.71839 8.80312 5.71214 8.80625C5.01214 9.10156 4.38402 9.525 3.84496 10.0656C3.30856 10.6009 2.8809 11.235 2.58558 11.9328C2.29546 12.616 2.13899 13.3485 2.12464 14.0906C2.12423 14.1073 2.12715 14.1239 2.13325 14.1394C2.13934 14.1549 2.14848 14.1691 2.16013 14.181C2.17178 14.193 2.1857 14.2025 2.20107 14.2089C2.21645 14.2154 2.23296 14.2188 2.24964 14.2188H3.18714C3.25589 14.2188 3.31058 14.1641 3.31214 14.0969C3.34339 12.8906 3.82777 11.7609 4.68402 10.9047C5.56996 10.0188 6.74652 9.53125 7.99964 9.53125C9.25277 9.53125 10.4293 10.0188 11.3153 10.9047C12.1715 11.7609 12.6559 12.8906 12.6871 14.0969C12.6887 14.1656 12.7434 14.2188 12.8121 14.2188H13.7496C13.7663 14.2188 13.7828 14.2154 13.7982 14.2089C13.8136 14.2025 13.8275 14.193 13.8392 14.181C13.8508 14.1691 13.8599 14.1549 13.866 14.1394C13.8721 14.1239 13.8751 14.1073 13.8746 14.0906C13.859 13.3438 13.7043 12.6172 13.4137 11.9312ZM7.99964 8.34375C7.28246 8.34375 6.60746 8.06406 6.09964 7.55625C5.59183 7.04844 5.31214 6.37344 5.31214 5.65625C5.31214 4.93906 5.59183 4.26406 6.09964 3.75625C6.60746 3.24844 7.28246 2.96875 7.99964 2.96875C8.71683 2.96875 9.39183 3.24844 9.89964 3.75625C10.4075 4.26406 10.6871 4.93906 10.6871 5.65625C10.6871 6.37344 10.4075 7.04844 9.89964 7.55625C9.39183 8.06406 8.71683 8.34375 7.99964 8.34375Z" fill="#333333"/>
</svg>